<svg width="27" height="34" viewBox="0 0 27 34" fill="none" xmlns="http://www.w3.org/2000/svg">
<path d="M14.7733 0.625C14.9059 0.625 15.0331 0.677678 15.1268 0.771447L26.3536 11.9982C26.4473 12.0919 26.5 12.2191 26.5 12.3517V30.5C26.5 31.2625 26.1971 31.9938 25.6579 32.5329C25.1188 33.0721 24.3875 33.375 23.625 33.375H3.375C2.6125 33.375 1.88123 33.0721 1.34207 32.5329C0.802901 31.9938 0.5 31.2625 0.5 30.5V3.5C0.5 2.7375 0.802901 2.00624 1.34207 1.46707C1.88123 0.927901 2.6125 0.625 3.375 0.625H14.7733Z" stroke="#00AEEF" stroke-linecap="round" stroke-linejoin="round"/>
<path d="M15.1875 1.8125V10.9375C15.1875 11.4898 15.6352 11.9375 16.1875 11.9375H25.3125" stroke="#00AEEF" stroke-linecap="round" stroke-linejoin="round"/>
</svg>
