<svg width="25" height="26" viewBox="0 0 25 26" fill="none" xmlns="http://www.w3.org/2000/svg">
<path d="M21.3333 1H2.66667C1.19391 1 0 2.19391 0 3.66667V22.3333C0 23.8061 1.19391 25 2.66667 25H21.3333C22.8061 25 24 23.8061 24 22.3333V3.66667C24 2.19391 22.8061 1 21.3333 1Z" stroke="#00AEEF" stroke-linecap="round" stroke-linejoin="round"/>
<path d="M7.5625 10.625C8.70159 10.625 9.625 9.70159 9.625 8.5625C9.625 7.42341 8.70159 6.5 7.5625 6.5C6.42341 6.5 5.5 7.42341 5.5 8.5625C5.5 9.70159 6.42341 10.625 7.5625 10.625Z" stroke="#00AEEF" stroke-linecap="round" stroke-linejoin="round"/>
<path d="M23.875 17.2386L17.3125 10.875L2.875 24.875" stroke="#00AEEF" stroke-linecap="round" stroke-linejoin="round"/>
</svg>
