<svg width="41" height="41" viewBox="0 0 41 41" fill="none" xmlns="http://www.w3.org/2000/svg">
<g clip-path="url(#clip0_2796_3)">
<path d="M28.9931 0H12.0118L0 12.0069V28.9783L12.0118 41H28.9931L41 28.9783V12.0069L28.9931 0ZM38.5868 27.942L28.0604 38.4683H13.1617L2.62542 27.9469V13.0383L13.1567 2.52672L28.0555 2.51685L38.5868 13.0383V27.9469V27.942Z" fill="#1D1D1B"/>
<path d="M26.9348 6.58301H14.8342L6.41504 14.3359V22.3207H30.8433V24.5415H6.41997L6.41504 26.4415L8.31502 28.3414H27.3098L24.9855 30.73H10.7233L14.4394 34.4312H26.2735L34.5446 26.2737V18.7083H10.0373V16.0483H34.4508L34.4459 14.0694L32.8864 12.5149H13.8175L16.2949 10.0918H30.4682L26.9348 6.58301Z" fill="#1D1D1B"/>
</g>
<defs>
<clipPath id="clip0_2796_3">
<rect width="41" height="41" fill="white"/>
</clipPath>
</defs>
</svg>
