<svg width="44" height="41" viewBox="0 0 44 41" fill="none" xmlns="http://www.w3.org/2000/svg">
<path d="M18.0819 20.1314C18.4496 20.3793 18.7595 20.7058 19.0033 21.1148C19.2512 21.5239 19.371 22.028 19.371 22.6229C19.371 23.7716 18.8215 24.7302 17.7183 25.4905C16.6192 26.2549 15.2019 26.635 13.4666 26.635C12.2229 26.635 11.1692 26.3706 10.3015 25.8376C9.43384 25.3045 9 24.6517 9 23.879C9 23.4411 9.14049 23.0733 9.42146 22.7717C9.70243 22.4701 10.0743 22.3213 10.5412 22.3213C11.0081 22.3213 11.4254 22.4535 11.7353 22.7139C12.0452 22.9742 12.2022 23.3254 12.2022 23.7592C12.2022 24.0608 12.1485 24.3955 12.0411 24.7674C11.9336 25.1393 11.851 25.4161 11.789 25.5938C11.9254 25.6557 12.0989 25.7012 12.3138 25.7384C12.5286 25.7714 12.7807 25.788 13.0699 25.788C13.4252 25.788 13.7765 25.7301 14.1153 25.6144C14.4582 25.4987 14.7516 25.3087 15.0036 25.0442C15.2681 24.7674 15.4705 24.4451 15.6151 24.0732C15.7598 23.7014 15.83 23.2097 15.83 22.594C15.83 22.2428 15.7969 21.9123 15.735 21.5982C15.6689 21.2842 15.5532 21.0115 15.3796 20.776C15.2061 20.5405 14.9706 20.3587 14.6731 20.2265C14.3756 20.0942 13.9954 20.0281 13.5327 20.0281H12.3634V18.9125H13.1939C13.9665 18.9125 14.5285 18.6853 14.8755 18.2266C15.2226 17.768 15.3961 17.0697 15.3961 16.1276C15.3961 15.3715 15.2267 14.8054 14.8921 14.4253C14.5574 14.0452 14.074 13.8592 13.4376 13.8592C13.198 13.8592 12.9873 13.8716 12.8096 13.9006C12.6319 13.9295 12.4501 13.9791 12.2642 14.0534C12.3303 14.2642 12.4171 14.5534 12.5121 14.9294C12.6113 15.3054 12.6608 15.6236 12.6608 15.888C12.6608 16.326 12.5121 16.673 12.2105 16.9292C11.9088 17.1854 11.5163 17.3176 11.0288 17.3176C10.5412 17.3176 10.2024 17.1689 9.92555 16.8672C9.65285 16.5656 9.51648 16.202 9.51648 15.7682C9.51648 15.0038 9.9586 14.3551 10.8387 13.8179C11.7188 13.2808 12.8302 13.0122 14.1648 13.0122C15.0863 13.0122 15.8507 13.1196 16.458 13.3345C17.0654 13.5494 17.5406 13.8138 17.8918 14.1278C18.2348 14.4336 18.4744 14.7641 18.6066 15.1195C18.7388 15.4748 18.8049 15.793 18.8049 16.0739C18.8049 16.3549 18.7471 16.6524 18.6355 16.9912C18.524 17.33 18.3546 17.6316 18.1314 17.892C17.8587 18.206 17.5075 18.4745 17.0696 18.7018C16.6316 18.9291 16.1234 19.1067 15.5366 19.2265V19.3753C15.9374 19.4001 16.3671 19.4745 16.834 19.5984C17.2968 19.7224 17.71 19.9042 18.0653 20.1438L18.0819 20.1314Z" fill="white"/>
<path d="M30.6953 14.6362C31.1622 15.1279 31.5093 15.6899 31.7324 16.3179C31.9555 16.9501 32.0671 17.6029 32.0671 18.2764C32.0671 19.0821 31.9266 19.8093 31.6456 20.458C31.3646 21.1067 30.9845 21.6563 30.4969 22.1025C29.9846 22.5694 29.3937 22.9248 28.7161 23.1727C28.0385 23.4165 27.2617 23.5404 26.3816 23.5404C25.4519 23.5404 24.6338 23.3958 23.9231 23.1066C23.2124 22.8173 22.6216 22.4372 22.1464 21.962C21.6795 21.4951 21.3242 20.9456 21.0804 20.3093C20.8366 19.6771 20.7168 18.9954 20.7168 18.2723C20.7168 17.5492 20.8325 16.884 21.0639 16.2724C21.2953 15.6568 21.6506 15.099 22.1299 14.6032C22.5968 14.1156 23.1918 13.7272 23.9107 13.438C24.6297 13.1446 25.4561 13 26.3899 13C27.3237 13 28.1996 13.1487 28.9186 13.4504C29.6375 13.752 30.2284 14.1445 30.6911 14.6321L30.6953 14.6362ZM28.0963 21.5075C28.274 21.0943 28.4021 20.6357 28.4806 20.1275C28.5591 19.6193 28.5963 19.0036 28.5963 18.2764C28.5963 17.6236 28.5591 17.0368 28.4889 16.5162C28.4186 15.9956 28.2988 15.5287 28.1335 15.1238C27.96 14.7065 27.7327 14.3842 27.4517 14.1569C27.1708 13.9297 26.8196 13.814 26.4105 13.814C26.0015 13.814 25.642 13.9255 25.361 14.1487C25.0759 14.3718 24.8487 14.6899 24.671 15.1031C24.5099 15.4791 24.3942 15.9378 24.3198 16.4832C24.2454 17.0286 24.2082 17.6236 24.2082 18.2764C24.2082 18.9292 24.2413 19.5408 24.3033 20.0201C24.3694 20.4994 24.4851 20.9621 24.6586 21.4042C24.8115 21.805 25.0346 22.1273 25.3238 22.3711C25.6131 22.619 25.9684 22.7388 26.394 22.7388C26.7865 22.7388 27.1295 22.6273 27.4187 22.4083C27.7079 22.1852 27.9352 21.8877 28.1005 21.5034L28.0963 21.5075Z" fill="white"/>
<path d="M21.3206 28.9568V27.804L20.3496 26.0645H20.895L21.5644 27.3123L22.2379 26.0645H22.7668L21.7999 27.7998V28.9568H21.3206Z" fill="white"/>
<path d="M23.23 28.9568V26.0645H25.048V26.4983H23.7051V27.2834H24.8951V27.7172H23.7051V28.5229H25.0645V28.9568H23.23Z" fill="white"/>
<path d="M25.4434 28.9572L26.5011 26.0483H26.9639L28.0216 28.9572H27.5258L27.282 28.2754H26.1664L25.9227 28.9572H25.4434ZM26.311 27.8498H27.1333L26.7242 26.6888L26.311 27.8498Z" fill="white"/>
<path d="M28.5264 28.9568V26.0645H29.5635C29.8775 26.0645 30.1254 26.143 30.3072 26.3082C30.489 26.4694 30.5799 26.6966 30.5799 26.9859C30.5799 27.2007 30.5262 27.3784 30.4188 27.523C30.3113 27.6676 30.1667 27.7709 29.9808 27.837L30.6584 28.9568H30.1047L29.4932 27.9362H29.0015V28.9568H28.5264ZM29.0015 27.5106H29.5428C29.7122 27.5106 29.8486 27.4652 29.9477 27.3743C30.0469 27.2834 30.0965 27.1594 30.0965 26.9941C30.0965 26.8289 30.0469 26.709 29.9477 26.6223C29.8486 26.5396 29.7122 26.4942 29.5345 26.4942H29.0015V27.5065V27.5106Z" fill="white"/>
<path d="M32.0302 28.994C31.6542 28.994 31.3236 28.8742 31.0303 28.6304L31.2451 28.2503C31.5054 28.4569 31.7657 28.5602 32.0261 28.5602C32.1624 28.5602 32.2698 28.5271 32.3525 28.4652C32.4351 28.4032 32.4723 28.3164 32.4723 28.209C32.4723 28.1098 32.4351 28.0272 32.3607 27.9569C32.2864 27.8867 32.1417 27.8082 31.9228 27.7132C31.6253 27.5851 31.4145 27.4611 31.2906 27.3413C31.1666 27.2215 31.1046 27.0479 31.1046 26.8248C31.1046 26.6017 31.1873 26.3992 31.3567 26.2505C31.5261 26.1017 31.7368 26.0273 31.9971 26.0273C32.3235 26.0273 32.6086 26.1224 32.8607 26.3083L32.6706 26.7091C32.4351 26.5438 32.2079 26.4612 31.9971 26.4612C31.869 26.4612 31.7699 26.4942 31.6955 26.5562C31.6211 26.6182 31.5839 26.6967 31.5839 26.7917C31.5839 26.895 31.6211 26.9818 31.6955 27.0479C31.7699 27.114 31.9228 27.1967 32.1541 27.2917C32.4434 27.4157 32.65 27.5396 32.7698 27.6677C32.8896 27.7958 32.9516 27.9652 32.9516 28.1759C32.9516 28.428 32.8648 28.6263 32.6954 28.775C32.5219 28.9238 32.3029 28.994 32.0343 28.994H32.0302Z" fill="white"/>
</svg>
