<svg width="44" height="42" viewBox="0 0 44 42" fill="none" xmlns="http://www.w3.org/2000/svg">
<path d="M17.9256 20.713C18.2934 20.9609 18.6032 21.2873 18.847 21.6964C19.0949 22.1054 19.2148 22.6095 19.2148 23.2045C19.2148 24.3532 18.6652 25.3117 17.562 26.072C16.4629 26.8364 15.0457 27.2165 13.3103 27.2165C12.0666 27.2165 11.013 26.9521 10.1453 26.4191C9.27759 25.8861 8.84375 25.2332 8.84375 24.4606C8.84375 24.0226 8.98424 23.6549 9.2652 23.3532C9.54617 23.0516 9.91804 22.9029 10.3849 22.9029C10.8518 22.9029 11.2692 23.0351 11.5791 23.2954C11.8889 23.5557 12.046 23.9069 12.046 24.3408C12.046 24.6424 11.9922 24.9771 11.8848 25.3489C11.7774 25.7208 11.6906 25.9976 11.6328 26.1753C11.7691 26.2373 11.9427 26.2827 12.1575 26.3199C12.3724 26.353 12.6244 26.3695 12.9137 26.3695C13.269 26.3695 13.6202 26.3117 13.959 26.196C14.302 26.0803 14.5953 25.8902 14.8474 25.6258C15.1118 25.3489 15.3143 25.0267 15.4589 24.6548C15.6035 24.2829 15.6737 23.7912 15.6737 23.1756C15.6737 22.8244 15.6407 22.4938 15.5787 22.1798C15.5126 21.8658 15.3969 21.5931 15.2234 21.3575C15.0498 21.122 14.8143 20.9402 14.5168 20.808C14.2193 20.6758 13.8392 20.6097 13.3764 20.6097H12.2071V19.4941H13.0376C13.8103 19.4941 14.3722 19.2668 14.7193 18.8082C15.0664 18.3495 15.2399 17.6513 15.2399 16.7092C15.2399 15.953 15.0705 15.387 14.7358 15.0069C14.4011 14.6309 13.9177 14.4408 13.2814 14.4408C13.0417 14.4408 12.831 14.4532 12.6533 14.4821C12.4757 14.511 12.2939 14.5606 12.1079 14.635C12.174 14.8457 12.2567 15.1349 12.3558 15.5109C12.455 15.8869 12.5046 16.2051 12.5046 16.4695C12.5046 16.9075 12.3558 17.2546 12.0542 17.5108C11.7526 17.7669 11.3601 17.8992 10.8725 17.8992C10.3849 17.8992 10.042 17.7504 9.76929 17.4488C9.49659 17.1472 9.36023 16.7836 9.36023 16.3497C9.36023 15.5853 9.80234 14.9366 10.6824 14.3995C11.5667 13.8623 12.674 13.5938 14.0086 13.5938C14.93 13.5938 15.6944 13.7012 16.3018 13.916C16.9092 14.1309 17.3843 14.3953 17.7355 14.7094C18.0785 15.0151 18.3181 15.3457 18.4504 15.701C18.5826 16.0563 18.6487 16.3745 18.6487 16.6555C18.6487 16.9364 18.5908 17.2339 18.4793 17.5727C18.3677 17.9116 18.1983 18.2132 17.9752 18.4735C17.7025 18.7875 17.3513 19.0561 16.9133 19.2833C16.4753 19.5106 15.9671 19.6883 15.3804 19.8081V19.9568C15.7812 19.9816 16.2109 20.056 16.6778 20.18C17.1406 20.3039 17.5537 20.4857 17.9091 20.7254L17.9256 20.713Z" fill="white"/>
<path d="M30.539 15.2134C31.0059 15.7051 31.353 16.267 31.5761 16.895C31.7993 17.5272 31.9108 18.1801 31.9108 18.8536C31.9108 19.6593 31.7703 20.3865 31.4894 21.0352C31.2084 21.6839 30.8283 22.2334 30.3407 22.6797C29.8283 23.1466 29.2375 23.5019 28.5599 23.7498C27.8822 23.9936 27.1054 24.1176 26.2254 24.1176C25.2957 24.1176 24.4776 23.9729 23.7669 23.6837C23.0562 23.3945 22.4654 23.0144 21.9902 22.5392C21.5233 22.0723 21.1679 21.5227 20.9242 20.8864C20.6804 20.2543 20.5605 19.5725 20.5605 18.8494C20.5605 18.1263 20.6763 17.4611 20.9076 16.8496C21.139 16.2339 21.4944 15.6761 21.9737 15.1803C22.4406 14.6928 23.0355 14.3044 23.7545 14.0151C24.4734 13.7218 25.2998 13.5771 26.2336 13.5771C27.1674 13.5771 28.0434 13.7259 28.7623 14.0275C29.4813 14.3291 30.0721 14.7217 30.5349 15.2092L30.539 15.2134ZM27.9401 22.0847C28.1178 21.6715 28.2458 21.2129 28.3243 20.7046C28.4029 20.1964 28.44 19.5808 28.44 18.8536C28.44 18.2007 28.4029 17.614 28.3326 17.0934C28.2624 16.5728 28.1425 16.1059 27.9773 15.7009C27.8037 15.2836 27.5765 14.9613 27.2955 14.7341C27.0145 14.5068 26.6633 14.3911 26.2543 14.3911C25.8452 14.3911 25.4858 14.5027 25.2048 14.7258C24.9238 14.9489 24.6924 15.2671 24.5148 15.6803C24.3536 16.0563 24.2379 16.5149 24.1635 17.0603C24.0892 17.6057 24.052 18.2007 24.052 18.8536C24.052 19.5064 24.085 20.1179 24.147 20.5972C24.2131 21.0765 24.3288 21.5393 24.5024 21.9814C24.6552 22.3822 24.8784 22.7045 25.1676 22.9482C25.4568 23.1962 25.8122 23.316 26.2378 23.316C26.6303 23.316 26.9732 23.2044 27.2624 22.9854C27.5517 22.7623 27.7789 22.4648 27.9442 22.0805L27.9401 22.0847Z" fill="white"/>
<path d="M22.1497 28.8499C22.2158 28.8499 22.2696 28.8375 22.315 28.8127C22.3605 28.7879 22.4018 28.7301 22.4472 28.6391C22.4927 28.5482 22.5299 28.4202 22.5547 28.2508C22.5794 28.0813 22.6001 27.85 22.6166 27.5525C22.6332 27.255 22.6414 26.8872 22.6414 26.4575H24.5958V29.354H23.976V26.9864H23.2199C23.2199 27.4988 23.2034 27.9202 23.1662 28.2425C23.129 28.5648 23.067 28.8086 22.9844 28.9738C22.8976 29.1391 22.8067 29.2465 22.7034 29.3002C22.6001 29.354 22.4679 29.3829 22.2985 29.3829C22.2282 29.3829 22.1125 29.3705 21.9473 29.3498L21.9803 28.8292C22.0299 28.8457 22.0878 28.8499 22.1497 28.8499Z" fill="white"/>
<path d="M26.6154 29.4162C26.2311 29.4162 25.9129 29.2799 25.6609 29.0113C25.4089 28.7427 25.2808 28.3832 25.2808 27.9411V27.8957C25.2808 27.4618 25.3965 27.1065 25.632 26.8255C25.8675 26.5446 26.165 26.4082 26.5245 26.4082C26.9087 26.4082 27.2062 26.5487 27.4169 26.8338C27.6277 27.1189 27.7351 27.4825 27.7351 27.9287C27.7351 28.0279 27.7351 28.0981 27.731 28.1477H25.9047C25.9336 28.3874 26.0162 28.5733 26.1485 28.7014C26.2807 28.8295 26.446 28.8915 26.636 28.8915C26.8922 28.8915 27.1236 28.7923 27.3343 28.5898L27.6235 28.9782C27.3508 29.2716 27.012 29.4162 26.6112 29.4162H26.6154ZM25.9005 27.7139H27.1318C27.1153 27.4784 27.0575 27.2842 26.95 27.1395C26.8426 26.9949 26.7021 26.9206 26.5286 26.9206C26.355 26.9206 26.2146 26.9908 26.103 27.1313C25.9914 27.2718 25.9212 27.466 25.9005 27.7139Z" fill="white"/>
<path d="M28.8975 29.354V26.9864H28.1001V26.4575H30.3024V26.9864H29.5091V29.354H28.8975Z" fill="white"/>
</svg>
