<svg width="104" height="33" viewBox="0 0 104 33" fill="none" xmlns="http://www.w3.org/2000/svg">
<path d="M55.7266 22.4556V0.822266H37.0417V8.78893C37.0417 15.0223 36.589 18.6667 34.0652 22.4556H31.5527V32.8334H37.4604V27.3223H52.4333V32.8334H58.3749V22.4556H55.7266ZM49.7171 5.72227V22.4556H40.1087C42.3155 18.7889 42.7117 15.7112 42.7117 9.14449V5.72227H49.7171Z" fill="url(#paint0_linear_2023_47528)"/>
<path d="M13.6371 0.577881C17.5302 0.577881 20.6765 1.47788 22.9173 3.7001C23.585 4.36677 25.3166 4.53344 25.8146 5.34455C26.2673 6.06677 25.5316 7.43344 25.8372 8.26677C26.5162 10.0445 26.8671 12.0112 26.8671 14.1223C26.8784 21.7668 22.0006 27.5557 13.671 27.5779C5.35276 27.589 0.452342 21.8223 0.429707 14.1779C0.41839 6.31121 5.29618 0.600102 13.6144 0.588991L13.6371 0.577881ZM13.6823 23.0112C18.9902 23.0112 20.982 18.5445 20.9707 14.1223C20.9707 9.47788 18.9562 5.03344 13.6484 5.04455C8.34055 5.05566 6.34869 9.51121 6.36001 14.1445C6.37132 18.5668 8.3745 23.0112 13.6823 23.0001V23.0112Z" fill="url(#paint1_linear_2023_47528)"/>
<path d="M17.4287 0.822266V5.60004C17.5532 5.64449 17.6777 5.70004 17.8022 5.7556L25.6451 5.73338V27.3445H31.5641V5.73338H39.7352V0.822266H17.44H17.4287Z" fill="url(#paint2_linear_2023_47528)"/>
<path d="M75.5317 0.822266V16.4778C74.4226 12.9556 71.0614 10.7223 66.4892 10.7223H61.7132V0.822266H55.6924V27.3334H66.4099C71.084 27.3334 74.4226 25.2334 75.5317 21.8V27.3334H81.5413V0.822266H75.5317ZM65.8214 22.8334H61.3284V15.2223H65.8214C68.6281 15.2223 70.2918 16.5778 70.2918 18.8667C70.2918 21.1556 68.4923 22.8334 65.8214 22.8334Z" fill="url(#paint3_linear_2023_47528)"/>
<path d="M94.6582 13.5778L103.022 0.822266H96.0276L91.229 9.08893L86.5323 0.822266H79.3118L87.6754 13.7889L78.8252 27.3334H85.8872L91.2177 18.6L96.22 27.3334H103.576L94.6582 13.5778Z" fill="url(#paint4_linear_2023_47528)"/>
<defs>
<linearGradient id="paint0_linear_2023_47528" x1="31.5527" y1="16.8334" x2="58.3749" y2="16.8334" gradientUnits="userSpaceOnUse">
<stop stop-color="#BB7DB3"/>
<stop offset="0.66" stop-color="#A14092"/>
<stop offset="1" stop-color="#931F81"/>
</linearGradient>
<linearGradient id="paint1_linear_2023_47528" x1="0.452342" y1="14.0668" x2="26.8784" y2="14.0668" gradientUnits="userSpaceOnUse">
<stop stop-color="#F7A942"/>
<stop offset="0.53" stop-color="#ED6C29"/>
<stop offset="1" stop-color="#E53412"/>
</linearGradient>
<linearGradient id="paint2_linear_2023_47528" x1="17.4287" y1="14.0778" x2="39.7239" y2="14.0778" gradientUnits="userSpaceOnUse">
<stop stop-color="#A2D9F7"/>
<stop offset="0.59" stop-color="#65C0EC"/>
<stop offset="1" stop-color="#39AFE5"/>
</linearGradient>
<linearGradient id="paint3_linear_2023_47528" x1="55.6924" y1="14.0778" x2="81.5413" y2="14.0778" gradientUnits="userSpaceOnUse">
<stop stop-color="#D2D80C"/>
<stop offset="0.65" stop-color="#95AC20"/>
<stop offset="1" stop-color="#72942D"/>
</linearGradient>
<linearGradient id="paint4_linear_2023_47528" x1="78.8252" y1="14.0778" x2="103.576" y2="14.0778" gradientUnits="userSpaceOnUse">
<stop stop-color="#E94F23"/>
<stop offset="1" stop-color="#B01918"/>
</linearGradient>
</defs>
</svg>
