<svg width="240" height="95" viewBox="0 0 240 95" fill="none" xmlns="http://www.w3.org/2000/svg">
<path d="M45.03 93V70L45.905 69.0625V26.5H45.405L21.2175 59.375H53.3425L55.03 58.6875H76.8425V75H0.967499V59.6875L47.405 2H64.2175V93H45.03ZM82.875 56.1875V38.125C82.875 25.9583 86.1667 16.6667 92.75 10.25C99.375 3.83333 108.604 0.625 120.438 0.625C132.354 0.625 141.604 3.79167 148.188 10.125C154.812 16.4167 158.125 25.75 158.125 38.125V56.1875C158.125 68.9375 154.688 78.5 147.812 84.875C140.938 91.2083 131.812 94.375 120.438 94.375C108.479 94.3333 99.2292 91.0833 92.6875 84.625C86.1458 78.1667 82.875 68.6875 82.875 56.1875ZM103.812 59.0625C103.812 66.0208 105.188 71.25 107.938 74.75C110.688 78.25 114.854 80 120.438 80C126.021 80 130.208 78.25 133 74.75C135.792 71.25 137.188 66.0208 137.188 59.0625V35.5C137.188 28.75 135.771 23.7083 132.938 20.375C130.146 17.0417 125.979 15.375 120.438 15.375C114.938 15.375 110.792 17.0417 108 20.375C105.208 23.7083 103.812 28.75 103.812 35.5V59.0625ZM207.72 93V70L208.595 69.0625V26.5H208.095L183.907 59.375H216.032L217.72 58.6875H239.532V75H163.657V59.6875L210.095 2H226.907V93H207.72Z" fill="url(#paint0_linear_2665_44819)" fill-opacity="0.8"/>
<defs>
<linearGradient id="paint0_linear_2665_44819" x1="175.048" y1="107" x2="175.048" y2="-8" gradientUnits="userSpaceOnUse">
<stop stop-color="#A2D9F7"/>
<stop offset="0.59" stop-color="#65C0EC"/>
<stop offset="1" stop-color="#39AFE5"/>
</linearGradient>
</defs>
</svg>
