<svg width="934" height="361" viewBox="0 0 934 361" fill="none" xmlns="http://www.w3.org/2000/svg">
<path opacity="0.2" d="M172.463 361V271.156L176.125 267.738V101.234H174.172L79.4453 229.652H205.422L211.77 226.967H296.975V290.688H0.587891V230.873L181.984 5.53125H247.658V361H172.463ZM320.783 216.957V146.889C320.783 99.3626 333.723 63.0671 359.602 38.002C385.48 12.7741 421.532 0.160156 467.756 0.160156C514.305 0.160156 550.52 12.5299 576.398 37.2695C602.277 61.8464 615.217 98.3861 615.217 146.889V216.957C615.217 266.924 601.789 304.359 574.934 329.262C548.078 354.001 512.352 366.371 467.756 366.371C420.881 366.208 384.667 353.513 359.113 328.285C333.56 303.057 320.783 265.948 320.783 216.957ZM402.57 228.188C402.57 255.531 407.941 276.039 418.684 289.711C429.589 303.383 445.946 310.219 467.756 310.219C489.729 310.219 506.086 303.383 516.828 289.711C527.733 276.039 533.186 255.613 533.186 228.432V136.635C533.186 110.105 527.652 90.3294 516.584 77.3086C505.679 64.2878 489.403 57.7773 467.756 57.7773C446.271 57.7773 429.995 64.2878 418.928 77.3086C408.023 90.3294 402.57 110.105 402.57 136.635V228.188ZM808.947 361V271.156L812.609 267.738V101.234H810.656L715.93 229.652H841.906L848.254 226.967H933.459V290.688H637.072V230.873L818.469 5.53125H884.143V361H808.947Z" fill="url(#paint0_linear_2665_44817)" fill-opacity="0.8"/>
<defs>
<linearGradient id="paint0_linear_2665_44817" x1="517.92" y1="415" x2="517.92" y2="-35" gradientUnits="userSpaceOnUse">
<stop stop-color="#A2D9F7" stop-opacity="0"/>
<stop offset="0.59" stop-color="#65C0EC"/>
<stop offset="1" stop-color="#39AFE5"/>
</linearGradient>
</defs>
</svg>
