<svg width="370" height="280" viewBox="0 0 370 280" fill="none" xmlns="http://www.w3.org/2000/svg">
<rect width="370" height="280" fill="white"/>
<rect width="370" height="280" fill="url(#paint0_linear_2387_58)" fill-opacity="0.8"/>
<path d="M212.312 62.5625H162.25C160.775 62.5625 159.36 63.1485 158.317 64.1917C157.274 65.2349 156.688 66.6497 156.688 68.125V79.25H151.125V84.8125H156.688V98.7188H151.125V104.281H156.688V118.188H151.125V123.75H156.688V134.875C156.688 136.35 157.274 137.765 158.317 138.808C159.36 139.851 160.775 140.438 162.25 140.438H212.312C213.788 140.438 215.203 139.851 216.246 138.808C217.289 137.765 217.875 136.35 217.875 134.875V68.125C217.875 66.6497 217.289 65.2349 216.246 64.1917C215.203 63.1485 213.788 62.5625 212.312 62.5625ZM212.312 134.875H162.25V123.75H167.812V118.188H162.25V104.281H167.812V98.7188H162.25V84.8125H167.812V79.25H162.25V68.125H212.312V134.875Z" fill="white"/>
<path d="M201.188 79.25H178.938V84.8125H201.188V79.25Z" fill="white"/>
<path d="M201.188 98.7188H178.938V104.281H201.188V98.7188Z" fill="white"/>
<path d="M201.188 118.188H178.938V123.75H201.188V118.188Z" fill="white"/>
<defs>
<linearGradient id="paint0_linear_2387_58" x1="204.24" y1="280" x2="204.24" y2="3.47979e-06" gradientUnits="userSpaceOnUse">
<stop stop-color="#A2D9F7" stop-opacity="0"/>
<stop offset="1" stop-color="#39AFE5"/>
</linearGradient>
</defs>
</svg>
