<svg width="370" height="280" viewBox="0 0 370 280" fill="none" xmlns="http://www.w3.org/2000/svg">
<rect width="370" height="280" fill="white"/>
<rect width="370" height="280" fill="url(#paint0_linear_2387_36)" fill-opacity="0.8"/>
<path d="M185.25 64C164 64 147 81 147 102.25C147 109.9 149.55 117.55 153.8 123.925L147.85 134.125C147 135.4 147 137.1 147.85 138.375C148.7 139.65 149.55 140.5 151.25 140.5H185.25C206.5 140.5 223.5 123.5 223.5 102.25C223.5 81 206.5 64 185.25 64ZM185.25 132H158.9L162.725 125.625C163.575 123.925 163.575 122.225 162.3 120.95C158.05 115.85 155.5 109.05 155.5 102.25C155.5 85.675 168.675 72.5 185.25 72.5C201.825 72.5 215 85.675 215 102.25C215 118.825 201.825 132 185.25 132Z" fill="white"/>
<path d="M185.675 82.275H185.25C181 82.275 177.175 84.4 175.05 87.8C173.35 89.925 173.775 92.475 175.9 93.75C178.025 95.025 180.575 94.6 181.85 92.475C182.7 91.2 183.975 90.775 185.25 90.775H185.675C187.8 90.775 189.5 92.475 189.5 94.6C189.5 96.3 188.225 98 186.95 98.425L183.975 99.275C182.275 99.7 181 101.4 181 103.1V106.5C181 109.05 182.7 110.75 185.25 110.75C187.375 110.75 189.5 109.05 189.5 106.925C194.6 105.225 198 100.55 198 95.025C198 88.225 192.475 82.275 185.675 82.275Z" fill="white"/>
<path d="M185.25 123.5C187.597 123.5 189.5 121.597 189.5 119.25C189.5 116.903 187.597 115 185.25 115C182.903 115 181 116.903 181 119.25C181 121.597 182.903 123.5 185.25 123.5Z" fill="white"/>
<defs>
<linearGradient id="paint0_linear_2387_36" x1="204.24" y1="280" x2="204.24" y2="3.47979e-06" gradientUnits="userSpaceOnUse">
<stop stop-color="#A2D9F7" stop-opacity="0"/>
<stop offset="1" stop-color="#39AFE5"/>
</linearGradient>
</defs>
</svg>
