<svg width="370" height="400" viewBox="0 0 370 400" fill="none" xmlns="http://www.w3.org/2000/svg">
<g clip-path="url(#clip0_2722_4)">
<path d="M370 0H0V400H370V0Z" fill="white"/>
<path d="M366 0H4C1.79086 0 0 1.79086 0 4V396C0 398.209 1.79086 400 4 400H366C368.209 400 370 398.209 370 396V4C370 1.79086 368.209 0 366 0Z" fill="url(#paint0_linear_2722_4)" fill-opacity="0.8"/>
<path d="M99.4964 108C107.906 108 114.705 109.965 119.561 114.865C121.018 116.322 124.748 116.675 125.852 118.463C126.823 120.052 125.234 123.054 125.918 124.886C127.375 128.771 128.147 133.119 128.147 137.733C128.169 154.508 117.618 167.2 99.6289 167.244C81.6393 167.266 71.0221 154.618 71 137.843C70.978 120.582 81.5289 108.066 99.5185 108.022L99.4964 108ZM99.5847 157.223C111.063 157.201 115.367 147.423 115.345 137.733C115.345 127.557 110.997 117.8 99.5185 117.823C88.0405 117.823 83.7362 127.623 83.7583 137.799C83.7583 147.489 88.1067 157.245 99.5847 157.223Z" fill="url(#paint1_linear_2722_4)"/>
<path d="M135.977 108.353H169.969C185.023 108.331 187.341 117.734 187.385 137.026C187.407 153.868 178.798 166.494 161.052 166.538H135.977V108.353ZM148.669 155.744H160.125C167.541 155.722 174.605 151.131 174.582 138.284C174.582 126.564 170.477 119.125 157.785 119.147H148.669V155.766V155.744Z" fill="url(#paint2_linear_2722_4)"/>
<path d="M105.405 108.353V118.838C105.67 118.948 105.957 119.059 106.2 119.169L123.174 119.125V166.538H135.954V119.125H153.613V108.353H105.383H105.405Z" fill="url(#paint3_linear_2722_4)"/>
<path d="M211.477 108.353H224.257V133.252L249.089 108.353H262.819L240.15 131.287L265.136 166.538H249.089L231.541 140.337L224.257 147.754V166.538H211.477V108.353Z" fill="url(#paint4_linear_2722_4)"/>
<path d="M189.904 143.869L168.383 108.331H182.797L196.438 131.309L209.902 108.331H224.25L202.684 144.156V166.516H189.904V143.869Z" fill="url(#paint5_linear_2722_4)"/>
<path d="M252.344 108.353H265.124V130.669H287.131V108.353H299.889V166.538H287.131V141.419H265.124V166.538H252.344V108.353Z" fill="url(#paint6_linear_2722_4)"/>
</g>
<defs>
<linearGradient id="paint0_linear_2722_4" x1="204.24" y1="400" x2="204.24" y2="0" gradientUnits="userSpaceOnUse">
<stop stop-color="#A2D9F7" stop-opacity="0"/>
<stop offset="1" stop-color="#39AFE5"/>
</linearGradient>
<linearGradient id="paint1_linear_2722_4" x1="71" y1="137.61" x2="128.118" y2="137.61" gradientUnits="userSpaceOnUse">
<stop stop-color="#A2D9F7"/>
<stop offset="1" stop-color="#39AFE5"/>
</linearGradient>
<linearGradient id="paint2_linear_2722_4" x1="135.977" y1="137.433" x2="187.359" y2="137.433" gradientUnits="userSpaceOnUse">
<stop stop-color="#A2D9F7"/>
<stop offset="1" stop-color="#39AFE5"/>
</linearGradient>
<linearGradient id="paint3_linear_2722_4" x1="105.383" y1="137.433" x2="153.588" y2="137.433" gradientUnits="userSpaceOnUse">
<stop stop-color="#A2D9F7"/>
<stop offset="1" stop-color="#39AFE5"/>
</linearGradient>
<linearGradient id="paint4_linear_2722_4" x1="211.477" y1="137.433" x2="265.109" y2="137.433" gradientUnits="userSpaceOnUse">
<stop stop-color="#A2D9F7"/>
<stop offset="1" stop-color="#39AFE5"/>
</linearGradient>
<linearGradient id="paint5_linear_2722_4" x1="168.383" y1="137.411" x2="224.222" y2="137.411" gradientUnits="userSpaceOnUse">
<stop stop-color="#A2D9F7"/>
<stop offset="1" stop-color="#39AFE5"/>
</linearGradient>
<linearGradient id="paint6_linear_2722_4" x1="252.344" y1="137.433" x2="299.865" y2="137.433" gradientUnits="userSpaceOnUse">
<stop stop-color="#A2D9F7"/>
<stop offset="1" stop-color="#39AFE5"/>
</linearGradient>
<clipPath id="clip0_2722_4">
<rect width="370" height="400" fill="white"/>
</clipPath>
</defs>
</svg>
