<svg width="370" height="280" viewBox="0 0 370 280" fill="none" xmlns="http://www.w3.org/2000/svg">
<rect width="370" height="280" rx="4" fill="white"/>
<rect width="370" height="280" rx="4" fill="url(#paint0_linear_2447_5)" fill-opacity="0.8"/>
<path fill-rule="evenodd" clip-rule="evenodd" d="M153.887 132.113C150.19 128.416 149.13 122.777 150.289 115.378C144.238 110.966 141 106.228 141 101C141 95.7719 144.238 91.0345 150.289 86.6223C149.13 79.2233 150.19 73.5842 153.887 69.8873C157.584 66.1905 163.223 65.1299 170.622 66.2892C175.034 60.2375 179.772 57 185 57C190.228 57 194.966 60.2375 199.378 66.2892C206.777 65.1299 212.416 66.1905 216.113 69.8873C219.81 73.5842 220.87 79.2233 219.711 86.6223C225.762 91.0345 229 95.7719 229 101C229 106.228 225.762 110.966 219.711 115.378C220.87 122.777 219.81 128.416 216.113 132.113C212.416 135.81 206.777 136.87 199.378 135.711C194.966 141.762 190.228 145 185 145C179.772 145 175.034 141.762 170.622 135.711C163.223 136.87 157.584 135.81 153.887 132.113ZM171.61 127.392C173.234 127.044 174.904 127.736 175.806 129.13C179.329 134.573 182.471 137 185 137C187.529 137 190.671 134.573 194.194 129.13C195.096 127.736 196.766 127.044 198.39 127.392C204.73 128.75 208.667 128.244 210.456 126.456C212.244 124.667 212.75 120.73 211.392 114.39C211.044 112.766 211.736 111.096 213.13 110.194C218.573 106.671 221 103.529 221 101C221 98.4705 218.573 95.329 213.13 91.806C211.736 90.9038 211.044 89.234 211.392 87.6103C212.75 81.2702 212.244 77.3328 210.456 75.5442C208.667 73.7556 204.73 73.2502 198.39 74.6081C196.766 74.9558 195.096 74.2642 194.194 72.8702C190.671 67.4269 187.529 65 185 65C182.471 65 179.329 67.4269 175.806 72.8702C174.904 74.2642 173.234 74.9558 171.61 74.6081C165.27 73.2502 161.333 73.7556 159.544 75.5442C157.756 77.3328 157.25 81.2702 158.608 87.6103C158.956 89.234 158.264 90.9038 156.87 91.806C151.427 95.329 149 98.4705 149 101C149 103.529 151.427 106.671 156.87 110.194C158.264 111.096 158.956 112.766 158.608 114.39C157.25 120.73 157.756 124.667 159.544 126.456C161.333 128.244 165.27 128.75 171.61 127.392ZM181 103.343L198.172 86.1716L203.828 91.8284L181 114.657L166.172 99.8284L171.828 94.1716L181 103.343Z" fill="white"/>
<defs>
<linearGradient id="paint0_linear_2447_5" x1="204.24" y1="280" x2="204.24" y2="3.47979e-06" gradientUnits="userSpaceOnUse">
<stop stop-color="#A2D9F7" stop-opacity="0"/>
<stop offset="1" stop-color="#39AFE5"/>
</linearGradient>
</defs>
</svg>
