<svg width="370" height="280" viewBox="0 0 370 280" fill="none" xmlns="http://www.w3.org/2000/svg">
<rect width="370" height="280" fill="white"/>
<rect width="370" height="280" fill="url(#paint0_linear_2387_46)" fill-opacity="0.8"/>
<path d="M162.352 55V61.625C154.235 61.625 146.117 61.625 138 61.625V148.785H204.25V138.77C204.988 138.837 205.703 138.977 206.458 138.977C220.171 138.977 231.337 127.811 231.337 114.099C231.337 100.386 220.171 89.2293 206.458 89.2293C205.705 89.2293 204.986 89.353 204.25 89.4191V61.6251C196.167 61.6251 188.084 61.6251 180.001 61.6251V55.0001L162.352 55ZM166.769 59.4167H175.585V66.0417H184.375V70.4583H157.875V66.0417H166.769V59.4167ZM142.417 66.0417H153.458V74.875H188.792V66.0417H199.833V90.2126C191.481 92.5407 184.86 99.0617 182.52 107.413H167.295V111.83H181.692C181.624 112.579 181.58 113.332 181.58 114.099C181.58 119.419 183.276 124.342 186.135 128.393H167.295V132.809H190.12C192.881 135.223 196.211 136.951 199.833 137.968V144.368H142.417V66.0417ZM206.458 93.6458C217.784 93.6458 226.92 102.773 226.92 114.099C226.92 125.424 217.784 134.56 206.458 134.56C195.133 134.56 185.997 125.424 185.997 114.099C185.997 102.773 195.133 93.6458 206.458 93.6458ZM204.25 100.271V117.937H221.917V113.521H208.667V100.271H204.25Z" fill="white"/>
<path d="M155.667 61.625V66.0417H165.535V61.625H155.667Z" fill="white"/>
<path d="M149.042 102.997C149.042 107.413 149.042 111.83 149.042 116.247C153.654 116.247 158.266 116.247 162.878 116.247C162.878 111.83 162.878 107.413 162.878 102.997C158.266 102.997 153.654 102.997 149.042 102.997ZM153.458 107.413C155.126 107.413 156.794 107.413 158.461 107.413C158.461 108.886 158.461 110.358 158.461 111.83C156.794 111.83 155.126 111.83 153.458 111.83C153.458 110.358 153.458 108.886 153.458 107.413Z" fill="white"/>
<path d="M149.042 82.0176C149.042 86.4342 149.042 90.8509 149.042 95.2676C153.654 95.2676 158.266 95.2676 162.878 95.2676C162.878 90.8509 162.878 86.4342 162.878 82.0176C158.266 82.0176 153.654 82.0176 149.042 82.0176ZM153.458 86.4342C155.126 86.4342 156.794 86.4342 158.461 86.4342C158.461 87.9065 158.461 89.3787 158.461 90.8509C156.794 90.8509 155.126 90.8509 153.458 90.8509C153.458 89.3787 153.458 87.9065 153.458 86.4342Z" fill="white"/>
<path d="M149.042 123.976C149.042 128.393 149.042 132.809 149.042 137.226C153.654 137.226 158.266 137.226 162.878 137.226C162.878 132.809 162.878 128.393 162.878 123.976C158.266 123.976 153.654 123.976 149.042 123.976ZM153.458 128.393C155.126 128.393 156.794 128.393 158.461 128.393C158.461 129.865 158.461 131.337 158.461 132.809C156.794 132.809 155.126 132.809 153.458 132.809C153.458 131.337 153.458 129.865 153.458 128.393Z" fill="white"/>
<path d="M167.295 86.4342C167.295 87.9064 167.295 89.3786 167.295 90.8509C176.128 90.8509 184.962 90.8509 193.795 90.8509C193.795 89.3786 193.795 87.9064 193.795 86.4342C184.962 86.4342 176.128 86.4342 167.295 86.4342Z" fill="white"/>
<defs>
<linearGradient id="paint0_linear_2387_46" x1="204.24" y1="280" x2="204.24" y2="3.47979e-06" gradientUnits="userSpaceOnUse">
<stop stop-color="#A2D9F7" stop-opacity="0"/>
<stop offset="1" stop-color="#39AFE5"/>
</linearGradient>
</defs>
</svg>
