<svg width="370" height="284" viewBox="0 0 370 284" fill="none" xmlns="http://www.w3.org/2000/svg">
<rect width="370" height="284" fill="white"/>
<rect width="370" height="284" fill="url(#paint0_linear_2387_80)" fill-opacity="0.8"/>
<path d="M185 79.5C184.995 82.5975 185.844 85.6363 187.454 88.2827C189.064 90.929 191.372 93.0803 194.125 94.5003C196.878 95.9202 199.969 96.5538 203.059 96.3315C206.148 96.1091 209.117 95.0394 211.638 93.2399L220.398 102L224.375 98.0231L215.614 89.2627C217.152 87.0989 218.158 84.6027 218.549 81.9769C218.94 79.3512 218.706 76.6702 217.866 74.152C217.026 71.6339 215.603 69.3496 213.713 67.485C211.823 65.6204 209.52 64.2283 206.991 63.4217C204.462 62.6151 201.778 62.417 199.158 62.8433C196.537 63.2697 194.055 64.3086 191.912 65.8754C189.769 67.4422 188.026 69.4927 186.825 71.8602C185.624 74.2277 184.999 76.8453 185 79.5ZM190.625 79.5C190.625 77.2749 191.285 75.0998 192.521 73.2498C193.757 71.3997 195.514 69.9578 197.57 69.1063C199.626 68.2548 201.887 68.032 204.07 68.4661C206.252 68.9002 208.257 69.9717 209.83 71.545C211.403 73.1183 212.475 75.1229 212.909 77.3052C213.343 79.4875 213.12 81.7495 212.269 83.8051C211.417 85.8608 209.975 87.6178 208.125 88.854C206.275 90.0902 204.1 90.75 201.875 90.75C198.892 90.7466 196.033 89.5603 193.924 87.4512C191.815 85.3421 190.628 82.4826 190.625 79.5Z" fill="white"/>
<path d="M199.062 124.5H170.938V130.125H199.062V124.5Z" fill="white"/>
<path d="M193.438 135.75H176.562V141.375H193.438V135.75Z" fill="white"/>
<path d="M170.416 108.02C167.782 106.011 165.682 103.385 164.302 100.373C162.921 97.3618 162.303 94.057 162.5 90.75C162.508 85.7667 164.169 80.9269 167.223 76.9889C170.276 73.0509 174.55 70.2372 179.375 68.9888L178.289 63.4688C172.186 64.9727 166.762 68.4758 162.881 73.42C159.001 78.3641 156.886 84.4647 156.875 90.75C156.684 94.8361 157.467 98.909 159.159 102.633C160.85 106.357 163.403 109.626 166.606 112.171C169.451 114.799 170.937 116.292 170.937 118.875H176.562C176.562 113.7 173.438 110.814 170.416 108.02Z" fill="white"/>
<path d="M204.826 102C203.381 104.259 201.606 106.29 199.562 108.026C196.551 110.817 193.438 113.703 193.438 118.875H199.062C199.062 116.289 200.543 114.797 203.38 112.165C206.035 109.905 208.288 107.211 210.042 104.197L204.826 102Z" fill="white"/>
<defs>
<linearGradient id="paint0_linear_2387_80" x1="204.24" y1="284" x2="204.24" y2="3.5295e-06" gradientUnits="userSpaceOnUse">
<stop stop-color="#A2D9F7" stop-opacity="0"/>
<stop offset="1" stop-color="#39AFE5"/>
</linearGradient>
</defs>
</svg>
