<svg width="370" height="280" viewBox="0 0 370 280" fill="none" xmlns="http://www.w3.org/2000/svg">
<rect width="370" height="280" fill="white"/>
<rect width="370" height="280" fill="url(#paint0_linear_2387_68)" fill-opacity="0.8"/>
<path d="M218.581 66H167.496C164.512 66 162.103 68.457 162.103 71.4551V78.7615C162.073 79.3794 161.882 80.3642 160.96 80.3605C160.96 80.3605 160.96 80.3605 160.959 80.3605C158.942 80.3508 156.011 80.3374 152.419 80.324C147.815 80.302 146.422 83.6012 146 85.8595V125.453C146 125.453 146.139 129.296 147.074 131.588C147.537 132.607 148.123 133.635 148.856 134.711C150.035 136.443 151.838 137.358 153.315 137.842L153.311 137.843C153.311 137.843 154.019 138.41 159.289 138.672H219.142C221.857 138.386 223.974 136.099 223.974 133.274V71.4551C223.973 68.457 221.566 66 218.581 66ZM162.362 120.604C162.362 122.293 161.879 126.84 161.783 127.731C161.74 127.972 161.711 128.198 161.66 128.451L161.663 128.449C161.663 128.449 161.22 131.236 160.486 133.195C160.197 134.021 159.589 134.324 159.266 134.427C155.706 135.046 153.851 133.793 153.434 133.452C152.912 132.956 152.351 132.266 151.807 131.23C151.788 131.196 151.765 131.17 151.748 131.135C151.709 131.059 151.685 130.986 151.649 130.911C151.557 130.724 151.466 130.56 151.376 130.355C151.33 130.246 151.304 130.146 151.272 130.044C150.201 127.58 149.718 125.318 149.728 122.587C149.738 119.452 149.831 90.5054 149.831 90.5054C149.831 90.5054 149.583 83.8766 153.999 83.9034C157.744 83.9266 160.361 83.9424 161.076 83.9461H161.08C161.205 83.9485 161.29 83.9485 161.29 83.9485H161.321C161.691 83.9851 162.352 84.2264 162.358 85.5158L162.356 86.2495H162.363V120.604H162.362ZM220.268 129.76C220.268 132.458 218.157 134.638 215.539 134.638H170.605C169.283 134.631 167.711 134.622 166.129 134.6C164.935 134.581 164.657 133.817 164.618 133.212C164.669 132.12 164.938 130.636 165.12 129.754C165.166 129.546 165.209 129.341 165.25 129.13C165.266 129.058 165.277 129.008 165.277 129.008C165.813 126.299 165.952 123.73 165.952 123.73H165.949C165.972 123.345 165.983 123.009 165.983 122.795C165.983 122.583 165.983 122.471 165.983 122.471V74.4447C165.983 71.761 168.098 69.5648 170.714 69.5648H215.538C218.155 69.5648 220.267 71.761 220.267 74.4447L220.268 129.76Z" fill="white"/>
<path d="M175.535 82.1472H210.839C210.839 82.1472 213.319 81.9486 213.291 83.9644C213.291 84.7029 213.235 85.7828 210.762 85.7828C208.292 85.7828 175.537 85.7828 175.537 85.7828C175.537 85.7828 173.66 85.5219 173.718 83.9619C173.744 83.0844 174.229 82.1472 175.535 82.1472Z" fill="white"/>
<path d="M175.535 91.3135H210.839C210.839 91.3135 213.319 91.1148 213.291 93.1319C213.291 93.8716 213.235 94.9502 210.762 94.9502C208.292 94.9502 175.537 94.9502 175.537 94.9502C175.537 94.9502 173.66 94.6894 173.718 93.1294C173.744 92.2519 174.229 91.3135 175.535 91.3135Z" fill="white"/>
<path d="M175.231 100.521H210.537C210.537 100.521 213.017 100.322 212.988 102.34C212.988 103.078 212.932 104.158 210.46 104.158C207.99 104.158 175.231 104.158 175.231 104.158C175.231 104.158 173.356 103.897 173.412 102.337C173.443 101.46 173.925 100.521 175.231 100.521Z" fill="white"/>
<path d="M175.231 109.385H210.537C210.537 109.385 213.017 109.186 212.988 111.203C212.988 111.941 212.932 113.022 210.46 113.022C207.99 113.022 175.231 113.022 175.231 113.022C175.231 113.022 173.356 112.761 173.412 111.202C173.443 110.325 173.925 109.385 175.231 109.385Z" fill="white"/>
<path d="M175.231 118.628H210.537C210.537 118.628 213.017 118.429 212.988 120.446C212.988 121.185 212.932 122.265 210.46 122.265C207.99 122.265 175.231 122.265 175.231 122.265C175.231 122.265 173.356 122.006 173.412 120.445C173.443 119.568 173.925 118.628 175.231 118.628Z" fill="white"/>
<defs>
<linearGradient id="paint0_linear_2387_68" x1="204.24" y1="280" x2="204.24" y2="3.47979e-06" gradientUnits="userSpaceOnUse">
<stop stop-color="#A2D9F7" stop-opacity="0"/>
<stop offset="1" stop-color="#39AFE5"/>
</linearGradient>
</defs>
</svg>
