<svg width="370" height="279" viewBox="0 0 370 279" fill="none" xmlns="http://www.w3.org/2000/svg">
<rect width="370" height="279" fill="white"/>
<rect width="370" height="279" fill="url(#paint0_linear_2387_10)" fill-opacity="0.8"/>
<path d="M217.558 55.875H152.442C144.963 55.875 138.875 61.959 138.875 69.4425V134.562C138.875 142.041 144.959 148.129 152.442 148.129H217.562C225.041 148.129 231.129 142.046 231.129 134.562V69.4425C231.125 61.959 225.041 55.875 217.558 55.875ZM225.698 134.558C225.698 139.044 222.049 142.698 217.558 142.698H152.442C147.956 142.698 144.302 139.049 144.302 134.558V124.743L166.199 100.412L195.778 127.299L212.135 113.669L225.703 124.972L225.698 134.558ZM225.698 117.912L212.13 106.608L195.926 120.108L165.816 92.73L144.302 116.634V69.4425C144.302 64.956 147.951 61.302 152.442 61.302H217.562C222.049 61.302 225.703 64.9515 225.703 69.4425L225.698 117.912Z" fill="white"/>
<path d="M203.994 96.573C211.473 96.573 217.562 90.489 217.562 83.0055C217.562 75.522 211.478 69.438 203.994 69.438C196.515 69.438 190.427 75.522 190.427 83.0055C190.427 90.489 196.511 96.573 203.994 96.573ZM203.994 74.8695C208.481 74.8695 212.135 78.519 212.135 83.01C212.135 87.501 208.485 91.1505 203.994 91.1505C199.503 91.1505 195.854 87.501 195.854 83.01C195.854 78.519 199.503 74.8695 203.994 74.8695Z" fill="white"/>
<defs>
<linearGradient id="paint0_linear_2387_10" x1="204.24" y1="279" x2="204.24" y2="3.46736e-06" gradientUnits="userSpaceOnUse">
<stop stop-color="#A2D9F7" stop-opacity="0"/>
<stop offset="1" stop-color="#39AFE5"/>
</linearGradient>
</defs>
</svg>
