<svg width="370" height="280" viewBox="0 0 370 280" fill="none" xmlns="http://www.w3.org/2000/svg">
<rect width="370" height="280" fill="white"/>
<rect width="370" height="280" fill="url(#paint0_linear_2387_5)" fill-opacity="0.8"/>
<path d="M201.5 69C203.8 69 205.667 70.8667 205.667 73.1667V90.6667L227.387 75.4583C228.329 74.8 229.629 75.0292 230.292 75.975C230.533 76.325 230.667 76.7417 230.667 77.1667V127.5C230.667 128.65 229.733 129.583 228.583 129.583C228.154 129.583 227.737 129.45 227.387 129.208L205.667 114V131.5C205.667 133.8 203.8 135.667 201.5 135.667H143.167C140.867 135.667 139 133.8 139 131.5V73.1667C139 70.8667 140.867 69 143.167 69H201.5ZM197.333 77.3333H147.333V127.333H197.333V77.3333ZM222.333 89.1708L205.667 100.837V103.829L222.333 115.496V89.1708Z" fill="white"/>
<defs>
<linearGradient id="paint0_linear_2387_5" x1="204.24" y1="280" x2="204.24" y2="3.47979e-06" gradientUnits="userSpaceOnUse">
<stop stop-color="#A2D9F7" stop-opacity="0"/>
<stop offset="1" stop-color="#39AFE5"/>
</linearGradient>
</defs>
</svg>
