<svg width="370" height="280" viewBox="0 0 370 280" fill="none" xmlns="http://www.w3.org/2000/svg">
<rect width="370" height="280" fill="white"/>
<rect width="370" height="280" fill="url(#paint0_linear_2387_29)" fill-opacity="0.8"/>
<path d="M204.831 84.2702L192.104 82.4209L186.414 70.8889C186.259 70.5751 186.019 70.3108 185.722 70.1261C185.425 69.9413 185.082 69.8434 184.732 69.8434C184.382 69.8434 184.039 69.9413 183.742 70.1261C183.445 70.3108 183.206 70.5751 183.051 70.8889L177.358 82.4209L164.631 84.2702C164.285 84.3203 163.96 84.4663 163.692 84.6917C163.425 84.917 163.226 85.2127 163.117 85.5454C163.009 85.878 162.996 86.2343 163.08 86.574C163.164 86.9136 163.341 87.223 163.591 87.4672L172.802 96.4449L170.627 109.121C170.568 109.466 170.607 109.82 170.739 110.144C170.871 110.468 171.091 110.749 171.374 110.955C171.657 111.16 171.992 111.282 172.341 111.308C172.69 111.333 173.039 111.26 173.348 111.097L184.732 105.113L196.115 111.097C196.425 111.26 196.774 111.333 197.123 111.308C197.472 111.282 197.807 111.16 198.09 110.955C198.373 110.749 198.593 110.468 198.725 110.144C198.857 109.82 198.895 109.466 198.836 109.121L196.662 96.4449L205.871 87.4672C206.122 87.223 206.299 86.9136 206.383 86.574C206.466 86.2343 206.453 85.878 206.345 85.5454C206.237 85.2127 206.038 84.917 205.77 84.6917C205.503 84.4663 205.177 84.3203 204.831 84.2702ZM193.338 94.4491C193.12 94.6614 192.958 94.9232 192.864 95.2122C192.77 95.5011 192.747 95.8085 192.798 96.1081L194.498 106.01L185.604 101.336C185.335 101.193 185.036 101.119 184.732 101.119C184.428 101.119 184.128 101.193 183.859 101.336L174.966 106.01L176.664 96.108C176.715 95.8085 176.693 95.501 176.599 95.2121C176.505 94.9232 176.342 94.6613 176.125 94.4491L168.93 87.4343L178.872 85.9896C179.173 85.946 179.459 85.8299 179.705 85.6513C179.951 85.4726 180.15 85.2368 180.284 84.9642L184.732 75.9554L189.178 84.9642C189.312 85.2369 189.511 85.4727 189.757 85.6513C190.003 85.83 190.289 85.9461 190.59 85.9896L200.533 87.4343L193.338 94.4491Z" fill="white" stroke="white" stroke-width="2"/>
<path d="M221.569 58H147.931C144.768 58.0035 141.735 59.2617 139.498 61.4985C137.262 63.7352 136.004 66.7679 136 69.9312V113.765C136.004 116.928 137.262 119.961 139.498 122.197C141.735 124.434 144.768 125.692 147.931 125.696H168.906V143.596C168.906 143.967 169.016 144.33 169.222 144.638C169.428 144.946 169.721 145.187 170.063 145.329C170.406 145.471 170.783 145.508 171.147 145.435C171.51 145.363 171.844 145.184 172.107 144.922L191.331 125.696H221.569C224.732 125.692 227.765 124.434 230.002 122.197C232.238 119.961 233.496 116.928 233.5 113.765V69.9312C233.496 66.7679 232.238 63.7352 230.002 61.4985C227.765 59.2617 224.732 58.0035 221.569 58ZM229.75 113.765C229.748 115.934 228.885 118.013 227.351 119.547C225.817 121.081 223.738 121.944 221.569 121.946H190.554C190.057 121.946 189.58 122.144 189.229 122.495L172.656 139.07V123.821C172.656 123.575 172.607 123.331 172.513 123.103C172.419 122.876 172.281 122.669 172.107 122.495C171.933 122.321 171.726 122.183 171.498 122.089C171.271 121.994 171.027 121.946 170.781 121.946H147.931C145.762 121.944 143.683 121.081 142.149 119.547C140.615 118.013 139.752 115.934 139.75 113.765V69.9312C139.752 67.7621 140.615 65.6826 142.149 64.1489C143.683 62.6151 145.762 61.7524 147.931 61.75H221.569C223.738 61.7524 225.817 62.6151 227.351 64.1489C228.885 65.6826 229.748 67.7621 229.75 69.9312V113.765Z" fill="white" stroke="white" stroke-width="2"/>
<defs>
<linearGradient id="paint0_linear_2387_29" x1="204.24" y1="280" x2="204.24" y2="3.47979e-06" gradientUnits="userSpaceOnUse">
<stop stop-color="#A2D9F7" stop-opacity="0"/>
<stop offset="1" stop-color="#39AFE5"/>
</linearGradient>
</defs>
</svg>
