<svg version="1.1" xmlns="http://www.w3.org/2000/svg" xmlns:xlink="http://www.w3.org/1999/xlink">

    <symbol viewBox="0 0 67 29" id="logo-title">
        <path d="M2.1172 2.17773L2.93204 6.07773L3.74689 2.17773H5.60294V8.18884H4.51647V2.7444L3.35079 8.18884H2.52462L1.35893 2.75551V8.18884H0.272461V2.17773H2.12851H2.1172Z" />
        <path d="M9.72287 2.17786V3.08897H7.60652V4.48897H9.53047V5.40008H7.60652V7.26675H9.72287V8.17786H6.45215V2.16675H9.72287V2.17786Z" />
        <path d="M11.4881 2.17773L12.8915 4.77773V2.17773H14.0572V4.77773L15.4605 2.17773H16.7733L15.2229 4.77773L16.8299 8.17773H15.5284L14.5099 5.77773L14.0459 6.36662V8.17773H12.8802V6.36662L12.4275 5.77773L11.4089 8.17773H10.1074L11.7145 4.77773L10.164 2.17773H11.4768H11.4881Z" />
        <path d="M21.6173 2.17773V7.27773H21.9908V9.39996H20.8704V8.18884H18.3353V9.39996H17.2148V7.27773H17.577C17.9844 6.39996 18.1315 5.71107 18.1315 4.05551V2.17773H21.606H21.6173ZM19.2859 3.08885V4.45551C19.2859 5.83329 19.0935 6.52218 18.7314 7.26662H20.4516V3.08885H19.2859Z" />
        <path d="M23.6204 2.17773L24.5598 5.36662L25.4991 2.17773H26.7667L25.103 7.0444C24.7861 7.98885 24.4126 8.33329 23.8468 8.33329C23.5752 8.33329 23.3488 8.28884 23.1451 8.22218V7.3444C23.213 7.35551 23.3149 7.41107 23.462 7.41107C23.6883 7.41107 23.8581 7.26662 23.9826 6.93329L22.3076 2.17773H23.6091H23.6204Z" />
        <path d="M28.4303 4.50008H29.9695V2.18896H31.1352V8.20008H29.9695V5.4223H28.4303V8.20008H27.2646V2.18896H28.4303V4.50008Z" />
        <path d="M33.1495 2.17773H34.7113L36.0694 8.18884H34.8132L34.5302 6.62218H33.2174L32.8553 8.18884H31.6104L33.1608 2.17773H33.1495ZM34.3831 5.73329L33.9191 2.93329L33.3532 5.73329H34.3831Z" />
        <path d="M37.7223 8.18884H36.5566V2.17773H38.7522C39.7481 2.17773 40.3593 2.96662 40.3593 3.93329C40.3593 4.89996 39.7255 5.73329 38.7296 5.73329H37.711V8.17773L37.7223 8.18884ZM37.7223 4.85551H38.3108C38.8993 4.85551 39.1823 4.53329 39.1823 3.95551C39.1823 3.37773 38.8993 3.07773 38.3108 3.07773H37.7223V4.85551Z" />
        <path d="M43.1208 2.06665C44.2978 2.06665 45.09 2.58887 45.09 4.12221V6.29998C45.09 7.83332 44.2978 8.32221 43.1208 8.32221C41.9438 8.32221 41.1289 7.81109 41.1289 6.29998V4.12221C41.1289 2.61109 41.9551 2.06665 43.1208 2.06665ZM42.3172 3.98887V6.44443C42.3172 7.06665 42.5662 7.4111 43.1208 7.4111C43.6187 7.4111 43.9017 7.07776 43.9017 6.44443V3.99998C43.9017 3.35554 43.6187 2.97776 43.1208 2.97776C42.5662 2.97776 42.3172 3.34443 42.3172 3.98887Z" />
        <path d="M50.1261 2.17773V7.27773H50.4996V9.39996H49.3791V8.18884H46.8441V9.39996H45.7236V7.27773H46.0858C46.4932 6.39996 46.6403 5.71107 46.6403 4.05551V2.17773H50.1148H50.1261ZM47.7947 3.08885V4.45551C47.7947 5.83329 47.6023 6.52218 47.2402 7.26662H48.9604V3.08885H47.7947Z" />
        <path d="M52.3444 4.50008H53.8836V2.18896H55.0493V8.20008H53.8836V5.4223H52.3444V8.20008H51.1787V2.18896H52.3444V4.50008Z" />
        <path d="M57.0631 4.49996H58.0364C58.9871 4.49996 59.5982 5.42218 59.5982 6.27773C59.5982 7.43329 59.0663 8.19996 58.1383 8.19996H55.8975V2.18884H57.0631V4.49996ZM57.0631 7.33329H57.7309C58.1609 7.33329 58.4099 7.07773 58.4099 6.39996C58.4099 5.81107 58.1609 5.41107 57.7309 5.41107H57.0631V7.33329ZM61.6354 8.18884H60.4697V2.17773H61.6354V8.18884Z" />
        <path d="M63.5826 2.17777V4.43332C63.5826 5.14443 63.5486 6.04443 63.4354 6.54443L65.133 2.17777H66.3893V8.18888H65.3028V5.9111C65.3028 4.99999 65.3254 4.36665 65.4499 3.83332L63.7523 8.19999H62.4961V2.18888H63.5826V2.17777ZM63.7976 0.544434C63.7976 0.999989 64.0353 1.22221 64.4087 1.22221C64.7822 1.22221 65.0199 0.988878 65.0199 0.544434H65.6197C65.6197 1.18888 65.3707 1.78888 64.3861 1.78888C63.4015 1.78888 63.1865 1.17777 63.1865 0.544434H63.7863H63.7976Z" />
        <path d="M3.60018 12.1777V12.8555H3.9397C4.93563 12.8555 5.94287 13.5777 5.94287 15.1666C5.94287 16.7555 4.94695 17.4444 3.9397 17.4444H3.60018V18.1888H2.43449V17.4444H2.09497C1.09904 17.4444 0.0917969 16.7888 0.0917969 15.1666C0.0917969 13.5444 1.09904 12.8555 2.09497 12.8555H2.43449V12.1777H3.60018ZM2.43449 13.7555H2.16287C1.60832 13.7555 1.28012 14.3333 1.28012 15.1666C1.28012 16.0555 1.597 16.5555 2.16287 16.5555H2.43449V13.7555ZM3.60018 16.5555H3.87179C4.43766 16.5555 4.75455 16.0555 4.75455 15.1666C4.75455 14.3222 4.42634 13.7555 3.87179 13.7555H3.60018V16.5555Z" />
        <path d="M8.61393 12.0667C9.79094 12.0667 10.5831 12.5889 10.5831 14.1222V16.3C10.5831 17.8333 9.79094 18.3222 8.61393 18.3222C7.43692 18.3222 6.62207 17.8111 6.62207 16.3V14.1222C6.62207 12.6111 7.44824 12.0667 8.61393 12.0667ZM7.8104 13.9889V16.4444C7.8104 17.0667 8.05938 17.4111 8.61393 17.4111C9.11189 17.4111 9.39483 17.0778 9.39483 16.4444V14C9.39483 13.3555 9.11189 12.9778 8.61393 12.9778C8.05938 12.9778 7.8104 13.3444 7.8104 13.9889Z" />
        <path d="M12.5524 18.1888H11.3867V12.1777H13.5823C14.5782 12.1777 15.1894 12.9666 15.1894 13.9333C15.1894 14.9 14.5556 15.7333 13.5597 15.7333H12.5411V18.1777L12.5524 18.1888ZM12.5524 14.8555H13.1409C13.7294 14.8555 14.0123 14.5333 14.0123 13.9555C14.0123 13.3777 13.7294 13.0777 13.1409 13.0777H12.5524V14.8555Z" />
        <path d="M16.9544 12.1777L17.8938 15.3666L18.8331 12.1777H20.1006L18.437 17.0444C18.1201 17.9888 17.7466 18.3333 17.1808 18.3333C16.9091 18.3333 16.6828 18.2888 16.4791 18.2222V17.3444C16.547 17.3555 16.6488 17.4111 16.796 17.4111C17.0223 17.4111 17.1921 17.2666 17.3166 16.9333L15.6416 12.1777H16.9431H16.9544Z" />
        <path d="M22.4658 12.1777L23.2807 16.0777L24.0955 12.1777H25.9516V18.1888H24.8651V12.7444L23.6994 18.1888H22.8732L21.7076 12.7555V18.1888H20.6211V12.1777H22.4771H22.4658Z" />
        <path d="M28.8384 15.689V16.4223H26.6768V15.689H28.8384Z" />
        <path d="M29.5621 12.1779H31.7124C32.7876 12.1779 33.2176 12.8779 33.2176 13.6445C33.2176 14.2223 32.9007 14.8556 32.3915 14.9556C32.9913 15.2001 33.2968 15.6223 33.2968 16.4001C33.2968 17.4445 32.8441 18.1779 31.8935 18.1779H29.5508V12.1667L29.5621 12.1779ZM30.7278 14.6223H31.3389C31.8482 14.6223 32.0632 14.3223 32.0632 13.8112C32.0632 13.3001 31.8822 13.0445 31.3616 13.0445H30.7391V14.6223H30.7278ZM30.7278 17.3334H31.4747C31.9048 17.3334 32.1198 17.0779 32.1198 16.4001C32.1198 15.8112 31.9048 15.4779 31.4747 15.4779H30.7278V17.3334Z" />
        <path d="M35.1979 14.489H36.1712C37.1219 14.489 37.733 15.4112 37.733 16.2667C37.733 17.4223 37.2011 18.189 36.2731 18.189H34.0322V12.1779H35.1979V14.489ZM35.1979 17.3223H35.8656C36.2957 17.3223 36.5447 17.0667 36.5447 16.389C36.5447 15.8001 36.2957 15.4001 35.8656 15.4001H35.1979V17.3223ZM39.7701 18.1779H38.6044V12.1667H39.7701V18.1779Z" />
        <path d="M43.1653 14.1333V14C43.1653 13.2444 42.9729 12.9889 42.475 12.9889C41.977 12.9889 41.7733 13.2444 41.7733 14V16.3778C41.7733 17.1555 41.977 17.4222 42.4636 17.4222C42.9277 17.4222 43.154 17.1555 43.154 16.3778V16.0555H44.3197V16.3111C44.3197 17.4 43.9236 18.3333 42.475 18.3333C40.9471 18.3333 40.585 17.3889 40.585 16.3222V14.1333C40.585 12.7222 41.2301 12.0667 42.4976 12.0667C43.6859 12.0667 44.331 12.7222 44.331 13.8333V14.1333H43.1653Z" />
        <path d="M47.4663 18.189H46.3006V13.1001H44.8633V12.189H48.9036V13.1001H47.4663V18.189Z" />
        <path d="M50.3409 12.1777H51.9027L53.2608 18.1888H52.0046L51.7216 16.6222H50.4088L50.0467 18.1888H48.8018L50.3522 12.1777H50.3409ZM51.5745 15.7333L51.1105 12.9333L50.5446 15.7333H51.5745Z" />
        <path d="M53.7476 12.1779H55.8979C56.9731 12.1779 57.4031 12.8779 57.4031 13.6445C57.4031 14.2223 57.0863 14.8556 56.577 14.9556C57.1768 15.2001 57.4824 15.6223 57.4824 16.4001C57.4824 17.4445 57.0297 18.1779 56.079 18.1779H53.7363V12.1667L53.7476 12.1779ZM54.9133 14.6223H55.5245C56.0338 14.6223 56.2488 14.3223 56.2488 13.8112C56.2488 13.3001 56.0677 13.0445 55.5471 13.0445H54.9247V14.6223H54.9133ZM54.9133 17.3334H55.6603C56.0903 17.3334 56.3054 17.0779 56.3054 16.4001C56.3054 15.8112 56.0903 15.4779 55.6603 15.4779H54.9133V17.3334Z" />
        <path d="M59.3835 14.7888L60.7868 12.1888H62.0996L60.5491 14.7888L62.1562 18.1888H60.8547L59.8362 15.7888L59.3835 16.3777V18.1888H58.2178V12.1777H59.3835V14.7777V14.7888Z" />
        <path d="M63.9444 12.1777H65.5062L66.8643 18.1888H65.6081L65.3251 16.6222H64.0123L63.6502 18.1888H62.4053L63.9557 12.1777H63.9444ZM65.178 15.7333L64.714 12.9333L64.1481 15.7333H65.178Z" />
        <path d="M4.10979 22.1777V28.1888H2.94411V23.0888H1.40495V28.1888H0.239258V22.1777H4.09848H4.10979Z" />
        <path d="M6.91569 22.0667C8.09269 22.0667 8.88491 22.5889 8.88491 24.1222V26.3C8.88491 27.8333 8.09269 28.3222 6.91569 28.3222C5.73868 28.3222 4.92383 27.8111 4.92383 26.3V24.1222C4.92383 22.6111 5.75 22.0667 6.91569 22.0667ZM6.11215 23.9889V26.4444C6.11215 27.0667 6.36114 27.4111 6.91569 27.4111C7.41365 27.4111 7.69659 27.0778 7.69659 26.4444V24C7.69659 23.3555 7.41365 22.9778 6.91569 22.9778C6.36114 22.9778 6.11215 23.3444 6.11215 23.9889Z" />
        <path d="M14.0571 28.1888H12.8914V23.0888H11.4541V22.1777H15.4944V23.0888H14.0571V28.1888Z" />
        <path d="M17.0335 22.1777L17.9729 25.3666L18.9122 22.1777H20.1797L18.5161 27.0444C18.1992 27.9888 17.8257 28.3333 17.2599 28.3333C16.9882 28.3333 16.7619 28.2888 16.5582 28.2222V27.3444C16.6261 27.3555 16.7279 27.4111 16.8751 27.4111C17.1014 27.4111 17.2712 27.2666 17.3957 26.9333L15.7207 22.1777H17.0222H17.0335Z" />
        <path d="M21.8434 28.1888H20.6777V22.1777H22.8733C23.8692 22.1777 24.4804 22.9666 24.4804 23.9333C24.4804 24.9 23.8466 25.7333 22.8507 25.7333H21.8321V28.1777L21.8434 28.1888ZM21.8434 24.8555H22.4319C23.0204 24.8555 23.3034 24.5333 23.3034 23.9555C23.3034 23.3777 23.0204 23.0777 22.4319 23.0777H21.8434V24.8555Z" />
        <path d="M26.3931 22.1777V24.4222C26.3931 25.1333 26.3591 26.0444 26.246 26.5444L27.9436 22.1777H29.1998V28.1888H28.1134V25.9111C28.1134 25 28.136 24.3666 28.2605 23.8222L26.5629 28.1888H25.3066V22.1777H26.3931Z" />
        <path d="M29.9699 23.9111C29.9699 22.8667 30.6376 22.0667 31.792 22.0667C32.6181 22.0667 33.6254 22.4444 33.6254 23.6667C33.6254 24.2889 33.2406 24.8333 32.686 24.9778C33.2972 25.1222 33.7159 25.6222 33.7159 26.5222C33.7159 27.7333 33.0482 28.3222 31.8372 28.3222C30.8413 28.3222 29.8906 27.8778 29.8906 26.5778H31.0224C31.0224 27 31.1921 27.4 31.7806 27.4C32.3691 27.4 32.5389 27.0222 32.5389 26.4C32.5389 25.6889 32.1767 25.4333 31.6901 25.4333H31.4411V24.5778H31.6901C32.1201 24.5778 32.4484 24.3444 32.4484 23.8111C32.4484 23.4111 32.3012 22.9667 31.8033 22.9667C31.3506 22.9667 31.1129 23.3444 31.1129 23.8889H29.9812L29.9699 23.9111Z" />
        <path d="M36.375 22.1777L37.1898 26.0777L38.0047 22.1777H39.8607V28.1888H38.7743V22.7444L37.6086 28.1888H36.7824L35.6167 22.7555V28.1888H34.5303V22.1777H36.3863H36.375Z" />
        <path d="M41.6605 22.1777L42.5998 25.3666L43.5391 22.1777H44.8067L43.143 27.0444C42.8262 27.9888 42.4527 28.3333 41.8868 28.3333C41.6152 28.3333 41.3889 28.2888 41.1851 28.2222V27.3444C41.2531 27.3555 41.3549 27.4111 41.502 27.4111C41.7284 27.4111 41.8981 27.2666 42.0226 26.9333L40.3477 22.1777H41.6491H41.6605Z" />
    </symbol>

    <symbol viewBox="0 0 19 18" id="icon-search">
        <path d="M8.57812 14.25C11.8918 14.25 14.5781 11.5637 14.5781 8.25C14.5781 4.93629 11.8918 2.25 8.57812 2.25C5.26442 2.25 2.57812 4.93629 2.57812 8.25C2.57812 11.5637 5.26442 14.25 8.57812 14.25Z" stroke-linecap="round" stroke-linejoin="round" />
        <path d="M16.0779 15.75L12.8154 12.4875" stroke-linecap="round" stroke-linejoin="round" />
    </symbol>

    <symbol viewBox="0 0 19 18" id="icon-favourite">
        <path d="M15.9577 3.4574C15.5747 3.07416 15.1198 2.77014 14.6192 2.56272C14.1186 2.3553 13.5821 2.24854 13.0402 2.24854C12.4984 2.24854 11.9618 2.3553 11.4612 2.56272C10.9606 2.77014 10.5058 3.07416 10.1227 3.4574L9.32773 4.2524L8.53273 3.4574C7.75896 2.68364 6.7095 2.24894 5.61523 2.24894C4.52095 2.24894 3.4715 2.68364 2.69773 3.4574C1.92396 4.23117 1.48926 5.28063 1.48926 6.3749C1.48926 7.46918 1.92396 8.51864 2.69773 9.2924L3.49273 10.0874L9.32773 15.9224L15.1627 10.0874L15.9577 9.2924C16.341 8.90934 16.645 8.45451 16.8524 7.95392C17.0598 7.45333 17.1666 6.91677 17.1666 6.3749C17.1666 5.83304 17.0598 5.29648 16.8524 4.79589C16.645 4.29529 16.341 3.84047 15.9577 3.4574V3.4574Z" stroke-linecap="round" stroke-linejoin="round" />
    </symbol>

    <symbol viewBox="0 0 8 5" id="nav-arrow">
        <path d="M4 4.5L3.49691e-07 0.499999L8 0.5L4 4.5Z" />
    </symbol>

    <symbol viewBox="0 0 16 16" id="icon-date">
        <path d="M12.6667 2.6665H3.33333C2.59695 2.6665 2 3.26346 2 3.99984V13.3332C2 14.0696 2.59695 14.6665 3.33333 14.6665H12.6667C13.403 14.6665 14 14.0696 14 13.3332V3.99984C14 3.26346 13.403 2.6665 12.6667 2.6665Z" stroke-width="1.33333" stroke-linecap="round" stroke-linejoin="round" />
        <path d="M10.666 1.33325V3.99992" stroke-width="1.33333" stroke-linecap="round" stroke-linejoin="round" />
        <path d="M5.33398 1.33325V3.99992" stroke-width="1.33333" stroke-linecap="round" stroke-linejoin="round" />
        <path d="M2 6.6665H14" stroke-width="1.33333" stroke-linecap="round" stroke-linejoin="round" />
    </symbol>

    <symbol viewBox="0 0 16 16" id="icon-location">
        <path d="M14 6.6665C14 11.3332 8 15.3332 8 15.3332C8 15.3332 2 11.3332 2 6.6665C2 5.07521 2.63214 3.54908 3.75736 2.42386C4.88258 1.29864 6.4087 0.666504 8 0.666504C9.5913 0.666504 11.1174 1.29864 12.2426 2.42386C13.3679 3.54908 14 5.07521 14 6.6665Z" stroke-width="1.33333" stroke-linecap="round" stroke-linejoin="round" />
        <path d="M8 8.6665C9.10457 8.6665 10 7.77107 10 6.6665C10 5.56193 9.10457 4.6665 8 4.6665C6.89543 4.6665 6 5.56193 6 6.6665C6 7.77107 6.89543 8.6665 8 8.6665Z" stroke-width="1.33333" stroke-linecap="round" stroke-linejoin="round" />
    </symbol>

    <symbol viewBox="0 0 32 32" id="footer-social-telegram">
        <path d="M16 32C24.8366 32 32 24.8366 32 16C32 7.16344 24.8366 0 16 0C7.16344 0 0 7.16344 0 16C0 24.8366 7.16344 32 16 32Z" />
        <path d="M5.95875 16.7826C7.82915 15.7523 9.91702 14.8924 11.8678 14.0282C15.224 12.6126 18.5934 11.2215 21.9969 9.92642C22.6591 9.70577 23.8489 9.49001 23.9656 10.4713C23.9016 11.8604 23.6388 13.2413 23.4586 14.6222C23.0011 17.659 22.4723 20.6854 21.9566 23.7122C21.7789 24.7205 20.5159 25.2424 19.7078 24.5972C17.7657 23.2853 15.8086 21.9862 13.8913 20.644C13.2632 20.0058 13.8456 19.0893 14.4065 18.6336C16.0061 17.0572 17.7025 15.7178 19.2185 14.06C19.6275 13.0725 18.4192 13.9047 18.0206 14.1597C15.8308 15.6688 13.6945 17.27 11.3857 18.5962C10.2064 19.2454 8.83185 18.6907 7.65305 18.3284C6.59613 17.8908 5.04731 17.4499 5.95865 16.7827L5.95875 16.7826Z" fill="white" />
    </symbol>

    <symbol viewBox="0 0 32 32" id="footer-social-vk">
        <path d="M16 32C24.8366 32 32 24.8366 32 16C32 7.16344 24.8366 0 16 0C7.16344 0 0 7.16344 0 16C0 24.8366 7.16344 32 16 32Z" />
        <path fill-rule="evenodd" clip-rule="evenodd" d="M26.1965 11.0214C26.3545 10.5245 26.1965 10.1632 25.4964 10.1632H23.1703C22.5832 10.1632 22.3122 10.4794 22.1541 10.8181C22.1541 10.8181 20.9572 13.7087 19.2861 15.5831C18.7441 16.1251 18.4957 16.3058 18.2021 16.3058C18.044 16.3058 17.8408 16.1251 17.8408 15.6283V10.9988C17.8408 10.4116 17.6601 10.1406 17.1633 10.1406H13.5049C13.1435 10.1406 12.9177 10.4116 12.9177 10.6826C12.9177 11.2472 13.7533 11.3827 13.8436 12.9635V16.3961C13.8436 17.1413 13.7081 17.2768 13.4145 17.2768C12.6241 17.2768 10.7046 14.3636 9.55284 11.0439C9.32701 10.389 9.10118 10.1406 8.51403 10.1406H6.1654C5.48791 10.1406 5.375 10.4568 5.375 10.7955C5.375 11.4053 6.1654 14.4765 9.05602 18.5415C10.9756 21.3192 13.7081 22.8096 16.1696 22.8096C17.6601 22.8096 17.8408 22.4709 17.8408 21.9063V19.8061C17.8408 19.1286 17.9763 19.0157 18.4505 19.0157C18.7893 19.0157 19.399 19.1964 20.7766 20.5288C22.3574 22.1096 22.6284 22.8322 23.5091 22.8322H25.8351C26.5126 22.8322 26.8288 22.4935 26.6481 21.8386C26.4449 21.1837 25.677 20.2352 24.6834 19.106C24.1414 18.4737 23.3284 17.7737 23.08 17.4349C22.7413 16.9833 22.8316 16.8026 23.08 16.3961C23.0574 16.3961 25.9029 12.3763 26.1965 11.0214Z" fill="white" />
    </symbol>

    <symbol viewBox="0 0 16 16" id="ext-link">
        <path d="M11.1569 5.34315C11.1569 5.067 10.933 4.84315 10.6569 4.84315L6.15685 4.84315C5.88071 4.84315 5.65685 5.067 5.65685 5.34315C5.65685 5.61929 5.88071 5.84315 6.15685 5.84315L10.1569 5.84315L10.1569 9.84315C10.1569 10.1193 10.3807 10.3431 10.6569 10.3431C10.933 10.3431 11.1569 10.1193 11.1569 9.84315L11.1569 5.34315ZM5.35355 11.3536L11.0104 5.6967L10.3033 4.98959L4.64645 10.6464L5.35355 11.3536Z" />
    </symbol>

    <symbol viewBox="0 0 16 16" id="btn-arrow">
        <path d="M6 13L11 8L6 3" stroke-width="2" stroke-linecap="round" stroke-linejoin="round" />
    </symbol>

    <symbol viewBox="0 0 28 21" id="menu-mobile-link">
        <rect width="28" height="3" rx="1" />
        <rect y="9" width="28" height="3" rx="1" />
        <rect x="14" y="18" width="14" height="3" rx="1" />
    </symbol>

    <symbol viewBox="0 0 20 20" id="menu-mobile-close">
        <path d="M16.5 3.5L3.5 16.5" stroke-width="2" stroke-linecap="round" stroke-linejoin="round" />
        <path d="M3.5 3.5L16.5 16.5" stroke-width="2" stroke-linecap="round" stroke-linejoin="round" />
    </symbol>

    <symbol viewBox="0 0 40 40" id="arrow-prev">
        <path d="M21.9045 14.2858L16.1903 20.0001L21.9045 25.7144" stroke-width="2" stroke-linecap="round" stroke-linejoin="round" />
    </symbol>

    <symbol viewBox="0 0 40 40" id="arrow-next">
        <path d="M18.0955 25.7142L23.8097 19.9999L18.0955 14.2856"  stroke-width="2" stroke-linecap="round" stroke-linejoin="round" />
    </symbol>

    <symbol viewBox="0 0 8 14" id="pager-prev">
        <path d="M7 1L0.999999 7L7 13" stroke-width="2" stroke-linecap="round" stroke-linejoin="round" />
    </symbol>

    <symbol viewBox="0 0 8 14" id="pager-next">
        <path d="M1 13L7 7L1 1" stroke-width="2" stroke-linecap="round" stroke-linejoin="round" />
    </symbol>

    <symbol viewBox="0 0 16 16" id="main-section-link">
        <path d="M15.7071 8.70711C16.0976 8.31658 16.0976 7.68342 15.7071 7.29289L9.34315 0.928931C8.95262 0.538407 8.31946 0.538407 7.92893 0.928931C7.53841 1.31946 7.53841 1.95262 7.92893 2.34315L13.5858 8L7.92893 13.6569C7.53841 14.0474 7.53841 14.6805 7.92893 15.0711C8.31946 15.4616 8.95262 15.4616 9.34315 15.0711L15.7071 8.70711ZM8.74228e-08 9L15 9L15 7L-8.74228e-08 7L8.74228e-08 9Z" />
    </symbol>

    <symbol viewBox="0 0 18 18" id="icon-time">
        <path d="M9 16.4993C13.1421 16.4993 16.5 13.1414 16.5 8.99931C16.5 4.85718 13.1421 1.49931 9 1.49931C4.85786 1.49931 1.5 4.85718 1.5 8.99931C1.5 13.1414 4.85786 16.4993 9 16.4993Z" stroke-width="1.41667" stroke-linecap="round" stroke-linejoin="round" />
        <path d="M9 4.5V9L12 10.5" stroke-width="1.41667" stroke-linecap="round" stroke-linejoin="round" />
    </symbol>

</svg>