<svg version="1.1" xmlns="http://www.w3.org/2000/svg" xmlns:xlink="http://www.w3.org/1999/xlink">

    <symbol viewBox="0 0 67 29" id="logo-title">
        <path d="M2.1172 2.17773L2.93204 6.07773L3.74689 2.17773H5.60294V8.18884H4.51647V2.7444L3.35079 8.18884H2.52462L1.35893 2.75551V8.18884H0.272461V2.17773H2.12851H2.1172Z" />
        <path d="M9.72287 2.17786V3.08897H7.60652V4.48897H9.53047V5.40008H7.60652V7.26675H9.72287V8.17786H6.45215V2.16675H9.72287V2.17786Z" />
        <path d="M11.4881 2.17773L12.8915 4.77773V2.17773H14.0572V4.77773L15.4605 2.17773H16.7733L15.2229 4.77773L16.8299 8.17773H15.5284L14.5099 5.77773L14.0459 6.36662V8.17773H12.8802V6.36662L12.4275 5.77773L11.4089 8.17773H10.1074L11.7145 4.77773L10.164 2.17773H11.4768H11.4881Z" />
        <path d="M21.6173 2.17773V7.27773H21.9908V9.39996H20.8704V8.18884H18.3353V9.39996H17.2148V7.27773H17.577C17.9844 6.39996 18.1315 5.71107 18.1315 4.05551V2.17773H21.606H21.6173ZM19.2859 3.08885V4.45551C19.2859 5.83329 19.0935 6.52218 18.7314 7.26662H20.4516V3.08885H19.2859Z" />
        <path d="M23.6204 2.17773L24.5598 5.36662L25.4991 2.17773H26.7667L25.103 7.0444C24.7861 7.98885 24.4126 8.33329 23.8468 8.33329C23.5752 8.33329 23.3488 8.28884 23.1451 8.22218V7.3444C23.213 7.35551 23.3149 7.41107 23.462 7.41107C23.6883 7.41107 23.8581 7.26662 23.9826 6.93329L22.3076 2.17773H23.6091H23.6204Z" />
        <path d="M28.4303 4.50008H29.9695V2.18896H31.1352V8.20008H29.9695V5.4223H28.4303V8.20008H27.2646V2.18896H28.4303V4.50008Z" />
        <path d="M33.1495 2.17773H34.7113L36.0694 8.18884H34.8132L34.5302 6.62218H33.2174L32.8553 8.18884H31.6104L33.1608 2.17773H33.1495ZM34.3831 5.73329L33.9191 2.93329L33.3532 5.73329H34.3831Z" />
        <path d="M37.7223 8.18884H36.5566V2.17773H38.7522C39.7481 2.17773 40.3593 2.96662 40.3593 3.93329C40.3593 4.89996 39.7255 5.73329 38.7296 5.73329H37.711V8.17773L37.7223 8.18884ZM37.7223 4.85551H38.3108C38.8993 4.85551 39.1823 4.53329 39.1823 3.95551C39.1823 3.37773 38.8993 3.07773 38.3108 3.07773H37.7223V4.85551Z" />
        <path d="M43.1208 2.06665C44.2978 2.06665 45.09 2.58887 45.09 4.12221V6.29998C45.09 7.83332 44.2978 8.32221 43.1208 8.32221C41.9438 8.32221 41.1289 7.81109 41.1289 6.29998V4.12221C41.1289 2.61109 41.9551 2.06665 43.1208 2.06665ZM42.3172 3.98887V6.44443C42.3172 7.06665 42.5662 7.4111 43.1208 7.4111C43.6187 7.4111 43.9017 7.07776 43.9017 6.44443V3.99998C43.9017 3.35554 43.6187 2.97776 43.1208 2.97776C42.5662 2.97776 42.3172 3.34443 42.3172 3.98887Z" />
        <path d="M50.1261 2.17773V7.27773H50.4996V9.39996H49.3791V8.18884H46.8441V9.39996H45.7236V7.27773H46.0858C46.4932 6.39996 46.6403 5.71107 46.6403 4.05551V2.17773H50.1148H50.1261ZM47.7947 3.08885V4.45551C47.7947 5.83329 47.6023 6.52218 47.2402 7.26662H48.9604V3.08885H47.7947Z" />
        <path d="M52.3444 4.50008H53.8836V2.18896H55.0493V8.20008H53.8836V5.4223H52.3444V8.20008H51.1787V2.18896H52.3444V4.50008Z" />
        <path d="M57.0631 4.49996H58.0364C58.9871 4.49996 59.5982 5.42218 59.5982 6.27773C59.5982 7.43329 59.0663 8.19996 58.1383 8.19996H55.8975V2.18884H57.0631V4.49996ZM57.0631 7.33329H57.7309C58.1609 7.33329 58.4099 7.07773 58.4099 6.39996C58.4099 5.81107 58.1609 5.41107 57.7309 5.41107H57.0631V7.33329ZM61.6354 8.18884H60.4697V2.17773H61.6354V8.18884Z" />
        <path d="M63.5826 2.17777V4.43332C63.5826 5.14443 63.5486 6.04443 63.4354 6.54443L65.133 2.17777H66.3893V8.18888H65.3028V5.9111C65.3028 4.99999 65.3254 4.36665 65.4499 3.83332L63.7523 8.19999H62.4961V2.18888H63.5826V2.17777ZM63.7976 0.544434C63.7976 0.999989 64.0353 1.22221 64.4087 1.22221C64.7822 1.22221 65.0199 0.988878 65.0199 0.544434H65.6197C65.6197 1.18888 65.3707 1.78888 64.3861 1.78888C63.4015 1.78888 63.1865 1.17777 63.1865 0.544434H63.7863H63.7976Z" />
        <path d="M3.60018 12.1777V12.8555H3.9397C4.93563 12.8555 5.94287 13.5777 5.94287 15.1666C5.94287 16.7555 4.94695 17.4444 3.9397 17.4444H3.60018V18.1888H2.43449V17.4444H2.09497C1.09904 17.4444 0.0917969 16.7888 0.0917969 15.1666C0.0917969 13.5444 1.09904 12.8555 2.09497 12.8555H2.43449V12.1777H3.60018ZM2.43449 13.7555H2.16287C1.60832 13.7555 1.28012 14.3333 1.28012 15.1666C1.28012 16.0555 1.597 16.5555 2.16287 16.5555H2.43449V13.7555ZM3.60018 16.5555H3.87179C4.43766 16.5555 4.75455 16.0555 4.75455 15.1666C4.75455 14.3222 4.42634 13.7555 3.87179 13.7555H3.60018V16.5555Z" />
        <path d="M8.61393 12.0667C9.79094 12.0667 10.5831 12.5889 10.5831 14.1222V16.3C10.5831 17.8333 9.79094 18.3222 8.61393 18.3222C7.43692 18.3222 6.62207 17.8111 6.62207 16.3V14.1222C6.62207 12.6111 7.44824 12.0667 8.61393 12.0667ZM7.8104 13.9889V16.4444C7.8104 17.0667 8.05938 17.4111 8.61393 17.4111C9.11189 17.4111 9.39483 17.0778 9.39483 16.4444V14C9.39483 13.3555 9.11189 12.9778 8.61393 12.9778C8.05938 12.9778 7.8104 13.3444 7.8104 13.9889Z" />
        <path d="M12.5524 18.1888H11.3867V12.1777H13.5823C14.5782 12.1777 15.1894 12.9666 15.1894 13.9333C15.1894 14.9 14.5556 15.7333 13.5597 15.7333H12.5411V18.1777L12.5524 18.1888ZM12.5524 14.8555H13.1409C13.7294 14.8555 14.0123 14.5333 14.0123 13.9555C14.0123 13.3777 13.7294 13.0777 13.1409 13.0777H12.5524V14.8555Z" />
        <path d="M16.9544 12.1777L17.8938 15.3666L18.8331 12.1777H20.1006L18.437 17.0444C18.1201 17.9888 17.7466 18.3333 17.1808 18.3333C16.9091 18.3333 16.6828 18.2888 16.4791 18.2222V17.3444C16.547 17.3555 16.6488 17.4111 16.796 17.4111C17.0223 17.4111 17.1921 17.2666 17.3166 16.9333L15.6416 12.1777H16.9431H16.9544Z" />
        <path d="M22.4658 12.1777L23.2807 16.0777L24.0955 12.1777H25.9516V18.1888H24.8651V12.7444L23.6994 18.1888H22.8732L21.7076 12.7555V18.1888H20.6211V12.1777H22.4771H22.4658Z" />
        <path d="M28.8384 15.689V16.4223H26.6768V15.689H28.8384Z" />
        <path d="M29.5621 12.1779H31.7124C32.7876 12.1779 33.2176 12.8779 33.2176 13.6445C33.2176 14.2223 32.9007 14.8556 32.3915 14.9556C32.9913 15.2001 33.2968 15.6223 33.2968 16.4001C33.2968 17.4445 32.8441 18.1779 31.8935 18.1779H29.5508V12.1667L29.5621 12.1779ZM30.7278 14.6223H31.3389C31.8482 14.6223 32.0632 14.3223 32.0632 13.8112C32.0632 13.3001 31.8822 13.0445 31.3616 13.0445H30.7391V14.6223H30.7278ZM30.7278 17.3334H31.4747C31.9048 17.3334 32.1198 17.0779 32.1198 16.4001C32.1198 15.8112 31.9048 15.4779 31.4747 15.4779H30.7278V17.3334Z" />
        <path d="M35.1979 14.489H36.1712C37.1219 14.489 37.733 15.4112 37.733 16.2667C37.733 17.4223 37.2011 18.189 36.2731 18.189H34.0322V12.1779H35.1979V14.489ZM35.1979 17.3223H35.8656C36.2957 17.3223 36.5447 17.0667 36.5447 16.389C36.5447 15.8001 36.2957 15.4001 35.8656 15.4001H35.1979V17.3223ZM39.7701 18.1779H38.6044V12.1667H39.7701V18.1779Z" />
        <path d="M43.1653 14.1333V14C43.1653 13.2444 42.9729 12.9889 42.475 12.9889C41.977 12.9889 41.7733 13.2444 41.7733 14V16.3778C41.7733 17.1555 41.977 17.4222 42.4636 17.4222C42.9277 17.4222 43.154 17.1555 43.154 16.3778V16.0555H44.3197V16.3111C44.3197 17.4 43.9236 18.3333 42.475 18.3333C40.9471 18.3333 40.585 17.3889 40.585 16.3222V14.1333C40.585 12.7222 41.2301 12.0667 42.4976 12.0667C43.6859 12.0667 44.331 12.7222 44.331 13.8333V14.1333H43.1653Z" />
        <path d="M47.4663 18.189H46.3006V13.1001H44.8633V12.189H48.9036V13.1001H47.4663V18.189Z" />
        <path d="M50.3409 12.1777H51.9027L53.2608 18.1888H52.0046L51.7216 16.6222H50.4088L50.0467 18.1888H48.8018L50.3522 12.1777H50.3409ZM51.5745 15.7333L51.1105 12.9333L50.5446 15.7333H51.5745Z" />
        <path d="M53.7476 12.1779H55.8979C56.9731 12.1779 57.4031 12.8779 57.4031 13.6445C57.4031 14.2223 57.0863 14.8556 56.577 14.9556C57.1768 15.2001 57.4824 15.6223 57.4824 16.4001C57.4824 17.4445 57.0297 18.1779 56.079 18.1779H53.7363V12.1667L53.7476 12.1779ZM54.9133 14.6223H55.5245C56.0338 14.6223 56.2488 14.3223 56.2488 13.8112C56.2488 13.3001 56.0677 13.0445 55.5471 13.0445H54.9247V14.6223H54.9133ZM54.9133 17.3334H55.6603C56.0903 17.3334 56.3054 17.0779 56.3054 16.4001C56.3054 15.8112 56.0903 15.4779 55.6603 15.4779H54.9133V17.3334Z" />
        <path d="M59.3835 14.7888L60.7868 12.1888H62.0996L60.5491 14.7888L62.1562 18.1888H60.8547L59.8362 15.7888L59.3835 16.3777V18.1888H58.2178V12.1777H59.3835V14.7777V14.7888Z" />
        <path d="M63.9444 12.1777H65.5062L66.8643 18.1888H65.6081L65.3251 16.6222H64.0123L63.6502 18.1888H62.4053L63.9557 12.1777H63.9444ZM65.178 15.7333L64.714 12.9333L64.1481 15.7333H65.178Z" />
        <path d="M4.10979 22.1777V28.1888H2.94411V23.0888H1.40495V28.1888H0.239258V22.1777H4.09848H4.10979Z" />
        <path d="M6.91569 22.0667C8.09269 22.0667 8.88491 22.5889 8.88491 24.1222V26.3C8.88491 27.8333 8.09269 28.3222 6.91569 28.3222C5.73868 28.3222 4.92383 27.8111 4.92383 26.3V24.1222C4.92383 22.6111 5.75 22.0667 6.91569 22.0667ZM6.11215 23.9889V26.4444C6.11215 27.0667 6.36114 27.4111 6.91569 27.4111C7.41365 27.4111 7.69659 27.0778 7.69659 26.4444V24C7.69659 23.3555 7.41365 22.9778 6.91569 22.9778C6.36114 22.9778 6.11215 23.3444 6.11215 23.9889Z" />
        <path d="M14.0571 28.1888H12.8914V23.0888H11.4541V22.1777H15.4944V23.0888H14.0571V28.1888Z" />
        <path d="M17.0335 22.1777L17.9729 25.3666L18.9122 22.1777H20.1797L18.5161 27.0444C18.1992 27.9888 17.8257 28.3333 17.2599 28.3333C16.9882 28.3333 16.7619 28.2888 16.5582 28.2222V27.3444C16.6261 27.3555 16.7279 27.4111 16.8751 27.4111C17.1014 27.4111 17.2712 27.2666 17.3957 26.9333L15.7207 22.1777H17.0222H17.0335Z" />
        <path d="M21.8434 28.1888H20.6777V22.1777H22.8733C23.8692 22.1777 24.4804 22.9666 24.4804 23.9333C24.4804 24.9 23.8466 25.7333 22.8507 25.7333H21.8321V28.1777L21.8434 28.1888ZM21.8434 24.8555H22.4319C23.0204 24.8555 23.3034 24.5333 23.3034 23.9555C23.3034 23.3777 23.0204 23.0777 22.4319 23.0777H21.8434V24.8555Z" />
        <path d="M26.3931 22.1777V24.4222C26.3931 25.1333 26.3591 26.0444 26.246 26.5444L27.9436 22.1777H29.1998V28.1888H28.1134V25.9111C28.1134 25 28.136 24.3666 28.2605 23.8222L26.5629 28.1888H25.3066V22.1777H26.3931Z" />
        <path d="M29.9699 23.9111C29.9699 22.8667 30.6376 22.0667 31.792 22.0667C32.6181 22.0667 33.6254 22.4444 33.6254 23.6667C33.6254 24.2889 33.2406 24.8333 32.686 24.9778C33.2972 25.1222 33.7159 25.6222 33.7159 26.5222C33.7159 27.7333 33.0482 28.3222 31.8372 28.3222C30.8413 28.3222 29.8906 27.8778 29.8906 26.5778H31.0224C31.0224 27 31.1921 27.4 31.7806 27.4C32.3691 27.4 32.5389 27.0222 32.5389 26.4C32.5389 25.6889 32.1767 25.4333 31.6901 25.4333H31.4411V24.5778H31.6901C32.1201 24.5778 32.4484 24.3444 32.4484 23.8111C32.4484 23.4111 32.3012 22.9667 31.8033 22.9667C31.3506 22.9667 31.1129 23.3444 31.1129 23.8889H29.9812L29.9699 23.9111Z" />
        <path d="M36.375 22.1777L37.1898 26.0777L38.0047 22.1777H39.8607V28.1888H38.7743V22.7444L37.6086 28.1888H36.7824L35.6167 22.7555V28.1888H34.5303V22.1777H36.3863H36.375Z" />
        <path d="M41.6605 22.1777L42.5998 25.3666L43.5391 22.1777H44.8067L43.143 27.0444C42.8262 27.9888 42.4527 28.3333 41.8868 28.3333C41.6152 28.3333 41.3889 28.2888 41.1851 28.2222V27.3444C41.2531 27.3555 41.3549 27.4111 41.502 27.4111C41.7284 27.4111 41.8981 27.2666 42.0226 26.9333L40.3477 22.1777H41.6491H41.6605Z" />
    </symbol>

    <symbol viewBox="0 0 46 27" id="logo-title-eng">
        <path d="M0.570068 0.350098H1.42007V5.6901H0.570068V0.350098Z" />
        <path d="M2.16992 0.350098H3.20992L4.75993 4.3301H4.77992V0.350098H5.58992V5.6901H4.54993L2.99992 1.6101H2.97993V5.6901H2.16992V0.350098Z" />
        <path d="M7.34007 1.0701H6.07007V0.350098H9.44007V1.0701H8.19007V5.6901H7.34007V1.0701Z" />
        <path d="M9.91991 0.350098H12.7999V1.0701H10.7699V2.5501H12.6799V3.2701H10.7699V4.9701H12.8599V5.6901H9.90991V0.350098H9.91991Z" />
        <path d="M13.4399 0.350088H15.3199C16.0699 0.350088 16.6699 0.720087 16.6699 1.72009C16.6699 2.41009 16.3599 2.94009 15.7799 3.03009C16.3099 3.10009 16.5899 3.39009 16.6199 4.14009C16.6199 4.48009 16.6399 4.90009 16.6499 5.22009C16.6699 5.48009 16.7899 5.61009 16.9099 5.68009H15.9499C15.8699 5.58009 15.8299 5.42009 15.8099 5.21009C15.7799 4.89009 15.7899 4.59009 15.7699 4.20009C15.7499 3.62009 15.5699 3.36009 14.9899 3.36009H14.2999V5.68009H13.4499V0.340088L13.4399 0.350088ZM14.9699 2.73009C15.5199 2.73009 15.8199 2.40009 15.8199 1.86009C15.8199 1.29009 15.5699 0.990088 15.0099 0.990088H14.2899V2.72009H14.9699V2.73009Z" />
        <path d="M17.45 0.350098H18.49L20.0399 4.3301H20.06V0.350098H20.8699V5.6901H19.83L18.28 1.6101H18.2599V5.6901H17.45V0.350098Z" />
        <path d="M22.75 0.350098H23.84L25.24 5.6901H24.35L24.02 4.3801H22.46L22.12 5.6901H21.23L22.75 0.350098ZM23.89 3.7001L23.28 1.0701H23.27L22.63 3.7001H23.89Z" />
        <path d="M26.0801 1.0701H24.8101V0.350098H28.1801V1.0701H26.9301V5.6901H26.0801V1.0701Z" />
        <path d="M28.6299 0.350098H29.4799V5.6901H28.6299V0.350098Z" />
        <path d="M30.2 3.02C30.2 1.11 30.74 0.25 31.96 0.25C33.18 0.25 33.72 1.12 33.72 3.02C33.72 4.92 33.18 5.79 31.96 5.79C30.74 5.79 30.2 4.92 30.2 3.02ZM32.88 3C32.88 1.21 32.47 0.89 31.97 0.89C31.47 0.89 31.06 1.2 31.06 3C31.06 4.8 31.46 5.15 31.97 5.15C32.48 5.15 32.88 4.84 32.88 3Z" />
        <path d="M34.48 0.350098H35.52L37.07 4.3301H37.08V0.350098H37.89V5.6901H36.85L35.3 1.6101H35.28V5.6901H34.47V0.350098H34.48Z" />
        <path d="M39.78 0.350098H40.87L42.28 5.6901H41.39L41.06 4.3801H39.5L39.16 5.6901H38.27L39.79 0.350098H39.78ZM40.92 3.7001L40.31 1.0701H40.3L39.66 3.7001H40.92Z" />
        <path d="M42.55 0.350098H43.4V4.9701H45.4601V5.6901H42.54V0.350098H42.55Z" />
        <path d="M0.570068 7.37012H2.45007C3.20007 7.37012 3.80007 7.74012 3.80007 8.75012C3.80007 9.44012 3.49007 9.97012 2.91007 10.0601V10.0801C3.44007 10.1301 3.72007 10.4201 3.75007 11.1701C3.75007 11.5101 3.77007 11.9301 3.78007 12.2501C3.79007 12.5101 3.92007 12.6401 4.03007 12.7101H3.07007C2.99007 12.6101 2.95007 12.4501 2.93007 12.2401C2.90007 11.9201 2.91007 11.6201 2.89007 11.2301C2.88007 10.6501 2.70007 10.3901 2.11007 10.3901H1.42007V12.7101H0.570068V7.37012ZM2.10007 9.75012C2.65007 9.75012 2.95007 9.42012 2.95007 8.88012C2.95007 8.31012 2.70007 8.01012 2.14007 8.01012H1.42007V9.74012H2.10007V9.75012Z" />
        <path d="M5.37003 7.37012V11.2001C5.37003 11.8701 5.64003 12.1701 6.16003 12.1701C6.68003 12.1701 6.94003 11.8701 6.94003 11.2001V7.37012H7.79002V11.1301C7.79002 12.3601 7.18003 12.8101 6.16003 12.8101C5.14003 12.8101 4.52002 12.3601 4.52002 11.1301V7.37012H5.37003Z" />
        <path d="M9.26016 11.05V11.18C9.26016 11.83 9.54017 12.16 10.1302 12.16C10.6702 12.16 10.9402 11.78 10.9402 11.38C10.9402 10.82 10.6602 10.57 10.1802 10.43L9.60017 10.23C8.82017 9.93001 8.49017 9.53001 8.49017 8.77001C8.49017 7.80001 9.15016 7.26001 10.1502 7.26001C11.5202 7.26001 11.6602 8.11001 11.6602 8.66001V8.78001H10.8102V8.67001C10.8102 8.18001 10.5902 7.90001 10.0602 7.90001C9.69017 7.90001 9.34016 8.10001 9.34016 8.67001C9.34016 9.13001 9.57017 9.36001 10.1402 9.57001L10.7202 9.78001C11.4702 10.05 11.8002 10.46 11.8002 11.19C11.8002 12.33 11.1102 12.8 10.0402 12.8C8.72016 12.8 8.42017 11.92 8.42017 11.17V11.04H9.27017L9.26016 11.05Z" />
        <path d="M13.1301 11.05V11.18C13.1301 11.83 13.41 12.16 14 12.16C14.54 12.16 14.81 11.78 14.81 11.38C14.81 10.82 14.53 10.57 14.05 10.43L13.47 10.23C12.7 9.93001 12.36 9.53001 12.36 8.77001C12.36 7.80001 13.0201 7.26001 14.0201 7.26001C15.3901 7.26001 15.53 8.11001 15.53 8.66001V8.78001H14.68V8.67001C14.68 8.18001 14.46 7.90001 13.93 7.90001C13.56 7.90001 13.2101 8.10001 13.2101 8.67001C13.2101 9.13001 13.44 9.36001 14.01 9.57001L14.59 9.78001C15.34 10.05 15.67 10.46 15.67 11.19C15.67 12.33 14.98 12.8 13.91 12.8C12.59 12.8 12.29 11.92 12.29 11.17V11.04H13.14L13.1301 11.05Z" />
        <path d="M16.3201 7.37012H17.1701V12.7101H16.3201V7.37012Z" />
        <path d="M19.02 7.37012H20.11L21.52 12.7101H20.63L20.3 11.4001H18.74L18.4 12.7101H17.51L19.03 7.37012H19.02ZM20.16 10.7201L19.55 8.09012H19.54L18.9 10.7201H20.16Z" />
        <path d="M21.8901 7.37012H22.9301L24.4801 11.3501H24.5001V7.37012H25.3101V12.7101H24.2701L22.7201 8.63012H22.7101V12.7101H21.9001V7.37012H21.8901Z" />
        <path d="M1.53001 15.0901H0.26001V14.3701H3.63V15.0901H2.38V19.7101H1.53001V15.0901Z" />
        <path d="M4.11011 14.3701H5.9901C6.7401 14.3701 7.3401 14.7401 7.3401 15.7501C7.3401 16.4401 7.0301 16.9701 6.4501 17.0601V17.0801C6.9801 17.1301 7.2601 17.4201 7.2901 18.1701C7.2901 18.5101 7.30011 18.9301 7.32011 19.2501C7.33011 19.5101 7.46011 19.6401 7.57011 19.7101H6.61011C6.53011 19.6101 6.49011 19.4501 6.47011 19.2401C6.44011 18.9201 6.45011 18.6201 6.43011 18.2301C6.42011 17.6501 6.24011 17.3901 5.65011 17.3901H4.96011V19.7101H4.11011V14.3701ZM5.64011 16.7501C6.18011 16.7501 6.4901 16.4201 6.4901 15.8801C6.4901 15.3101 6.24011 15.0101 5.68011 15.0101H4.96011V16.7401H5.64011V16.7501Z" />
        <path d="M9.14012 14.3701H10.2301L11.6301 19.7101H10.7401L10.4101 18.4001H8.85013L8.51012 19.7101H7.62012L9.14012 14.3701ZM10.2701 17.7201L9.66013 15.0901H9.65012L9.01012 17.7201H10.2701Z" />
        <path d="M11.3 14.3701H12.2L13.1001 18.6301H13.12L14.08 14.3701H14.98L13.64 19.7101H12.56L11.3 14.3701Z" />
        <path d="M15.3801 14.3701H18.2701V15.0901H16.2401V16.5701H18.1501V17.2901H16.2401V18.9901H18.3301V19.7101H15.3901V14.3701H15.3801Z" />
        <path d="M18.8701 14.3701H19.7201V18.9901H21.7801V19.7101H18.8601V14.3701H18.8701Z" />
        <path d="M0.58007 21.3701H1.91007L2.85007 25.3201H2.87007L3.80007 21.3701H5.10007V26.7101H4.29007V22.2701H4.28007L3.20007 26.7101H2.48007L1.40007 22.2701H1.38007V26.7101H0.570068V21.3701H0.58007Z" />
        <path d="M6.98997 21.3701H8.07998L9.48998 26.7101H8.59998L8.26998 25.4001H6.70998L6.36998 26.7101H5.47998L6.99998 21.3701H6.98997ZM8.12998 24.7201L7.51998 22.0901H7.50997L6.87997 24.7201H8.13998H8.12998Z" />
        <path d="M9.8501 21.3701H11.7301C12.4801 21.3701 13.0801 21.7401 13.0801 22.7401C13.0801 23.4301 12.7701 23.9601 12.1901 24.0501C12.7201 24.1201 13.0001 24.4101 13.0301 25.1601C13.0301 25.5001 13.0501 25.9201 13.0601 26.2401C13.0701 26.5001 13.2001 26.6301 13.3101 26.7001H12.3501C12.2701 26.6001 12.2301 26.4401 12.2101 26.2301C12.1801 25.9101 12.1901 25.6101 12.1701 25.2201C12.1601 24.6401 11.9801 24.3801 11.3901 24.3801H10.7001V26.7001H9.8501V21.3601V21.3701ZM11.3801 23.7501C11.9301 23.7501 12.2301 23.4201 12.2301 22.8801C12.2301 22.3101 11.9801 22.0101 11.4201 22.0101H10.6901V23.7401H11.3701L11.3801 23.7501Z" />
        <path d="M13.8701 21.3701H14.7201V23.6901H14.7301L16.3401 21.3701H17.2701L15.7301 23.6201L17.4301 26.7101H16.4701L15.1801 24.3101L14.7101 24.9801V26.7101H13.8601V21.3701H13.8701Z" />
        <path d="M17.75 21.3701H20.63V22.0901H18.6V23.5701H20.51V24.2901H18.6V25.9901H20.69V26.7101H17.75V21.3701Z" />
        <path d="M22.2102 22.0901H20.9402V21.3701H24.3102V22.0901H23.0602V26.7101H22.2102V22.0901Z" />
    </symbol>

    <symbol viewBox="0 0 19 18" id="icon-search">
        <path d="M8.57812 14.25C11.8918 14.25 14.5781 11.5637 14.5781 8.25C14.5781 4.93629 11.8918 2.25 8.57812 2.25C5.26442 2.25 2.57812 4.93629 2.57812 8.25C2.57812 11.5637 5.26442 14.25 8.57812 14.25Z" stroke-linecap="round" stroke-linejoin="round" />
        <path d="M16.0779 15.75L12.8154 12.4875" stroke-linecap="round" stroke-linejoin="round" />
    </symbol>

    <symbol viewBox="0 0 19 18" id="icon-favourite">
        <path d="M15.9577 3.4574C15.5747 3.07416 15.1198 2.77014 14.6192 2.56272C14.1186 2.3553 13.5821 2.24854 13.0402 2.24854C12.4984 2.24854 11.9618 2.3553 11.4612 2.56272C10.9606 2.77014 10.5058 3.07416 10.1227 3.4574L9.32773 4.2524L8.53273 3.4574C7.75896 2.68364 6.7095 2.24894 5.61523 2.24894C4.52095 2.24894 3.4715 2.68364 2.69773 3.4574C1.92396 4.23117 1.48926 5.28063 1.48926 6.3749C1.48926 7.46918 1.92396 8.51864 2.69773 9.2924L3.49273 10.0874L9.32773 15.9224L15.1627 10.0874L15.9577 9.2924C16.341 8.90934 16.645 8.45451 16.8524 7.95392C17.0598 7.45333 17.1666 6.91677 17.1666 6.3749C17.1666 5.83304 17.0598 5.29648 16.8524 4.79589C16.645 4.29529 16.341 3.84047 15.9577 3.4574V3.4574Z" stroke-linecap="round" stroke-linejoin="round" />
    </symbol>

    <symbol viewBox="0 0 18 18" id="icon-favourite-catalogue">
        <path d="M15.6306 3.45789C15.2475 3.07465 14.7927 2.77063 14.2921 2.56321C13.7915 2.35578 13.2549 2.24902 12.7131 2.24902C12.1712 2.24902 11.6347 2.35578 11.1341 2.56321C10.6335 2.77063 10.1786 3.07465 9.79558 3.45789L9.00058 4.25289L8.20558 3.45789C7.43181 2.68412 6.38235 2.24942 5.28808 2.24942C4.1938 2.24942 3.14435 2.68412 2.37058 3.45789C1.59681 4.23166 1.16211 5.28112 1.16211 6.37539C1.16211 7.46967 1.59681 8.51912 2.37058 9.29289L3.16558 10.0879L9.00058 15.9229L14.8356 10.0879L15.6306 9.29289C16.0138 8.90983 16.3178 8.455 16.5253 7.95441C16.7327 7.45381 16.8394 6.91726 16.8394 6.37539C16.8394 5.83353 16.7327 5.29697 16.5253 4.79638C16.3178 4.29578 16.0138 3.84096 15.6306 3.45789V3.45789Z" stroke-width="2" stroke-linecap="round" stroke-linejoin="round" />
    </symbol>

    <symbol viewBox="0 0 8 5" id="nav-arrow">
        <path d="M4 4.5L3.49691e-07 0.499999L8 0.5L4 4.5Z" />
    </symbol>

    <symbol viewBox="0 0 16 16" id="icon-date">
        <path d="M12.6667 2.6665H3.33333C2.59695 2.6665 2 3.26346 2 3.99984V13.3332C2 14.0696 2.59695 14.6665 3.33333 14.6665H12.6667C13.403 14.6665 14 14.0696 14 13.3332V3.99984C14 3.26346 13.403 2.6665 12.6667 2.6665Z" stroke-width="1.33333" stroke-linecap="round" stroke-linejoin="round" />
        <path d="M10.666 1.33325V3.99992" stroke-width="1.33333" stroke-linecap="round" stroke-linejoin="round" />
        <path d="M5.33398 1.33325V3.99992" stroke-width="1.33333" stroke-linecap="round" stroke-linejoin="round" />
        <path d="M2 6.6665H14" stroke-width="1.33333" stroke-linecap="round" stroke-linejoin="round" />
    </symbol>

    <symbol viewBox="0 0 16 16" id="icon-location">
        <path d="M14 6.6665C14 11.3332 8 15.3332 8 15.3332C8 15.3332 2 11.3332 2 6.6665C2 5.07521 2.63214 3.54908 3.75736 2.42386C4.88258 1.29864 6.4087 0.666504 8 0.666504C9.5913 0.666504 11.1174 1.29864 12.2426 2.42386C13.3679 3.54908 14 5.07521 14 6.6665Z" stroke-width="1.33333" stroke-linecap="round" stroke-linejoin="round" />
        <path d="M8 8.6665C9.10457 8.6665 10 7.77107 10 6.6665C10 5.56193 9.10457 4.6665 8 4.6665C6.89543 4.6665 6 5.56193 6 6.6665C6 7.77107 6.89543 8.6665 8 8.6665Z" stroke-width="1.33333" stroke-linecap="round" stroke-linejoin="round" />
    </symbol>

    <symbol viewBox="0 0 32 32" id="footer-social-telegram">
        <path d="M16 32C24.8366 32 32 24.8366 32 16C32 7.16344 24.8366 0 16 0C7.16344 0 0 7.16344 0 16C0 24.8366 7.16344 32 16 32Z" />
        <path d="M5.95875 16.7826C7.82915 15.7523 9.91702 14.8924 11.8678 14.0282C15.224 12.6126 18.5934 11.2215 21.9969 9.92642C22.6591 9.70577 23.8489 9.49001 23.9656 10.4713C23.9016 11.8604 23.6388 13.2413 23.4586 14.6222C23.0011 17.659 22.4723 20.6854 21.9566 23.7122C21.7789 24.7205 20.5159 25.2424 19.7078 24.5972C17.7657 23.2853 15.8086 21.9862 13.8913 20.644C13.2632 20.0058 13.8456 19.0893 14.4065 18.6336C16.0061 17.0572 17.7025 15.7178 19.2185 14.06C19.6275 13.0725 18.4192 13.9047 18.0206 14.1597C15.8308 15.6688 13.6945 17.27 11.3857 18.5962C10.2064 19.2454 8.83185 18.6907 7.65305 18.3284C6.59613 17.8908 5.04731 17.4499 5.95865 16.7827L5.95875 16.7826Z" fill="white" />
    </symbol>

    <symbol viewBox="0 0 32 32" id="footer-social-vk">
        <path d="M16 32C24.8366 32 32 24.8366 32 16C32 7.16344 24.8366 0 16 0C7.16344 0 0 7.16344 0 16C0 24.8366 7.16344 32 16 32Z" />
        <path fill-rule="evenodd" clip-rule="evenodd" d="M26.1965 11.0214C26.3545 10.5245 26.1965 10.1632 25.4964 10.1632H23.1703C22.5832 10.1632 22.3122 10.4794 22.1541 10.8181C22.1541 10.8181 20.9572 13.7087 19.2861 15.5831C18.7441 16.1251 18.4957 16.3058 18.2021 16.3058C18.044 16.3058 17.8408 16.1251 17.8408 15.6283V10.9988C17.8408 10.4116 17.6601 10.1406 17.1633 10.1406H13.5049C13.1435 10.1406 12.9177 10.4116 12.9177 10.6826C12.9177 11.2472 13.7533 11.3827 13.8436 12.9635V16.3961C13.8436 17.1413 13.7081 17.2768 13.4145 17.2768C12.6241 17.2768 10.7046 14.3636 9.55284 11.0439C9.32701 10.389 9.10118 10.1406 8.51403 10.1406H6.1654C5.48791 10.1406 5.375 10.4568 5.375 10.7955C5.375 11.4053 6.1654 14.4765 9.05602 18.5415C10.9756 21.3192 13.7081 22.8096 16.1696 22.8096C17.6601 22.8096 17.8408 22.4709 17.8408 21.9063V19.8061C17.8408 19.1286 17.9763 19.0157 18.4505 19.0157C18.7893 19.0157 19.399 19.1964 20.7766 20.5288C22.3574 22.1096 22.6284 22.8322 23.5091 22.8322H25.8351C26.5126 22.8322 26.8288 22.4935 26.6481 21.8386C26.4449 21.1837 25.677 20.2352 24.6834 19.106C24.1414 18.4737 23.3284 17.7737 23.08 17.4349C22.7413 16.9833 22.8316 16.8026 23.08 16.3961C23.0574 16.3961 25.9029 12.3763 26.1965 11.0214Z" fill="white" />
    </symbol>

    <symbol viewBox="0 0 16 16" id="ext-link">
        <path d="M11.1569 5.34315C11.1569 5.067 10.933 4.84315 10.6569 4.84315L6.15685 4.84315C5.88071 4.84315 5.65685 5.067 5.65685 5.34315C5.65685 5.61929 5.88071 5.84315 6.15685 5.84315L10.1569 5.84315L10.1569 9.84315C10.1569 10.1193 10.3807 10.3431 10.6569 10.3431C10.933 10.3431 11.1569 10.1193 11.1569 9.84315L11.1569 5.34315ZM5.35355 11.3536L11.0104 5.6967L10.3033 4.98959L4.64645 10.6464L5.35355 11.3536Z" />
    </symbol>

    <symbol viewBox="0 0 16 16" id="in-link">
        <path d="M12.1817 8.52518C12.3769 8.32992 12.3769 8.01334 12.1817 7.81808L8.9997 4.6361C8.80444 4.44083 8.48785 4.44083 8.29259 4.6361C8.09733 4.83136 8.09733 5.14794 8.29259 5.3432L11.121 8.17163L8.29259 11.0001C8.09733 11.1953 8.09733 11.5119 8.29259 11.7072C8.48785 11.9024 8.80444 11.9024 8.9997 11.7072L12.1817 8.52518ZM3.82812 8.67163H11.8281V7.67163H3.82812V8.67163Z" />
    </symbol>

    <symbol viewBox="0 0 16 16" id="btn-arrow">
        <path d="M6 13L11 8L6 3" stroke-width="2" stroke-linecap="round" stroke-linejoin="round" />
    </symbol>

    <symbol viewBox="0 0 20 20" id="btn-download">
        <path d="M17.5 12.5V15.8333C17.5 16.2754 17.3244 16.6993 17.0118 17.0118C16.6993 17.3244 16.2754 17.5 15.8333 17.5H4.16667C3.72464 17.5 3.30072 17.3244 2.98816 17.0118C2.67559 16.6993 2.5 16.2754 2.5 15.8333V12.5" stroke-width="2" stroke-linecap="round" stroke-linejoin="round" />
        <path d="M5.83203 8.33398L9.9987 12.5007L14.1654 8.33398" stroke-width="2" stroke-linecap="round" stroke-linejoin="round" />
        <path d="M10 12.5V2.5" stroke-width="2" stroke-linecap="round" stroke-linejoin="round" />
    </symbol>

    <symbol viewBox="0 0 28 21" id="menu-mobile-link">
        <rect width="28" height="3" rx="1" />
        <rect y="9" width="28" height="3" rx="1" />
        <rect x="14" y="18" width="14" height="3" rx="1" />
    </symbol>

    <symbol viewBox="0 0 20 20" id="menu-mobile-close">
        <path d="M16.5 3.5L3.5 16.5" stroke-width="2" stroke-linecap="round" stroke-linejoin="round" />
        <path d="M3.5 3.5L16.5 16.5" stroke-width="2" stroke-linecap="round" stroke-linejoin="round" />
    </symbol>

    <symbol viewBox="0 0 40 40" id="arrow-prev">
        <path d="M21.9045 14.2858L16.1903 20.0001L21.9045 25.7144" stroke-width="2" stroke-linecap="round" stroke-linejoin="round" />
    </symbol>

    <symbol viewBox="0 0 40 40" id="arrow-next">
        <path d="M18.0955 25.7142L23.8097 19.9999L18.0955 14.2856"  stroke-width="2" stroke-linecap="round" stroke-linejoin="round" />
    </symbol>

    <symbol viewBox="0 0 8 14" id="pager-prev">
        <path d="M7 1L0.999999 7L7 13" stroke-width="2" stroke-linecap="round" stroke-linejoin="round" />
    </symbol>

    <symbol viewBox="0 0 8 14" id="pager-next">
        <path d="M1 13L7 7L1 1" stroke-width="2" stroke-linecap="round" stroke-linejoin="round" />
    </symbol>

    <symbol viewBox="0 0 16 16" id="main-section-link">
        <path d="M15.7071 8.70711C16.0976 8.31658 16.0976 7.68342 15.7071 7.29289L9.34315 0.928931C8.95262 0.538407 8.31946 0.538407 7.92893 0.928931C7.53841 1.31946 7.53841 1.95262 7.92893 2.34315L13.5858 8L7.92893 13.6569C7.53841 14.0474 7.53841 14.6805 7.92893 15.0711C8.31946 15.4616 8.95262 15.4616 9.34315 15.0711L15.7071 8.70711ZM8.74228e-08 9L15 9L15 7L-8.74228e-08 7L8.74228e-08 9Z" />
    </symbol>

    <symbol viewBox="0 0 18 18" id="icon-time">
        <path d="M9 16.4993C13.1421 16.4993 16.5 13.1414 16.5 8.99931C16.5 4.85718 13.1421 1.49931 9 1.49931C4.85786 1.49931 1.5 4.85718 1.5 8.99931C1.5 13.1414 4.85786 16.4993 9 16.4993Z" stroke-width="1.41667" stroke-linecap="round" stroke-linejoin="round" />
        <path d="M9 4.5V9L12 10.5" stroke-width="1.41667" stroke-linecap="round" stroke-linejoin="round" />
    </symbol>

    <symbol viewBox="0 0 60 61" id="about-icon-dates">
        <path d="M47.5 10.4998H12.5C9.73858 10.4998 7.5 12.7383 7.5 15.4998V50.4998C7.5 53.2612 9.73858 55.4998 12.5 55.4998H47.5C50.2614 55.4998 52.5 53.2612 52.5 50.4998V15.4998C52.5 12.7383 50.2614 10.4998 47.5 10.4998Z" stroke-width="3" stroke-linecap="round" stroke-linejoin="round" />
        <path d="M40 5.49951V15.4995" stroke-width="3" stroke-linecap="round" stroke-linejoin="round" />
        <path d="M20.0039 5.49951V15.4995" stroke-width="3" stroke-linecap="round" stroke-linejoin="round" />
        <path d="M7.5 25.4996H52.5" stroke-width="3" stroke-linecap="round" stroke-linejoin="round" />
    </symbol>

    <symbol viewBox="0 0 60 61" id="about-icon-location">
        <path d="M52.5 25.5C52.5 43 30 58 30 58C30 58 7.5 43 7.5 25.5C7.5 19.5326 9.87053 13.8097 14.0901 9.5901C18.3097 5.37053 24.0326 3 30 3C35.9674 3 41.6903 5.37053 45.9099 9.5901C50.1295 13.8097 52.5 19.5326 52.5 25.5Z" stroke-width="3" stroke-linecap="round" stroke-linejoin="round" />
        <path d="M30 33C34.1421 33 37.5 29.6421 37.5 25.5C37.5 21.3579 34.1421 18 30 18C25.8579 18 22.5 21.3579 22.5 25.5C22.5 29.6421 25.8579 33 30 33Z" stroke-width="3" stroke-linecap="round" stroke-linejoin="round" />
    </symbol>

    <symbol viewBox="0 0 24 25" id="icon-email">
        <path d="M12 16.5C14.2091 16.5 16 14.7091 16 12.5C16 10.2909 14.2091 8.5 12 8.5C9.79086 8.5 8 10.2909 8 12.5C8 14.7091 9.79086 16.5 12 16.5Z" stroke-width="2" stroke-linecap="round" stroke-linejoin="round" />
        <path d="M16 8.49999V13.5C16 14.2956 16.3161 15.0587 16.8787 15.6213C17.4413 16.1839 18.2044 16.5 19 16.5C19.7957 16.5 20.5587 16.1839 21.1213 15.6213C21.6839 15.0587 22 14.2956 22 13.5V12.5C21.9999 10.243 21.2362 8.05247 19.8333 6.28452C18.4303 4.51658 16.4706 3.27521 14.2726 2.76229C12.0747 2.24936 9.76794 2.49503 7.72736 3.45936C5.68677 4.42368 4.03241 6.04995 3.03327 8.07371C2.03413 10.0975 1.74898 12.3997 2.22418 14.6061C2.69938 16.8125 3.90699 18.7932 5.65064 20.2263C7.39429 21.6593 9.57144 22.4603 11.8281 22.4991C14.0847 22.5379 16.2881 21.8122 18.08 20.44" stroke-width="2" stroke-linecap="round" stroke-linejoin="round" />
    </symbol>

    <symbol viewBox="0 0 24 25" id="icon-phone">
        <path d="M22.0014 17.42V20.42C22.0025 20.6985 21.9455 20.9741 21.8339 21.2293C21.7223 21.4845 21.5587 21.7136 21.3535 21.9018C21.1483 22.0901 20.906 22.2335 20.6421 22.3227C20.3783 22.4119 20.0988 22.445 19.8214 22.42C16.7442 22.0856 13.7884 21.0341 11.1914 19.35C8.77523 17.8146 6.72673 15.7661 5.1914 13.35C3.50138 10.7412 2.44964 7.77097 2.1214 4.67997C2.09641 4.40344 2.12927 4.12474 2.2179 3.8616C2.30652 3.59846 2.44897 3.35666 2.63616 3.1516C2.82336 2.94653 3.0512 2.78268 3.30519 2.6705C3.55917 2.55831 3.83374 2.50024 4.1114 2.49997H7.1114C7.5967 2.4952 8.06719 2.66705 8.43516 2.98351C8.80313 3.29996 9.04348 3.73942 9.1114 4.21997C9.23802 5.18004 9.47285 6.1227 9.8114 7.02997C9.94594 7.3879 9.97506 7.77689 9.8953 8.15086C9.81555 8.52482 9.63026 8.86809 9.3614 9.13998L8.0914 10.41C9.51495 12.9135 11.5879 14.9864 14.0914 16.41L15.3614 15.14C15.6333 14.8711 15.9766 14.6858 16.3505 14.6061C16.7245 14.5263 17.1135 14.5554 17.4714 14.69C18.3787 15.0285 19.3213 15.2634 20.2814 15.39C20.7672 15.4585 21.2108 15.7032 21.5279 16.0775C21.8451 16.4518 22.0136 16.9296 22.0014 17.42Z" stroke-width="2" stroke-linecap="round" stroke-linejoin="round" />
    </symbol>

    <symbol viewBox="0 0 24 24" id="icon-url">
        <path d="M15 7H18C18.6566 7 19.3068 7.12933 19.9134 7.3806C20.52 7.63188 21.0712 8.00017 21.5355 8.46447C21.9998 8.92876 22.3681 9.47996 22.6194 10.0866C22.8707 10.6932 23 11.3434 23 12C23 12.6566 22.8707 13.3068 22.6194 13.9134C22.3681 14.52 21.9998 15.0712 21.5355 15.5355C21.0712 15.9998 20.52 16.3681 19.9134 16.6194C19.3068 16.8707 18.6566 17 18 17H15M9 17H6C5.34339 17 4.69321 16.8707 4.08658 16.6194C3.47995 16.3681 2.92876 15.9998 2.46447 15.5355C1.52678 14.5979 1 13.3261 1 12C1 10.6739 1.52678 9.40215 2.46447 8.46447C3.40215 7.52678 4.67392 7 6 7H9" stroke-width="2" stroke-linecap="round" stroke-linejoin="round" />
        <path d="M8 12H16" stroke-width="2" stroke-linecap="round" stroke-linejoin="round" />
    </symbol>

    <symbol viewBox="0 0 16 16" id="more-link">
        <path d="M3 6L8 11L13 6" stroke-width="2" stroke-linecap="round" stroke-linejoin="round" />
    </symbol>

    <symbol viewBox="0 0 44 44" id="faq-item-arrow">
        <path d="M14 19L22 27L30 19" stroke-width="3" stroke-linecap="round" stroke-linejoin="round" />
    </symbol>

    <symbol viewBox="0 0 24 24" id="archive-years-current">
        <path d="M7.5 9.5L12.5 14.5L17.5 9.5" stroke-width="2" stroke-linecap="round" stroke-linejoin="round" />
    </symbol>

    <symbol viewBox="0 0 20 12" id="main-sections-item-title">
        <path d="M2 2L10 10L18 2" stroke-width="3" stroke-linecap="round" stroke-linejoin="round" />
    </symbol>

    <symbol viewBox="0 0 50 50" id="slider-prev">
        <path d="M27.3809 17.8571L20.238 25L27.3809 32.1428" stroke-width="2" stroke-linecap="round" stroke-linejoin="round" />
    </symbol>

    <symbol viewBox="0 0 50 50" id="slider-next">
        <path d="M22.6194 32.1429L29.7622 25L22.6194 17.8572" stroke-width="2" stroke-linecap="round" stroke-linejoin="round" />
    </symbol>

    <symbol viewBox="0 0 24 24" id="window-photo-close">
        <path d="M18 6L6 18" stroke-width="2" stroke-linecap="round" stroke-linejoin="round" />
        <path d="M6 6L18 18" stroke-width="2" stroke-linecap="round" stroke-linejoin="round" />
    </symbol>

    <symbol viewBox="0 0 24 24" id="window-photo-download">
        <path d="M21 15V19C21 19.5304 20.7893 20.0391 20.4142 20.4142C20.0391 20.7893 19.5304 21 19 21H5C4.46957 21 3.96086 20.7893 3.58579 20.4142C3.21071 20.0391 3 19.5304 3 19V15" stroke-width="2" stroke-linecap="round" stroke-linejoin="round" />
        <path d="M7 10L12 15L17 10" stroke-width="2" stroke-linecap="round" stroke-linejoin="round" />
        <path d="M12 15V3" stroke-width="2" stroke-linecap="round" stroke-linejoin="round" />
    </symbol>

    <symbol viewBox="0 0 32 32" id="window-close">
        <path d="M24 8L8 24" stroke-width="2.66667" stroke-linecap="round" stroke-linejoin="round" />
        <path d="M8 8L24 24" stroke-width="2.66667" stroke-linecap="round" stroke-linejoin="round" />
    </symbol>

    <symbol viewBox="0 0 24 24" id="search-submit">
        <path d="M11 17C14.3137 17 17 14.3137 17 11C17 7.68629 14.3137 5 11 5C7.68629 5 5 7.68629 5 11C5 14.3137 7.68629 17 11 17Z" stroke-width="2" stroke-linecap="round" stroke-linejoin="round" />
        <path d="M19 19L16 16" stroke="#65646A" stroke-linecap="round" stroke-linejoin="round" />
    </symbol>

    <symbol viewBox="0 0 13 9" id="speaker-detail-events-item">
        <path d="M12.4243 4.92426C12.6586 4.68995 12.6586 4.31005 12.4243 4.07573L8.60589 0.257358C8.37157 0.0230439 7.99167 0.0230439 7.75736 0.257358C7.52304 0.491673 7.52304 0.871572 7.75736 1.10589L11.1515 4.5L7.75736 7.89411C7.52304 8.12843 7.52304 8.50833 7.75736 8.74264C7.99167 8.97695 8.37157 8.97695 8.60589 8.74264L12.4243 4.92426ZM5.24537e-08 5.1L12 5.1L12 3.9L-5.24537e-08 3.9L5.24537e-08 5.1Z" />
    </symbol>

    <symbol viewBox="0 0 16 16" id="section-menu-ext-link">
        <path d="M13.5282 5.22183C13.5282 4.80761 13.1924 4.47183 12.7782 4.47183L6.02817 4.47183C5.61396 4.47183 5.27817 4.80761 5.27817 5.22183C5.27817 5.63604 5.61396 5.97183 6.02817 5.97183H12.0282V11.9718C12.0282 12.386 12.364 12.7218 12.7782 12.7218C13.1924 12.7218 13.5282 12.386 13.5282 11.9718L13.5282 5.22183ZM5.53033 13.5303L13.3085 5.75216L12.2478 4.6915L4.46967 12.4697L5.53033 13.5303Z" />
    </symbol>

    <symbol viewBox="0 0 16 16" id="section-menu-in-link">
        <path d="M13.5303 8.53033C13.8232 8.23744 13.8232 7.76256 13.5303 7.46967L8.75736 2.6967C8.46447 2.40381 7.98959 2.40381 7.6967 2.6967C7.40381 2.98959 7.40381 3.46447 7.6967 3.75736L11.9393 8L7.6967 12.2426C7.40381 12.5355 7.40381 13.0104 7.6967 13.3033C7.98959 13.5962 8.46447 13.5962 8.75736 13.3033L13.5303 8.53033ZM2 8.75H13V7.25L2 7.25V8.75Z" />
    </symbol>

    <symbol viewBox="0 0 16 16" id="program-video-ctrl">
        <path d="M3 6L8 11L13 6" stroke-width="2" stroke-linecap="round" stroke-linejoin="round" />
    </symbol>

    <symbol viewBox="0 0 24 24" id="program-filter-arrow">
        <path d="M7.5 9.5L12.5 14.5L17.5 9.5" stroke-width="2" stroke-linecap="round" stroke-linejoin="round" />
    </symbol>

    <symbol viewBox="0 0 64 64" id="slider-video">
        <path d="M45.8135 31.3524C47.1468 32.1222 47.1468 34.0467 45.8135 34.8165L26.5931 45.9134C25.2598 46.6832 23.5931 45.7209 23.5931 44.1813L23.5931 21.9876C23.5931 20.448 25.2598 19.4857 26.5931 20.2555L45.8135 31.3524Z" />
    </symbol>

    <symbol viewBox="0 0 24 24" id="zoom-in">
        <path d="M11 19C15.4183 19 19 15.4183 19 11C19 6.58172 15.4183 3 11 3C6.58172 3 3 6.58172 3 11C3 15.4183 6.58172 19 11 19Z" stroke-width="2" stroke-linecap="round" stroke-linejoin="round" />
        <path d="M21.0004 20.9999L16.6504 16.6499" stroke-width="2" stroke-linecap="round" stroke-linejoin="round" />
        <path d="M11 8V14" stroke-width="2" stroke-linecap="round" stroke-linejoin="round" />
        <path d="M8 11H14" stroke-width="2" stroke-linecap="round" stroke-linejoin="round" />
    </symbol>

    <symbol viewBox="0 0 24 24" id="zoom-out">
        <path d="M11 19C15.4183 19 19 15.4183 19 11C19 6.58172 15.4183 3 11 3C6.58172 3 3 6.58172 3 11C3 15.4183 6.58172 19 11 19Z" stroke-width="2" stroke-linecap="round" stroke-linejoin="round" />
        <path d="M21.0004 20.9999L16.6504 16.6499" stroke-width="2" stroke-linecap="round" stroke-linejoin="round" />
        <path d="M8 11H14" stroke-width="2" stroke-linecap="round" stroke-linejoin="round" />
    </symbol>

</svg>