<svg width="645" height="155" viewBox="0 0 645 155" fill="none" xmlns="http://www.w3.org/2000/svg">
<path d="M348.707 72.9303C349.897 73.724 350.888 74.7803 351.683 76.0995C352.476 77.4197 352.873 79.0412 352.873 80.9656C352.873 84.6755 351.097 87.7615 347.545 90.2219C343.993 92.6817 339.42 93.9125 333.825 93.9125C329.817 93.9125 326.413 93.0536 323.616 91.338C320.819 89.6213 319.42 87.5136 319.42 85.0136C319.42 83.6047 319.871 82.4145 320.775 81.4416C321.677 80.4697 322.883 79.9833 324.391 79.9833C325.957 79.9833 327.243 80.4052 328.245 81.2484C329.247 82.0921 329.747 83.2172 329.747 84.6265C329.747 85.5984 329.573 86.6849 329.227 87.886C328.88 89.0855 328.607 89.974 328.408 90.5489C328.844 90.7469 329.411 90.9016 330.105 91.0109C330.799 91.1193 331.612 91.174 332.545 91.174C333.696 91.174 334.823 90.9855 335.923 90.6088C337.024 90.2312 337.981 89.6161 338.796 88.7636C339.648 87.8708 340.308 86.824 340.775 85.6235C341.241 84.4229 341.473 82.8312 341.473 80.8469C341.473 79.7156 341.369 78.6443 341.161 77.6323C340.953 76.6203 340.571 75.738 340.016 74.9833C339.46 74.2297 338.701 73.6396 337.739 73.2125C336.776 72.786 335.552 72.5729 334.063 72.5729H330.283V68.9719H332.963C335.463 68.9719 337.272 68.2328 338.393 66.7541C339.515 65.2765 340.076 63.0193 340.076 59.9833C340.076 57.5427 339.535 55.712 338.453 54.4916C337.372 53.2719 335.809 52.662 333.765 52.662C332.992 52.662 332.317 52.7063 331.741 52.7953C331.165 52.8855 330.58 53.0484 329.985 53.2869C330.204 53.9615 330.472 54.9041 330.789 56.114C331.107 57.3245 331.265 58.3568 331.265 59.2093C331.265 60.6183 330.779 61.7396 329.807 62.5729C328.835 63.4063 327.564 63.8229 325.997 63.8229C324.509 63.8229 323.324 63.3364 322.441 62.364C321.557 61.3921 321.116 60.2115 321.116 58.8229C321.116 56.3625 322.54 54.264 325.387 52.5276C328.235 50.7912 331.811 49.9235 336.116 49.9235C339.093 49.9235 341.557 50.2703 343.513 50.9651C345.467 51.6599 347.009 52.5131 348.14 53.5245C349.252 54.5172 350.021 55.5839 350.447 56.7245C350.873 57.8656 351.087 58.8921 351.087 59.8041C351.087 60.6781 350.904 61.6651 350.536 62.7661C350.169 63.8672 349.629 64.8344 348.915 65.6677C348.041 66.6803 346.9 67.5531 345.492 68.2869C344.083 69.0213 342.436 69.5869 340.552 69.9833V70.4593C341.841 70.5385 343.235 70.7771 344.733 71.174C346.231 71.5713 347.555 72.1563 348.707 72.9303Z" fill="white"/>
<path d="M381.017 77.364C381.592 76.0355 382.004 74.5522 382.252 72.9151C382.5 71.2787 382.624 69.2886 382.624 66.9474C382.624 64.8448 382.509 62.9495 382.281 61.2631C382.053 59.5766 381.672 58.0787 381.136 56.7688C380.58 55.4198 379.845 54.3782 378.933 53.6438C378.021 52.9099 376.9 52.5427 375.571 52.5427C374.22 52.5427 373.089 52.9047 372.177 53.6287C371.264 54.3531 370.521 55.3798 369.945 56.7094C369.429 57.9198 369.052 59.4027 368.815 61.1583C368.576 62.9151 368.457 64.8448 368.457 66.9474C368.457 69.15 368.561 71.025 368.769 72.573C368.977 74.1203 369.36 75.6083 369.915 77.037C370.412 78.3271 371.125 79.3689 372.059 80.1621C372.991 80.9563 374.141 81.3527 375.511 81.3527C376.78 81.3527 377.881 80.9959 378.815 80.2807C379.747 79.5667 380.481 78.5948 381.017 77.364ZM389.411 55.1913C390.917 56.7793 392.033 58.5896 392.759 60.623C393.483 62.6574 393.844 64.7651 393.844 66.9474C393.844 69.5474 393.393 71.8938 392.491 73.9865C391.587 76.0798 390.352 77.8506 388.785 79.299C387.137 80.8074 385.223 81.9579 383.041 82.7517C380.857 83.5449 378.348 83.9417 375.511 83.9417C372.515 83.9417 369.871 83.4755 367.58 82.5432C365.288 81.611 363.377 80.3807 361.851 78.8527C360.341 77.3449 359.196 75.5689 358.412 73.525C357.628 71.4813 357.237 69.2886 357.237 66.9474C357.237 64.626 357.608 62.474 358.353 60.4896C359.097 58.5058 360.243 56.7094 361.791 55.1022C363.299 53.535 365.213 52.2798 367.535 51.337C369.856 50.3948 372.524 49.9235 375.54 49.9235C378.656 49.9235 381.375 50.4099 383.695 51.3818C386.017 52.3547 387.921 53.6241 389.411 55.1913Z" fill="white"/>
<path d="M362.331 99.1916C362.543 99.1916 362.719 99.1511 362.86 99.0688C363.001 98.986 363.145 98.7979 363.292 98.5036C363.44 98.2099 363.553 97.7922 363.636 97.2511C363.719 96.7099 363.787 95.9568 363.839 94.9916C363.892 94.0276 363.919 92.8516 363.919 91.4626H370.219V100.816H368.224V93.174H365.789C365.789 94.8328 365.731 96.1834 365.613 97.2246C365.496 98.2651 365.299 99.0506 365.021 99.5803C364.745 100.11 364.441 100.463 364.113 100.639C363.783 100.816 363.348 100.904 362.807 100.904C362.583 100.904 362.207 100.868 361.677 100.798L361.784 99.1214C361.948 99.1683 362.131 99.1916 362.331 99.1916Z" fill="white"/>
<path d="M374.436 95.5213H378.407C378.359 94.7568 378.165 94.1391 377.824 93.6683C377.483 93.1984 377.031 92.9625 376.465 92.9625C375.913 92.9625 375.453 93.1891 375.089 93.6421C374.724 94.0953 374.507 94.7219 374.436 95.5213ZM376.748 101.009C375.513 101.009 374.487 100.575 373.668 99.7036C372.851 98.8328 372.441 97.6807 372.441 96.2453V96.1036C372.441 94.7041 372.821 93.5536 373.58 92.6541C374.339 91.7536 375.301 91.3036 376.465 91.3036C377.701 91.3036 378.66 91.7599 379.341 92.6713C380.024 93.5828 380.365 94.7631 380.365 96.2093C380.365 96.5271 380.359 96.7631 380.348 96.9156H374.453C374.548 97.6916 374.809 98.286 375.239 98.6973C375.668 99.1099 376.195 99.3156 376.819 99.3156C377.641 99.3156 378.395 98.9916 379.077 98.3448L380.012 99.5979C379.131 100.54 378.043 101.009 376.748 101.009Z" fill="white"/>
<path d="M384.107 100.816V93.174H381.529V91.4625H388.641V93.174H386.083V100.816H384.107Z" fill="white"/>
<mask id="mask0_2965_10" style="mask-type:luminance" maskUnits="userSpaceOnUse" x="85" y="36" width="75" height="91">
<path d="M135.771 50.6271V97.2688H109.378C115.453 87.0527 116.55 78.464 116.55 60.1683V50.6271H135.771ZM152.303 97.2688V36.9579H100.944V59.1615C100.944 76.5344 99.7213 86.7088 92.7901 97.2688H85.8875V126.223H102.129V110.869H143.247V126.223H159.573V97.2688H152.303Z" fill="white"/>
</mask>
<g mask="url(#mask0_2965_10)">
<path d="M135.771 50.6271V97.2688H109.378C115.453 87.0527 116.55 78.464 116.55 60.1683V50.6271H135.771ZM152.303 97.2688V36.9579H100.944V59.1615C100.944 76.5344 99.7213 86.7088 92.7901 97.2688H85.8875V126.223H102.129V110.869H143.247V126.223H159.573V97.2688H152.303Z" fill="url(#paint0_linear_2965_10)"/>
</g>
<mask id="mask1_2965_10" style="mask-type:luminance" maskUnits="userSpaceOnUse" x="0" y="36" width="74" height="76">
<path d="M36.7797 99.036C51.3729 99.0022 56.8281 86.585 56.8057 74.274C56.7864 61.3416 51.2828 48.9416 36.6979 48.9694C22.114 48.9964 16.6531 61.4203 16.6724 74.347C16.6932 86.6672 22.2052 99.0536 36.7797 99.036ZM36.6667 36.497C47.3536 36.4834 55.9891 39.0083 62.1667 45.2068C64.0115 47.064 68.7448 47.5172 70.1375 49.7912C71.386 51.8136 69.3448 55.636 70.2115 57.9328C72.0651 62.873 73.0401 68.3823 73.0505 74.2432C73.0907 95.5552 59.6745 111.686 36.8131 111.736C13.9516 111.769 0.469739 95.6864 0.437472 74.374C0.396405 52.4506 13.8145 36.5454 36.6667 36.497Z" fill="white"/>
</mask>
<g mask="url(#mask1_2965_10)">
<path d="M36.7797 99.036C51.3729 99.0022 56.8281 86.585 56.8057 74.274C56.7864 61.3416 51.2828 48.9416 36.6979 48.9694C22.114 48.9964 16.6531 61.4203 16.6724 74.347C16.6932 86.6672 22.2052 99.0536 36.7797 99.036ZM36.6667 36.497C47.3536 36.4834 55.9891 39.0083 62.1667 45.2068C64.0115 47.064 68.7448 47.5172 70.1375 49.7912C71.386 51.8136 69.3448 55.636 70.2115 57.9328C72.0651 62.873 73.0401 68.3823 73.0505 74.2432C73.0907 95.5552 59.6745 111.686 36.8131 111.736C13.9516 111.769 0.469739 95.6864 0.437472 74.374C0.396405 52.4506 13.8145 36.5454 36.6667 36.497Z" fill="url(#paint1_linear_2965_10)"/>
</g>
<mask id="mask2_2965_10" style="mask-type:luminance" maskUnits="userSpaceOnUse" x="47" y="36" width="62" height="75">
<path d="M47.0698 36.9484V50.2735C47.4214 50.4104 47.7651 50.5511 48.097 50.7099L69.6594 50.6479V110.876H85.8979V50.6479H108.336V36.9484H47.0698Z" fill="white"/>
</mask>
<g mask="url(#mask2_2965_10)">
<path d="M47.0698 36.9484V50.2735C47.4214 50.4104 47.7651 50.5511 48.097 50.7099L69.6594 50.6479V110.876H85.8979V50.6479H108.336V36.9484H47.0698Z" fill="url(#paint2_linear_2965_10)"/>
</g>
<mask id="mask3_2965_10" style="mask-type:luminance" maskUnits="userSpaceOnUse" x="152" y="36" width="72" height="75">
<path d="M180.007 98.3246H167.663V77.0907H180.007C187.717 77.0907 192.312 80.8891 192.312 87.2594C192.312 93.8735 187.372 98.3246 180.007 98.3246ZM206.687 36.9579V80.5865C203.637 70.7454 194.416 64.5579 181.856 64.5579H168.728V36.9579H152.199V110.869H181.643C194.487 110.869 203.656 105.008 206.687 95.4386V110.869H223.212V36.9579H206.687Z" fill="white"/>
</mask>
<g mask="url(#mask3_2965_10)">
<path d="M180.007 98.3246H167.663V77.0907H180.007C187.717 77.0907 192.312 80.8891 192.312 87.2594C192.312 93.8735 187.372 98.3246 180.007 98.3246ZM206.687 36.9579V80.5865C203.637 70.7454 194.416 64.5579 181.856 64.5579H168.728V36.9579H152.199V110.869H181.643C194.487 110.869 203.656 105.008 206.687 95.4386V110.869H223.212V36.9579H206.687Z" fill="url(#paint3_linear_2965_10)"/>
</g>
<mask id="mask4_2965_10" style="mask-type:luminance" maskUnits="userSpaceOnUse" x="215" y="36" width="69" height="75">
<path d="M259.248 72.5173L282.225 36.9579H263.027L249.817 59.997L236.912 36.9579H217.091L240.067 73.1022L215.749 110.869H235.155L249.796 86.5089L263.533 110.869H283.752L259.248 72.5173Z" fill="white"/>
</mask>
<g mask="url(#mask4_2965_10)">
<path d="M259.248 72.5173L282.225 36.9579H263.027L249.817 59.997L236.912 36.9579H217.091L240.067 73.1022L215.749 110.869H235.155L249.796 86.5089L263.533 110.869H283.752L259.248 72.5173Z" fill="url(#paint4_linear_2965_10)"/>
</g>
<path d="M441.572 36.2662H447.085L449.713 49.2495H449.764L452.417 36.2662H457.904V54.6594H454.504V39.9755H454.452L451.181 54.6594H448.296L445.024 39.9755H444.972V54.6594H441.572V36.2662Z" fill="#606363"/>
<path d="M460.557 36.2662H470.836V39.3058H464.267V43.6339H470.449V46.6735H464.267V51.6194H471.093V54.6594H460.557V36.2662Z" fill="#606363"/>
<path d="M476.503 44.0459L471.892 36.2662H475.731L480.084 43.814V36.2662H483.639V43.814L487.992 36.2662H491.831L487.219 44.0459L492.449 54.6594H488.431L485.029 47.2662L483.639 49.5583V54.6594H480.084V49.5583L478.692 47.2662L475.292 54.6594H471.273L476.503 44.0459Z" fill="#606363"/>
<path d="M502.419 51.6194V39.3058H498.941V42.2938C498.941 43.0151 498.919 43.7881 498.876 44.6126C498.833 45.437 498.76 46.2615 498.657 47.0855C498.555 47.9099 498.413 48.7131 498.232 49.4949C498.052 50.2755 497.824 50.9845 497.549 51.6194H502.419ZM492.088 51.6194H493.556C494.021 50.7438 494.377 49.8897 494.625 49.0563C494.875 48.2241 495.055 47.3689 495.167 46.4933C495.279 45.6178 495.347 44.7115 495.373 43.775C495.399 42.8397 495.412 41.8303 495.412 40.7485V36.2662H506.051V51.6194H507.776V58.2913H504.351V54.6594H495.515V58.2913H492.088V51.6194Z" fill="#606363"/>
<path d="M511.46 54.762C511.305 54.762 511.176 54.762 511.073 54.762C510.971 54.762 510.863 54.7574 510.751 54.749C510.64 54.7407 510.511 54.7323 510.365 54.724C510.219 54.7146 510.025 54.6938 509.785 54.6594V51.8516C510.147 51.9027 510.507 51.9287 510.868 51.9287C511.469 51.9287 511.907 51.774 512.181 51.4651C512.456 51.1563 512.713 50.7178 512.955 50.1516L513.135 49.7386L508.085 36.2662H512.207L514.912 45.3083L517.513 36.2662H521.377L516.972 49.5068C516.663 50.4694 516.359 51.2803 516.059 51.9416C515.757 52.6027 515.411 53.1438 515.015 53.564C514.62 53.9855 514.139 54.2902 513.572 54.4792C513.005 54.6678 512.301 54.762 511.46 54.762Z" fill="#606363"/>
<path d="M522.717 36.2662H526.427V43.2984H530.755V36.2662H534.464V54.6594H530.755V46.4932H526.427V54.6594H522.717V36.2662Z" fill="#606363"/>
<path d="M544.717 47.7298L542.94 39.4604H542.887L541.109 47.7298H544.717ZM540.62 36.2662H545.207L550.075 54.6594H546.211L545.36 50.7694H540.467L539.616 54.6594H535.752L540.62 36.2662Z" fill="#606363"/>
<path d="M556.721 44.587C557.46 44.587 558.056 44.3636 558.512 43.9172C558.967 43.4703 559.193 42.775 559.193 41.8303C559.193 40.9027 558.996 40.199 558.601 39.7178C558.207 39.2375 557.545 38.9964 556.617 38.9964H555.072V44.587H556.721ZM551.363 36.2662H557.855C558.799 36.2662 559.593 36.425 560.237 36.7427C560.881 37.061 561.4 37.4771 561.796 37.9916C562.191 38.5074 562.473 39.0964 562.645 39.7568C562.817 40.4178 562.904 41.0922 562.904 41.7792C562.904 42.7407 562.761 43.5694 562.479 44.2646C562.195 44.9604 561.8 45.5318 561.293 45.9776C560.787 46.425 560.173 46.7594 559.452 46.9828C558.731 47.2063 557.932 47.3178 557.056 47.3178H555.072V54.6594H551.363V36.2662Z" fill="#606363"/>
<path d="M570.607 52.2896C571.156 52.2896 571.597 52.1651 571.933 51.9156C572.268 51.6672 572.525 51.2719 572.705 50.7307C572.885 50.1901 573.005 49.486 573.067 48.6183C573.127 47.7511 573.156 46.6989 573.156 45.4625C573.156 44.226 573.127 43.1787 573.067 42.3197C573.005 41.4615 572.885 40.7573 572.705 40.2073C572.525 39.6579 572.268 39.2588 571.933 39.0093C571.597 38.7609 571.156 38.636 570.607 38.636C570.056 38.636 569.615 38.7609 569.279 39.0093C568.944 39.2588 568.687 39.6579 568.507 40.2073C568.327 40.7573 568.205 41.4615 568.145 42.3197C568.085 43.1787 568.056 44.226 568.056 45.4625C568.056 46.6989 568.085 47.7511 568.145 48.6183C568.205 49.486 568.327 50.1901 568.507 50.7307C568.687 51.2719 568.944 51.6672 569.279 51.9156C569.615 52.1651 570.056 52.2896 570.607 52.2896ZM570.607 54.9421C569.215 54.9421 568.108 54.7145 567.283 54.2599C566.459 53.8052 565.828 53.1615 565.389 52.3281C564.952 51.4953 564.668 50.4989 564.54 49.3396C564.411 48.1807 564.347 46.8885 564.347 45.4625C564.347 44.0713 564.411 42.788 564.54 41.612C564.668 40.4355 564.952 39.426 565.389 38.5844C565.828 37.7432 566.459 37.0864 567.283 36.6136C568.108 36.1416 569.215 35.9052 570.607 35.9052C571.997 35.9052 573.105 36.1416 573.929 36.6136C574.753 37.0864 575.385 37.7432 575.823 38.5844C576.26 39.426 576.544 40.4355 576.672 41.612C576.801 42.788 576.865 44.0713 576.865 45.4625C576.865 46.8885 576.801 48.1807 576.672 49.3396C576.544 50.4989 576.26 51.4953 575.823 52.3281C575.385 53.1615 574.753 53.8052 573.929 54.2599C573.105 54.7145 571.997 54.9421 570.607 54.9421Z" fill="#606363"/>
<path d="M587.84 51.6194V39.3058H584.363V42.2938C584.363 43.0151 584.341 43.7881 584.299 44.6126C584.255 45.437 584.183 46.2615 584.08 47.0855C583.976 47.9099 583.835 48.7131 583.655 49.4949C583.473 50.2755 583.247 50.9845 582.971 51.6194H587.84ZM577.511 51.6194H578.979C579.443 50.7438 579.799 49.8897 580.048 49.0563C580.297 48.2241 580.477 47.3689 580.588 46.4933C580.7 45.6178 580.769 44.7115 580.795 43.775C580.821 42.8397 580.833 41.8303 580.833 40.7485V36.2662H591.472V51.6194H593.199V58.2913H589.773V54.6594H580.937V58.2913H577.511V51.6194Z" fill="#606363"/>
<path d="M594.744 36.2662H598.453V43.2984H602.781V36.2662H606.491V54.6594H602.781V46.4932H598.453V54.6594H594.744V36.2662Z" fill="#606363"/>
<path d="M622.153 36.2662H625.863V54.6594H622.153V36.2662ZM613.807 51.8516C614.923 51.8516 615.708 51.6412 616.164 51.2203C616.619 50.8 616.847 50.0224 616.847 48.8891C616.847 48.3219 616.781 47.8547 616.653 47.485C616.524 47.1156 616.34 46.824 616.1 46.6088C615.859 46.3943 615.553 46.2448 615.185 46.1579C614.815 46.073 614.389 46.0298 613.909 46.0298H612.776V51.8516H613.807ZM609.067 36.2662H612.776V43.2219H614.733C615.679 43.2219 616.516 43.3208 617.245 43.5183C617.975 43.7151 618.589 44.0375 619.088 44.4834C619.585 44.9307 619.968 45.514 620.233 46.2355C620.5 46.9568 620.633 47.8323 620.633 48.8631C620.633 49.9104 620.5 50.8036 620.233 51.5422C619.968 52.2807 619.58 52.8818 619.075 53.3454C618.568 53.8088 617.949 54.1443 617.22 54.35C616.489 54.5563 615.661 54.6594 614.733 54.6594H609.067V36.2662Z" fill="#606363"/>
<path d="M632.032 34.1542C631.405 33.5188 631.075 32.6339 631.04 31.5006H632.74C632.808 32.0151 633.015 32.4198 633.359 32.7115C633.701 33.0036 634.132 33.149 634.647 33.149C635.163 33.149 635.591 33.0036 635.935 32.7115C636.277 32.4198 636.484 32.0151 636.552 31.5006H638.253C638.219 32.6339 637.888 33.5188 637.261 34.1542C636.635 34.7896 635.763 35.1074 634.647 35.1074C633.529 35.1074 632.659 34.7896 632.032 34.1542ZM628.439 36.2662H631.968V48.064L636.476 36.2662H640.469V54.6594H636.94V42.8864L632.432 54.6594H628.439V36.2662Z" fill="#606363"/>
<path d="M451.8 77.9522C453.036 77.9522 453.937 77.5527 454.504 76.7542C455.071 75.9553 455.355 74.9126 455.355 73.6241C455.355 72.9897 455.285 72.4137 455.148 71.8979C455.011 71.3834 454.796 70.9413 454.504 70.5714C454.212 70.2022 453.843 69.9146 453.396 69.7089C452.949 69.5022 452.417 69.3995 451.8 69.3995V77.9522ZM448.348 69.3995C447.729 69.3995 447.196 69.5022 446.749 69.7089C446.303 69.9146 445.935 70.2022 445.643 70.5714C445.351 70.9413 445.136 71.3834 444.999 71.8979C444.86 72.4137 444.792 72.9897 444.792 73.6241C444.792 74.9126 445.076 75.9553 445.643 76.7542C446.209 77.5527 447.111 77.9522 448.348 77.9522V69.3995ZM448.219 80.8115C445.917 80.8115 444.136 80.1803 442.873 78.9183C441.611 77.6563 440.98 75.8913 440.98 73.6241C440.98 72.5422 441.143 71.5683 441.469 70.7006C441.796 69.8339 442.268 69.0902 442.885 68.4725C443.504 67.8537 444.264 67.3771 445.165 67.0427C446.068 66.7074 447.085 66.5402 448.219 66.5402V64.1959H451.928V66.5402C453.061 66.5402 454.08 66.7074 454.98 67.0427C455.883 67.3771 456.643 67.8501 457.26 68.4594C457.879 69.0689 458.351 69.8115 458.677 70.687C459.003 71.5637 459.167 72.5422 459.167 73.6241C459.167 75.8913 458.536 77.6563 457.273 78.9183C456.011 80.1803 454.229 80.8115 451.928 80.8115V83.2328H448.219V80.8115Z" fill="#606363"/>
<path d="M467.101 80.5798C467.651 80.5798 468.092 80.4553 468.428 80.2063C468.763 79.9574 469.02 79.5626 469.2 79.0214C469.381 78.4803 469.5 77.7766 469.561 76.9083C469.621 76.0413 469.651 74.9897 469.651 73.7531C469.651 72.5167 469.621 71.4694 469.561 70.6105C469.5 69.7517 469.381 69.0479 469.2 68.4979C469.02 67.9485 468.763 67.549 468.428 67.3001C468.092 67.0511 467.651 66.9261 467.101 66.9261C466.551 66.9261 466.109 67.0511 465.775 67.3001C465.44 67.549 465.181 67.9485 465.001 68.4979C464.821 69.0479 464.7 69.7517 464.64 70.6105C464.58 71.4694 464.551 72.5167 464.551 73.7531C464.551 74.9897 464.58 76.0413 464.64 76.9083C464.7 77.7766 464.821 78.4803 465.001 79.0214C465.181 79.5626 465.44 79.9574 465.775 80.2063C466.109 80.4553 466.551 80.5798 467.101 80.5798ZM467.101 83.2328C465.709 83.2328 464.603 83.0047 463.777 82.5506C462.953 82.0954 462.323 81.4517 461.884 80.6183C461.447 79.7855 461.163 78.7897 461.035 77.6298C460.905 76.4709 460.841 75.1787 460.841 73.7531C460.841 72.3621 460.905 71.0787 461.035 69.9022C461.163 68.7255 461.447 67.7167 461.884 66.8746C462.323 66.0339 462.953 65.3766 463.777 64.9042C464.603 64.4318 465.709 64.1959 467.101 64.1959C468.492 64.1959 469.6 64.4318 470.424 64.9042C471.248 65.3766 471.88 66.0339 472.317 66.8746C472.755 67.7167 473.039 68.7255 473.167 69.9022C473.296 71.0787 473.36 72.3621 473.36 73.7531C473.36 75.1787 473.296 76.4709 473.167 77.6298C473.039 78.7897 472.755 79.7855 472.317 80.6183C471.88 81.4517 471.248 82.0954 470.424 82.5506C469.6 83.0047 468.492 83.2328 467.101 83.2328Z" fill="#606363"/>
<path d="M480.909 72.8771C481.647 72.8771 482.244 72.6542 482.699 72.2074C483.153 71.761 483.381 71.0657 483.381 70.1209C483.381 69.1933 483.184 68.4897 482.789 68.0083C482.393 67.5277 481.733 67.287 480.805 67.287H479.26V72.8771H480.909ZM475.551 64.5563H482.043C482.987 64.5563 483.781 64.7151 484.425 65.0329C485.069 65.3517 485.588 65.7673 485.984 66.2823C486.379 66.7979 486.661 67.3865 486.833 68.0474C487.005 68.7079 487.091 69.3823 487.091 70.0694C487.091 71.0307 486.949 71.8599 486.665 72.5553C486.383 73.2511 485.988 73.8219 485.481 74.2683C484.975 74.7151 484.36 75.0501 483.639 75.2735C482.917 75.4965 482.119 75.6079 481.244 75.6079H479.26V82.9495H475.551V64.5563Z" fill="#606363"/>
<path d="M491.059 83.0527C490.904 83.0527 490.775 83.0527 490.672 83.0527C490.569 83.0527 490.461 83.0479 490.349 83.0396C490.239 83.0307 490.109 83.0224 489.964 83.014C489.817 83.0047 489.624 82.9844 489.384 82.9495V80.1416C489.745 80.1932 490.105 80.2193 490.467 80.2193C491.067 80.2193 491.504 80.064 491.78 79.7557C492.053 79.4464 492.312 79.0083 492.552 78.4416L492.733 78.0292L487.684 64.5563H491.805L494.511 73.5984L497.112 64.5563H500.976L496.571 77.7973C496.261 78.7593 495.957 79.5708 495.657 80.2323C495.356 80.8927 495.008 81.4339 494.613 81.8547C494.219 82.2755 493.737 82.5803 493.171 82.7693C492.604 82.9579 491.9 83.0527 491.059 83.0527Z" fill="#606363"/>
<path d="M502.392 64.5563H507.905L510.533 77.5402H510.584L513.237 64.5563H518.724V82.9495H515.324V68.2662H515.273L512.001 82.9495H509.116L505.844 68.2662H505.793V82.9495H502.392V64.5563Z" fill="#606363"/>
<path d="M528.488 77.0246H521.223V73.985H528.488V77.0246Z" fill="#606363"/>
<path d="M536.061 80.2194C536.953 80.2194 537.675 80.0219 538.225 79.6266C538.775 79.2313 539.049 78.5017 539.049 77.4365C539.049 76.9047 538.976 76.4626 538.831 76.1105C538.684 75.7583 538.487 75.475 538.239 75.2599C537.989 75.0454 537.692 74.8959 537.349 74.8089C537.005 74.7241 536.628 74.6807 536.216 74.6807H534.619V80.2194H536.061ZM535.675 72.1047C536.705 72.1047 537.456 71.9203 537.929 71.5506C538.401 71.1813 538.637 70.5589 538.637 69.6829C538.637 68.8074 538.423 68.1886 537.993 67.8277C537.564 67.4673 536.885 67.287 535.959 67.287H534.619V72.1047H535.675ZM530.909 64.5563H537.117C537.873 64.5563 538.573 64.6339 539.217 64.7881C539.86 64.9433 540.415 65.2006 540.879 65.561C541.343 65.9214 541.703 66.4027 541.96 67.0037C542.219 67.6053 542.347 68.3433 542.347 69.2194C542.347 70.2151 542.115 71.0698 541.651 71.7823C541.188 72.4954 540.492 72.9803 539.564 73.2381V73.2897C540.595 73.4266 541.411 73.8651 542.012 74.6031C542.612 75.3417 542.913 76.3293 542.913 77.5657C542.913 78.287 542.819 78.9741 542.631 79.6266C542.441 80.2793 542.119 80.8501 541.664 81.3397C541.209 81.8293 540.616 82.2198 539.887 82.5115C539.156 82.8037 538.251 82.9495 537.169 82.9495H530.909V64.5563Z" fill="#606363"/>
<path d="M558.319 64.5563H562.028V82.9495H558.319V64.5563ZM549.972 80.1417C551.088 80.1417 551.873 79.9313 552.329 79.511C552.784 79.0902 553.012 78.3131 553.012 77.1798C553.012 76.6126 552.947 76.1449 552.819 75.775C552.689 75.4063 552.505 75.1141 552.265 74.8995C552.024 74.685 551.719 74.535 551.351 74.4485C550.98 74.3631 550.555 74.3198 550.075 74.3198H548.941V80.1417H549.972ZM545.232 64.5563H548.941V71.5121H550.899C551.844 71.5121 552.681 71.611 553.411 71.8083C554.14 72.0058 554.755 72.3277 555.253 72.7741C555.751 73.2209 556.133 73.8042 556.399 74.5255C556.665 75.247 556.799 76.123 556.799 77.1531C556.799 78.2011 556.665 79.0943 556.399 79.8323C556.133 80.5714 555.747 81.1725 555.24 81.6361C554.733 82.0995 554.115 82.435 553.385 82.6407C552.655 82.847 551.827 82.9495 550.899 82.9495H545.232V64.5563Z" fill="#606363"/>
<path d="M570.477 83.2328C569.087 83.2328 567.979 83.0047 567.155 82.5506C566.329 82.0954 565.699 81.4517 565.261 80.6183C564.824 79.7855 564.54 78.7897 564.412 77.6298C564.283 76.4709 564.219 75.1787 564.219 73.7531C564.219 72.3621 564.283 71.0787 564.412 69.9022C564.54 68.7255 564.824 67.7167 565.261 66.8746C565.699 66.0339 566.329 65.3766 567.155 64.9042C567.979 64.4318 569.087 64.1959 570.477 64.1959C571.8 64.1959 572.843 64.4105 573.608 64.8397C574.372 65.2694 574.943 65.8146 575.321 66.4755C575.699 67.137 575.935 67.8501 576.029 68.6137C576.124 69.3782 576.171 70.0949 576.171 70.7646H572.461C572.461 69.4255 572.303 68.4511 571.985 67.8407C571.667 67.2313 571.087 66.9261 570.247 66.9261C569.783 66.9261 569.4 67.0511 569.1 67.3001C568.799 67.549 568.563 67.9527 568.391 68.511C568.219 69.0688 568.099 69.7985 568.031 70.7006C567.961 71.6022 567.928 72.7052 567.928 74.011C567.928 75.4016 567.975 76.5266 568.069 77.3855C568.163 78.2443 568.309 78.9099 568.507 79.3818C568.704 79.8547 568.953 80.1714 569.255 80.335C569.555 80.4985 569.903 80.5798 570.297 80.5798C570.624 80.5798 570.928 80.5241 571.212 80.4126C571.496 80.3006 571.74 80.0771 571.945 79.7427C572.152 79.4074 572.315 78.9355 572.436 78.325C572.555 77.7157 572.616 76.9131 572.616 75.9173H576.325C576.325 76.9307 576.248 77.8793 576.093 78.7637C575.939 79.6479 575.651 80.4208 575.231 81.0818C574.809 81.7432 574.217 82.2667 573.453 82.6531C572.689 83.0397 571.697 83.2328 570.477 83.2328Z" fill="#606363"/>
<path d="M581.219 67.5965H577.201V64.5563H588.948V67.5965H584.929V82.9495H581.219V67.5965Z" fill="#606363"/>
<path d="M596.805 76.0198L595.028 67.7511H594.976L593.199 76.0198H596.805ZM592.709 64.5563H597.295L602.163 82.9495H598.3L597.449 79.0594H592.555L591.704 82.9495H587.84L592.709 64.5563Z" fill="#606363"/>
<path d="M608.604 80.2194C609.496 80.2194 610.217 80.0219 610.768 79.6266C611.317 79.2313 611.592 78.5017 611.592 77.4365C611.592 76.9047 611.519 76.4626 611.373 76.1105C611.227 75.7583 611.029 75.475 610.78 75.2599C610.531 75.0454 610.235 74.8959 609.892 74.8089C609.548 74.7241 609.171 74.6807 608.759 74.6807H607.161V80.2194H608.604ZM608.217 72.1047C609.247 72.1047 609.999 71.9203 610.471 71.5506C610.943 71.1813 611.18 70.5589 611.18 69.6829C611.18 68.8074 610.965 68.1886 610.536 67.8277C610.107 67.4673 609.428 67.287 608.5 67.287H607.161V72.1047H608.217ZM603.451 64.5563H609.66C610.415 64.5563 611.115 64.6339 611.759 64.7881C612.403 64.9433 612.957 65.2006 613.42 65.561C613.885 65.9214 614.245 66.4027 614.503 67.0037C614.76 67.6053 614.889 68.3433 614.889 69.2194C614.889 70.2151 614.657 71.0698 614.193 71.7823C613.729 72.4954 613.035 72.9803 612.107 73.2381V73.2897C613.137 73.4266 613.953 73.8651 614.553 74.6031C615.155 75.3417 615.456 76.3293 615.456 77.5657C615.456 78.287 615.361 78.9741 615.172 79.6266C614.983 80.2793 614.661 80.8501 614.207 81.3397C613.751 81.8293 613.159 82.2198 612.429 82.5115C611.699 82.8037 610.793 82.9495 609.712 82.9495H603.451V64.5563Z" fill="#606363"/>
<path d="M617.775 64.5563H621.484V71.9241H621.535L626.224 64.5563H630.243L625.245 72.4391L630.809 82.9495H626.636L622.849 75.4017L621.484 77.4886V82.9495H617.775V64.5563Z" fill="#606363"/>
<path d="M639.284 76.0198L637.507 67.7511H637.455L635.677 76.0198H639.284ZM635.188 64.5563H639.773L644.641 82.9495H640.777L639.928 79.0594H635.033L634.183 82.9495H630.319L635.188 64.5563Z" fill="#606363"/>
<path d="M441.495 92.847H453.243V111.24H449.532V95.8864H445.204V111.24H441.495V92.847Z" fill="#606363"/>
<path d="M461.691 108.87C462.241 108.87 462.683 108.746 463.019 108.496C463.353 108.248 463.611 107.853 463.791 107.311C463.971 106.77 464.091 106.067 464.152 105.199C464.212 104.332 464.241 103.28 464.241 102.043C464.241 100.807 464.212 99.7593 464.152 98.9011C464.091 98.0421 463.971 97.338 463.791 96.788C463.611 96.2386 463.353 95.8396 463.019 95.5901C462.683 95.3416 462.241 95.2167 461.691 95.2167C461.141 95.2167 460.7 95.3416 460.364 95.5901C460.029 95.8396 459.772 96.2386 459.592 96.788C459.412 97.338 459.291 98.0421 459.231 98.9011C459.171 99.7593 459.141 100.807 459.141 102.043C459.141 103.28 459.171 104.332 459.231 105.199C459.291 106.067 459.412 106.77 459.592 107.311C459.772 107.853 460.029 108.248 460.364 108.496C460.7 108.746 461.141 108.87 461.691 108.87ZM461.691 111.523C460.3 111.523 459.192 111.295 458.368 110.841C457.544 110.385 456.913 109.742 456.475 108.908C456.037 108.076 455.753 107.08 455.625 105.92C455.496 104.761 455.432 103.469 455.432 102.043C455.432 100.652 455.496 99.3688 455.625 98.1922C455.753 97.0162 456.037 96.0068 456.475 95.1651C456.913 94.324 457.544 93.6672 458.368 93.1943C459.192 92.7224 460.3 92.486 461.691 92.486C463.083 92.486 464.191 92.7224 465.015 93.1943C465.839 93.6672 466.469 94.324 466.908 95.1651C467.345 96.0068 467.629 97.0162 467.757 98.1922C467.887 99.3688 467.951 100.652 467.951 102.043C467.951 103.469 467.887 104.761 467.757 105.92C467.629 107.08 467.345 108.076 466.908 108.908C466.469 109.742 465.839 110.385 465.015 110.841C464.191 111.295 463.083 111.523 461.691 111.523Z" fill="#606363"/>
<path d="M479.363 95.8864H475.344V92.847H487.091V95.8864H483.072V111.24H479.363V95.8864Z" fill="#606363"/>
<path d="M490.827 111.343C490.672 111.343 490.543 111.343 490.44 111.343C490.337 111.343 490.229 111.339 490.117 111.329C490.007 111.321 489.877 111.314 489.732 111.304C489.585 111.295 489.392 111.275 489.152 111.24V108.432C489.513 108.483 489.873 108.509 490.235 108.509C490.835 108.509 491.273 108.355 491.548 108.046C491.823 107.736 492.08 107.298 492.321 106.732L492.501 106.319L487.452 92.847H491.573L494.279 101.889L496.88 92.847H500.744L496.339 106.088C496.029 107.05 495.725 107.861 495.425 108.522C495.124 109.183 494.776 109.725 494.381 110.145C493.987 110.567 493.505 110.871 492.939 111.06C492.372 111.248 491.668 111.343 490.827 111.343Z" fill="#606363"/>
<path d="M507.441 101.168C508.18 101.168 508.776 100.944 509.232 100.498C509.687 100.051 509.915 99.3558 509.915 98.411C509.915 97.4834 509.717 96.7798 509.323 96.2984C508.927 95.8183 508.267 95.5771 507.339 95.5771H505.793V101.168H507.441ZM502.083 92.847H508.576C509.52 92.847 510.315 93.0058 510.959 93.3235C511.603 93.6416 512.121 94.0579 512.517 94.573C512.912 95.088 513.195 95.6766 513.367 96.3375C513.539 96.9984 513.624 97.673 513.624 98.3599C513.624 99.3214 513.483 100.15 513.199 100.845C512.916 101.541 512.521 102.113 512.015 102.558C511.508 103.006 510.893 103.34 510.172 103.564C509.451 103.787 508.652 103.898 507.776 103.898H505.793V111.24H502.083V92.847Z" fill="#606363"/>
<path d="M515.453 92.847H519.008V104.645L523.516 92.847H527.509V111.24H523.955V99.4672L519.447 111.24H515.453V92.847Z" fill="#606363"/>
<path d="M535.211 111.523C534.129 111.523 533.215 111.41 532.468 111.188C531.72 110.965 531.115 110.617 530.651 110.145C530.188 109.673 529.853 109.076 529.647 108.355C529.441 107.633 529.337 106.784 529.337 105.804V105.573H533.047V105.753C533.047 106.165 533.073 106.556 533.124 106.925C533.176 107.295 533.287 107.625 533.459 107.917C533.631 108.209 533.863 108.441 534.155 108.613C534.447 108.784 534.841 108.87 535.34 108.87C536.112 108.87 536.692 108.642 537.079 108.187C537.465 107.733 537.659 107.007 537.659 106.011C537.659 104.963 537.452 104.22 537.04 103.782C536.628 103.344 535.959 103.125 535.031 103.125C534.928 103.125 534.747 103.125 534.489 103.125C534.232 103.125 534.017 103.134 533.845 103.152V100.266C533.932 100.283 534.048 100.291 534.193 100.291C534.339 100.291 534.455 100.291 534.541 100.291C535.553 100.291 536.275 100.07 536.705 99.6255C537.135 99.1812 537.349 98.4464 537.349 97.4208C537.349 96.6355 537.177 96.0713 536.833 95.7297C536.491 95.3875 536.019 95.2167 535.417 95.2167C534.851 95.2167 534.369 95.3402 533.975 95.587C533.58 95.8339 533.339 96.2375 533.253 96.7984C533.219 96.986 533.197 97.1474 533.189 97.2839C533.18 97.4198 533.176 97.6068 533.176 97.8443H529.544V97.6901C529.544 95.9552 530.051 94.6547 531.064 93.787C532.077 92.9203 533.545 92.486 535.469 92.486C537.255 92.486 538.624 92.9027 539.577 93.7355C540.531 94.5688 541.007 95.7667 541.007 97.3292C541.007 97.7755 540.951 98.2224 540.84 98.6688C540.728 99.1156 540.556 99.5276 540.324 99.9052C540.092 100.283 539.804 100.614 539.461 100.897C539.117 101.181 538.723 101.382 538.276 101.502C539.289 101.725 540.08 102.185 540.647 102.881C541.213 103.576 541.496 104.542 541.496 105.779C541.496 107.736 540.951 109.183 539.86 110.119C538.771 111.056 537.22 111.523 535.211 111.523Z" fill="#606363"/>
<path d="M543.892 92.847H549.405L552.033 105.83H552.084L554.737 92.847H560.224V111.24H556.824V96.5563H556.773L553.501 111.24H550.616L547.344 96.5563H547.293V111.24H543.892V92.847Z" fill="#606363"/>
<path d="M565.016 111.343C564.861 111.343 564.732 111.343 564.629 111.343C564.527 111.343 564.419 111.339 564.307 111.329C564.196 111.321 564.067 111.314 563.921 111.304C563.775 111.295 563.581 111.275 563.341 111.24V108.432C563.703 108.483 564.063 108.509 564.424 108.509C565.024 108.509 565.463 108.355 565.737 108.046C566.012 107.736 566.269 107.298 566.511 106.732L566.691 106.319L561.641 92.847H565.763L568.468 101.889L571.069 92.847H574.933L570.528 106.088C570.219 107.05 569.915 107.861 569.615 108.522C569.313 109.183 568.967 109.725 568.571 110.145C568.176 110.567 567.695 110.871 567.128 111.06C566.561 111.248 565.857 111.343 565.016 111.343Z" fill="#606363"/>
<defs>
<linearGradient id="paint0_linear_2965_10" x1="85.8875" y1="81.5906" x2="159.573" y2="81.5906" gradientUnits="userSpaceOnUse">
<stop stop-color="#B267B8"/>
<stop offset="1" stop-color="#8B1B8E"/>
</linearGradient>
<linearGradient id="paint1_linear_2965_10" x1="0.437339" y1="74.1166" x2="73.0511" y2="74.1166" gradientUnits="userSpaceOnUse">
<stop stop-color="#F89C36"/>
<stop offset="1" stop-color="#EE3320"/>
</linearGradient>
<linearGradient id="paint2_linear_2965_10" x1="47.0699" y1="73.9122" x2="108.336" y2="73.9122" gradientUnits="userSpaceOnUse">
<stop stop-color="#99DDF8"/>
<stop offset="1" stop-color="#53B4E9"/>
</linearGradient>
<linearGradient id="paint3_linear_2965_10" x1="152.2" y1="73.9134" x2="223.212" y2="73.9134" gradientUnits="userSpaceOnUse">
<stop stop-color="#BEDF1F"/>
<stop offset="0.0435839" stop-color="#BEDF1F"/>
<stop offset="1" stop-color="#62972E"/>
</linearGradient>
<linearGradient id="paint4_linear_2965_10" x1="215.749" y1="73.9134" x2="283.752" y2="73.9134" gradientUnits="userSpaceOnUse">
<stop stop-color="#F14629"/>
<stop offset="0.0435839" stop-color="#F14629"/>
<stop offset="1" stop-color="#AF1D23"/>
</linearGradient>
</defs>
</svg>
