<svg width="580" height="74" viewBox="0 0 580 74" fill="none" xmlns="http://www.w3.org/2000/svg">
<g clip-path="url(#clip0_2796_7)">
<path d="M4.82508 21.0183L1.33976 12.106H1.29122L1.33976 12.5137V21.0183H0V10.3682H2.01935L5.35904 19.1737L8.69874 10.3682H10.7375V21.0183H9.41716V12.5137L9.45599 12.106H9.41716L5.94155 21.028H4.82508V21.0183Z" fill="#4F1966"/>
<path d="M17.5139 21.3293C15.844 21.3293 14.5819 20.8341 13.7179 19.8245C12.8441 18.8051 12.4072 17.4362 12.4072 15.7372C12.4752 13.9412 12.9024 12.582 13.7179 11.6403C14.2227 11.048 14.8052 10.6597 15.4557 10.417C16.1061 10.2034 16.7857 10.0869 17.5139 10.0869C19.1643 10.0869 20.407 10.6015 21.2613 11.6403C22.1448 12.6596 22.5816 14.0188 22.5816 15.7372C22.6108 17.4071 22.1836 18.7857 21.2904 19.8245C20.4555 20.8341 19.1934 21.3293 17.5139 21.3293ZM17.5139 20.174C17.8148 20.174 18.1255 20.1351 18.4264 20.0866C18.7371 20.0283 19.0769 19.8827 19.4167 19.6885C19.7662 19.475 20.0672 19.1643 20.3196 18.7759C20.8535 17.9604 21.106 16.9605 21.0671 15.7469C21.0671 14.4363 20.7953 13.3975 20.2322 12.6014C20.0283 12.3198 19.7177 12.048 19.2808 11.7568C18.8536 11.4655 18.2711 11.3199 17.5139 11.3199C16.7857 11.3005 16.2129 11.4267 15.776 11.7082C15.3489 12.0092 15.0285 12.2907 14.8052 12.6111C14.4945 13.0189 14.281 13.5237 14.1547 14.0965C14.0188 14.6693 13.9509 15.2227 13.9509 15.7566C13.9509 17.0381 14.2033 18.0381 14.6887 18.7857C15.3295 19.7177 16.2712 20.1837 17.5139 20.1837V20.174Z" fill="#4F1966"/>
<path d="M31.9797 17.5333H33.4165C33.368 18.3779 33.1059 19.0769 32.6593 19.6691C31.8826 20.7759 30.6302 21.3195 28.9118 21.3293C27.4556 21.3293 26.2906 20.9312 25.4071 20.1157C24.3877 19.1352 23.8635 17.7469 23.844 15.9217C23.7761 13.8635 24.3198 12.3004 25.4848 11.2422C26.31 10.485 27.4459 10.0869 28.8439 10.0869C30.3487 10.0869 31.4943 10.485 32.3001 11.2422C32.9117 11.9315 33.2418 12.747 33.2515 13.6887H31.8632C31.8146 13.3004 31.7079 12.9218 31.504 12.5723C31.3098 12.2131 30.9894 11.9218 30.5428 11.6694C30.0963 11.4461 29.5332 11.3005 28.8536 11.3005C27.8439 11.3005 27.0381 11.65 26.4071 12.3004C25.6789 13.0965 25.3586 14.2712 25.3974 15.844C25.3974 17.2032 25.7663 18.2711 26.5041 19.0769C26.8925 19.4847 27.2808 19.7662 27.6789 19.9118C28.0769 20.0672 28.5041 20.1351 28.9604 20.1351C29.5914 20.1351 30.1254 20.0186 30.5526 19.7565C30.9894 19.5235 31.3292 19.2031 31.5622 18.8051C31.8049 18.4167 31.9603 17.9701 32.0088 17.5139L31.9797 17.5333Z" fill="#4F1966"/>
<path d="M36.397 15.2418L41.2027 10.3682H42.9696L37.8824 15.3097L43.2997 21.0183H41.3872L36.397 15.4942V21.0183H34.999V10.3682H36.397V15.2418Z" fill="#4F1966"/>
<path d="M44.3477 10.3682H48.9883C49.7941 10.3682 50.4348 10.5041 50.9008 10.7662C51.3183 10.9798 51.6484 11.2905 51.8717 11.7273C52.1144 12.1545 52.2212 12.6205 52.1726 13.1254C52.1726 13.6593 52.0173 14.135 51.6872 14.5525C51.3668 14.97 50.93 15.2418 50.3766 15.4165V15.4651C50.9979 15.5233 51.5222 15.7855 51.9688 16.2126C52.4153 16.6398 52.6289 17.2611 52.6289 18.0766C52.6581 18.6786 52.5221 19.2125 52.2309 19.6785C51.9299 20.1348 51.493 20.494 50.9591 20.727C50.5513 20.9309 49.8135 21.0183 48.8038 21.0183H44.3477V10.3682ZM45.7651 11.6205V14.9214H48.6096C49.2213 14.9214 49.6873 14.8146 50.0077 14.601C50.4348 14.3389 50.6581 13.8729 50.7067 13.2613C50.7067 12.572 50.4445 12.106 49.9106 11.8244C49.5805 11.6982 49.163 11.6303 48.6873 11.6303H45.7651V11.6205ZM45.7651 16.1155V19.8145H48.697C49.4349 19.8145 49.9882 19.7368 50.3183 19.5717C50.8911 19.2417 51.1824 18.698 51.1824 17.9504C51.1824 17.2029 50.862 16.6689 50.2212 16.3485C49.8329 16.2029 49.3184 16.1155 48.697 16.1155H45.7651Z" fill="#4F1966"/>
<path d="M55.8135 18.2902L54.8135 21.0183H53.3281L57.3474 10.3682H58.8716L62.9006 21.0183H61.3473L60.3182 18.2902H55.8038H55.8135ZM56.2018 17.0767H59.9396L58.0658 11.8438L56.2115 17.0767H56.2018Z" fill="#4F1966"/>
<path d="M74.0654 10.3682H78.3857C79.3274 10.3682 80.1041 10.5526 80.6866 10.8924C80.9778 11.0186 81.2691 11.271 81.5603 11.6885C81.8613 12.0963 82.0166 12.6885 82.0263 13.4457C82.0263 14.7758 81.5603 15.7078 80.6574 16.2806C80.0652 16.6301 79.2594 16.7854 78.2498 16.7854H75.512V21.0183H74.0654V10.3682ZM75.512 11.6205V15.6107H78.0944C78.6478 15.6107 79.1623 15.5136 79.6381 15.3292C80.2594 14.9505 80.5604 14.3389 80.5507 13.4846C80.5021 12.6885 80.2206 12.1351 79.6381 11.8438C79.2303 11.6982 78.7255 11.6205 78.0944 11.6205H75.512Z" fill="#4F1966"/>
<path d="M88.1037 21.3293C86.4339 21.3293 85.1718 20.8341 84.298 19.8245C83.434 18.8051 82.9971 17.4362 82.9971 15.7372C83.065 13.9412 83.5019 12.582 84.298 11.6403C84.8125 11.048 85.3853 10.6597 86.0358 10.417C86.6863 10.2034 87.3756 10.0869 88.1037 10.0869C89.7444 10.0869 90.9871 10.6015 91.8414 11.6403C92.7249 12.6596 93.1715 14.0188 93.1715 15.7372C93.2006 17.4071 92.7637 18.7857 91.8609 19.8245C91.0259 20.8341 89.7833 21.3293 88.094 21.3293H88.1037ZM88.1037 20.174C88.4047 20.174 88.7056 20.1351 89.026 20.0866C89.3367 20.0283 89.6668 19.8827 90.0065 19.6885C90.3463 19.475 90.6473 19.1643 90.9094 18.7759C91.4434 17.9604 91.6764 16.9605 91.6473 15.7469C91.6473 14.4363 91.3754 13.3975 90.8123 12.6014C90.6085 12.3198 90.2978 12.048 89.8706 11.7568C89.4338 11.4655 88.8415 11.3199 88.094 11.3199C87.3659 11.3005 86.7931 11.4267 86.3562 11.7082C85.9387 12.0092 85.6183 12.2907 85.3853 12.6111C85.0941 13.0189 84.8708 13.5237 84.7446 14.0965C84.6087 14.6693 84.5504 15.2227 84.5504 15.7566C84.5504 17.0381 84.7931 18.0381 85.2785 18.7857C85.9193 19.7177 86.861 20.1837 88.094 20.1837L88.1037 20.174Z" fill="#4F1966"/>
<path d="M102.57 17.5333H104.006C103.938 18.3779 103.696 19.0769 103.249 19.6691C102.472 20.7759 101.21 21.3195 99.5017 21.3293C98.0454 21.3293 96.8804 20.9312 96.0067 20.1157C94.9873 19.1352 94.4533 17.7469 94.4339 15.9217C94.3757 13.8635 94.9193 12.3004 96.0746 11.2422C96.9096 10.485 98.026 10.0869 99.4337 10.0869C100.939 10.0869 102.094 10.485 102.89 11.2422C103.502 11.9315 103.841 12.747 103.841 13.6887H102.453C102.405 13.3004 102.278 12.9218 102.094 12.5723C101.9 12.2131 101.57 11.9218 101.133 11.6694C100.686 11.4461 100.123 11.3005 99.4337 11.3005C98.4338 11.3005 97.6183 11.65 96.9872 12.3004C96.2688 13.0965 95.9387 14.2712 95.9873 15.844C95.9873 17.2032 96.3465 18.2711 97.094 19.0769C97.4727 19.4847 97.861 19.7662 98.2687 19.9118C98.6668 20.0672 99.0842 20.1351 99.5405 20.1351C100.172 20.1351 100.706 20.0186 101.133 19.7565C101.57 19.5235 101.9 19.2031 102.133 18.8051C102.375 18.4167 102.531 17.9701 102.57 17.5139V17.5333Z" fill="#4F1966"/>
<path d="M113.239 17.5333H114.676C114.617 18.3779 114.375 19.0769 113.918 19.6691C113.142 20.7759 111.889 21.3195 110.181 21.3293C108.715 21.3293 107.54 20.9312 106.676 20.1157C105.637 19.1352 105.122 17.7469 105.113 15.9217C105.035 13.8635 105.579 12.3004 106.734 11.2422C107.569 10.485 108.695 10.0869 110.103 10.0869C111.608 10.0869 112.763 10.485 113.559 11.2422C114.18 11.9315 114.501 12.747 114.52 13.6887H113.112C113.074 13.3004 112.947 12.9218 112.753 12.5723C112.549 12.2131 112.239 11.9218 111.792 11.6694C111.355 11.4461 110.782 11.3005 110.093 11.3005C109.083 11.3005 108.278 11.65 107.647 12.3004C106.928 13.0965 106.588 14.2712 106.647 15.844C106.647 17.2032 107.016 18.2711 107.753 19.0769C108.132 19.4847 108.53 19.7662 108.928 19.9118C109.326 20.0672 109.753 20.1351 110.21 20.1351C110.831 20.1351 111.375 20.0186 111.802 19.7565C112.239 19.5235 112.569 19.2031 112.821 18.8051C113.064 18.4167 113.2 17.9701 113.258 17.5139L113.239 17.5333Z" fill="#4F1966"/>
<path d="M117.724 18.9602L123.423 10.3779H124.831V21.0281H123.423V12.4264L117.724 21.0281H116.326V10.3779H117.724V18.9602Z" fill="#4F1966"/>
<path d="M133.442 16.8048H131.035L128.413 21.0182H126.637L129.52 16.6592C128.773 16.6009 128.103 16.3194 127.51 15.8437C126.909 15.3776 126.627 14.6204 126.627 13.5913C126.627 12.3195 127.074 11.4457 127.986 10.8827C128.501 10.5526 129.287 10.3584 130.277 10.3584H134.869V21.0085H133.433V16.7951L133.442 16.8048ZM133.442 11.6205H130.413C129.724 11.6205 129.19 11.7467 128.802 12.0477C128.355 12.3777 128.132 12.8923 128.132 13.5816C128.132 14.3291 128.404 14.8728 128.938 15.232C129.345 15.4747 129.918 15.5815 130.656 15.5815H133.452V11.6108L133.442 11.6205Z" fill="#4F1966"/>
<path d="M353.153 19.5718L356.133 10.3779H357.706L354.017 21.0281H352.26L348.58 10.3779H350.133L353.162 19.5718H353.153Z" fill="#4F1966"/>
<path d="M358.881 10.3682H360.366V21.0183H358.881V10.3682Z" fill="#4F1966"/>
<path d="M364.181 14.9409H369.783V16.1544H364.181V19.7757H370.54V21.0281H362.793V10.3779H370.375V11.6497H364.181V14.9506V14.9409Z" fill="#4F1966"/>
<path d="M373.356 12.6012V21.0281H372.017V10.3779H373.541L379.201 18.8534V10.3779H380.57V21.0281H379.045L373.366 12.6012H373.356Z" fill="#4F1966"/>
<path d="M384.336 12.6012V21.0281H382.977V10.3779H384.51L390.151 18.8534V10.3779H391.52V21.0281H389.996L384.326 12.6012H384.336Z" fill="#4F1966"/>
<path d="M395.103 18.2902L394.112 21.0183H392.627L396.637 10.3682H398.17L402.199 21.0183H400.656L399.607 18.2902H395.093H395.103ZM395.51 17.0767H399.238L397.365 11.8438L395.51 17.0767Z" fill="#4F1966"/>
<path d="M414.471 18.2902L413.49 21.0183H411.995L416.014 10.3682H417.539L421.577 21.0183H420.024L418.985 18.2902H414.461H414.471ZM414.869 17.0767H418.607L416.743 11.8438L414.879 17.0767H414.869Z" fill="#4F1966"/>
<path d="M422.393 10.3681H423.84V16.7174C423.84 17.2805 423.879 17.7562 423.927 18.1057C423.995 18.4843 424.112 18.7756 424.277 18.9989C424.762 19.7173 425.539 20.0571 426.578 20.0571C427.675 20.0571 428.442 19.7076 428.898 19.0183C429.209 18.5426 429.354 17.795 429.354 16.7077V10.3584H430.782V16.9019C430.782 17.5523 430.733 18.1445 430.617 18.6397C430.481 19.1348 430.248 19.6008 429.879 20.0474C429.199 20.8144 428.102 21.2221 426.568 21.2221C425.733 21.2221 425.063 21.125 424.52 20.9114C423.995 20.6979 423.568 20.4066 423.248 20.0571C422.908 19.6299 422.685 19.1445 422.549 18.6203C422.432 18.0863 422.384 17.5135 422.384 16.9116V10.3681H422.393Z" fill="#4F1966"/>
<path d="M432.247 17.6692H433.732C433.732 18.0575 433.81 18.4361 433.975 18.7857C434.15 19.1352 434.451 19.4361 434.897 19.708C435.363 19.9798 435.965 20.106 436.722 20.1157C437.752 20.1157 438.451 19.9215 438.81 19.5235C439.179 19.1352 439.353 18.6789 439.353 18.174C439.353 17.6983 439.188 17.3197 438.897 17.0673C438.606 16.8051 438.305 16.6304 437.965 16.5333C437.645 16.4265 437.111 16.3003 436.383 16.1547C436.227 16.1061 435.965 16.0576 435.587 15.9702C435.227 15.8828 434.907 15.8149 434.606 15.7275C434.315 15.6304 434.072 15.5333 433.858 15.4362C433.014 14.9314 432.596 14.1742 432.596 13.1451C432.596 12.2519 432.926 11.5432 433.557 10.9607C434.189 10.3782 435.218 10.0869 436.606 10.0869C437.994 10.0869 438.975 10.4073 439.548 11.0383C440.12 11.6694 440.441 12.3975 440.509 13.2033H439.14C439.082 12.6888 438.868 12.2325 438.48 11.8538C438.111 11.4752 437.48 11.2713 436.596 11.2713C435.713 11.2713 435.072 11.4655 434.664 11.8053C434.247 12.1645 434.053 12.6014 434.091 13.1062C434.091 13.6499 434.286 14.0285 434.703 14.2518C435.101 14.4363 435.8 14.6402 436.761 14.8537C438.062 15.077 439.062 15.4071 439.79 15.8149C440.509 16.2226 440.858 16.9896 440.81 18.1352C440.81 19.0963 440.528 19.8147 440.014 20.3002C439.48 20.7662 438.907 21.0477 438.305 21.1642C437.703 21.271 437.14 21.3098 436.606 21.2807C434.907 21.2807 433.703 20.8341 432.985 19.9701C432.509 19.3682 432.257 18.6012 432.208 17.6789L432.247 17.6692Z" fill="#4F1966"/>
<path d="M445.014 11.64H441.548V10.3682H449.897V11.64H446.451V21.0183H445.014V11.64Z" fill="#4F1966"/>
<path d="M451.314 21.0183V10.3682H456.023C456.897 10.3682 457.567 10.4944 458.062 10.7274C458.489 10.941 458.838 11.2419 459.12 11.6885C459.392 12.1254 459.537 12.6399 459.537 13.2613C459.537 13.9603 459.372 14.5428 459.023 14.9991C458.673 15.4748 458.246 15.766 457.693 15.8923V15.9505C458.635 16.1641 459.13 16.8146 459.237 17.9116C459.275 18.232 459.285 18.5524 459.285 18.9213C459.285 19.2805 459.285 19.5814 459.304 19.8727C459.324 20.1542 459.343 20.3775 459.402 20.562C459.479 20.7173 459.567 20.8727 459.703 21.028H458.217C458.11 20.8921 458.033 20.7756 457.984 20.6785C457.926 20.5911 457.897 20.4455 457.868 20.2416C457.829 20.0669 457.829 19.7853 457.829 19.4747C457.829 19.1446 457.809 18.8533 457.8 18.5718C457.771 17.9116 457.654 17.3776 457.411 17.0573C457.178 16.698 456.625 16.533 455.78 16.533H452.751V21.028H451.334L451.314 21.0183ZM452.732 11.6205V15.3583H455.916C456.732 15.3583 457.285 15.1447 457.596 14.7272C457.897 14.3098 458.052 13.8729 458.052 13.4069C458.052 12.7176 457.829 12.2613 457.421 12.0089C457.013 11.7273 456.441 11.6205 455.722 11.6205H452.732Z" fill="#4F1966"/>
<path d="M461.635 10.3682H463.11V21.0183H461.635V10.3682Z" fill="#4F1966"/>
<path d="M466.751 18.2902L465.741 21.0183H464.256L468.256 10.3682H469.79L473.828 21.0183H472.285L471.246 18.2902H466.751ZM467.13 17.0767H470.867L468.984 11.8438L467.13 17.0767Z" fill="#4F1966"/>
<path d="M352.785 55.8036H349.62V58.7453H353.154V59.6093H348.571V51.4834H352.969V52.3572H349.62V54.9299H352.785V55.8036Z" fill="#4F1966"/>
<path d="M354.979 53.7753L355.804 55.0374C356.027 55.3675 356.212 55.6685 356.406 55.9986H356.435C356.629 55.6393 356.823 55.3287 357.018 55.018L357.843 53.7656H358.979L356.988 56.5908L359.047 59.6101H357.843L356.979 58.3092C356.755 57.9694 356.542 57.649 356.348 57.2995H356.328C356.134 57.6587 355.93 57.9597 355.726 58.3092L354.872 59.6101H353.697L355.775 56.6296L353.794 53.7753H354.979Z" fill="#4F1966"/>
<path d="M360.076 51.0469H361.144V54.7069H361.154C361.338 54.4157 361.591 54.1244 361.93 53.9497C362.241 53.7749 362.61 53.6584 363.018 53.6584C363.804 53.6584 365.037 54.1341 365.037 56.1632V59.6291H363.989V56.2894C363.989 55.338 363.639 54.5516 362.639 54.5516C361.95 54.5516 361.406 55.037 361.222 55.6098C361.144 55.7457 361.144 55.9108 361.144 56.1147V59.6291H360.076V51.0566V51.0469Z" fill="#4F1966"/>
<path d="M367.959 52.1436C367.978 52.5125 367.697 52.8038 367.279 52.8038C366.911 52.8038 366.639 52.5125 366.639 52.1436C366.639 51.7747 366.92 51.4932 367.289 51.4932C367.697 51.4932 367.949 51.765 367.949 52.1436H367.959ZM366.775 59.6191V53.7746H367.843V59.6191H366.775Z" fill="#4F1966"/>
<path d="M369.609 51.0469H370.658V54.7167H370.677C371.046 54.0759 371.716 53.6584 372.667 53.6584C374.124 53.6584 375.133 54.8623 375.133 56.6389C375.133 58.7262 373.823 59.7553 372.522 59.7553C371.677 59.7553 371.007 59.4446 370.561 58.6583H370.532L370.483 59.6194H369.58C369.59 59.2311 369.629 58.6486 369.629 58.1146V51.0469H369.609ZM370.658 57.2894C370.658 57.4253 370.677 57.5418 370.706 57.668C370.91 58.4156 371.531 58.9204 372.289 58.9204C373.405 58.9204 374.085 57.9981 374.085 56.6778C374.085 55.4933 373.463 54.4934 372.337 54.4934C371.609 54.4934 370.939 54.9885 370.726 55.7846C370.706 55.9205 370.667 56.0661 370.667 56.2312V57.2894H370.658Z" fill="#4F1966"/>
<path d="M377.648 52.1436C377.667 52.5125 377.405 52.8038 376.978 52.8038C376.599 52.8038 376.337 52.5125 376.337 52.1436C376.337 51.7747 376.618 51.4932 376.987 51.4932C377.395 51.4932 377.638 51.765 377.638 52.1436H377.648ZM376.473 59.6191V53.7746H377.541V59.6191H376.473Z" fill="#4F1966"/>
<path d="M380.58 52.3867V53.7847H382.095V54.5905H380.58V57.7457C380.58 58.4641 380.784 58.8816 381.376 58.8816C381.658 58.8816 381.833 58.8622 381.998 58.8039L382.046 59.6C381.833 59.6874 381.512 59.7553 381.095 59.7553C380.6 59.7553 380.211 59.5903 379.949 59.2991C379.648 58.9884 379.541 58.4641 379.541 57.7748V54.5808H378.619V53.775H379.541V52.7167L380.571 52.377L380.58 52.3867Z" fill="#4F1966"/>
<path d="M384.473 52.1436C384.473 52.5125 384.22 52.8038 383.813 52.8038C383.424 52.8038 383.152 52.5125 383.152 52.1436C383.152 51.7747 383.434 51.4932 383.822 51.4932C384.211 51.4932 384.473 51.765 384.473 52.1436ZM383.288 59.6191V53.7746H384.346V59.6191H383.288Z" fill="#4F1966"/>
<path d="M391.415 56.658C391.415 58.8133 389.919 59.755 388.502 59.755C386.92 59.755 385.696 58.59 385.696 56.7454C385.696 54.8037 386.987 53.6484 388.599 53.6484C390.211 53.6484 391.415 54.8523 391.415 56.6483V56.658ZM386.774 56.726C386.774 57.9978 387.512 58.9687 388.551 58.9687C389.589 58.9687 390.318 57.9978 390.318 56.6969C390.318 55.6969 389.822 54.4445 388.58 54.4445C387.337 54.4445 386.774 55.6192 386.774 56.726Z" fill="#4F1966"/>
<path d="M392.755 55.3765C392.755 54.7552 392.745 54.2504 392.706 53.7746H393.648L393.716 54.7455H393.735C394.017 54.1824 394.706 53.6484 395.657 53.6484C396.483 53.6484 397.735 54.1242 397.735 56.1435V59.6191H396.677V56.26C396.677 55.3183 396.318 54.5416 395.327 54.5416C394.619 54.5416 394.065 55.027 393.881 55.629C393.852 55.7552 393.823 55.9493 393.823 56.1144V59.6191H392.755V55.3765Z" fill="#4F1966"/>
<path d="M399.317 58.5221C399.627 58.7454 400.171 58.9687 400.705 58.9687C401.482 58.9687 401.841 58.5803 401.841 58.0949C401.841 57.5706 401.55 57.3182 400.763 57.0173C399.715 56.6386 399.22 56.0755 399.22 55.3765C399.22 54.4348 399.977 53.6484 401.239 53.6484C401.831 53.6484 402.336 53.8135 402.676 54.0077L402.404 54.7746C402.181 54.6387 401.744 54.4445 401.21 54.4445C400.579 54.4445 400.229 54.8232 400.229 55.2406C400.229 55.726 400.579 55.959 401.346 56.2406C402.346 56.6289 402.87 57.1241 402.87 57.9978C402.87 59.0366 402.084 59.7647 400.686 59.7647C400.055 59.7647 399.462 59.5997 399.035 59.3667L399.317 58.5415V58.5221Z" fill="#4F1966"/>
<path d="M410.899 58.2309C410.899 58.7357 410.928 59.2211 410.996 59.6192H410.035L409.947 58.8813H409.899C409.578 59.357 408.957 59.7551 408.122 59.7551C406.938 59.7551 406.326 58.9299 406.326 58.0852C406.326 56.6775 407.579 55.8911 409.841 55.9106V55.7843C409.841 55.2892 409.705 54.4446 408.501 54.4446C407.967 54.4446 407.414 54.5999 406.967 54.862L406.744 54.1727C407.229 53.8621 407.909 53.6582 408.656 53.6582C410.443 53.6582 410.87 54.862 410.87 56.0465V58.2406L410.899 58.2309ZM409.889 56.629C408.724 56.629 407.404 56.8231 407.404 57.9493C407.404 58.6483 407.87 58.9687 408.404 58.9687C409.171 58.9687 409.646 58.4833 409.821 57.9784C409.85 57.8717 409.889 57.7454 409.889 57.6484V56.6193V56.629Z" fill="#4F1966"/>
<path d="M412.618 55.3765C412.618 54.7552 412.618 54.2504 412.569 53.7746H413.521L413.579 54.7455H413.598C413.899 54.1824 414.569 53.6484 415.54 53.6484C416.346 53.6484 417.589 54.1242 417.589 56.1435V59.6191H416.53V56.26C416.53 55.3183 416.191 54.5416 415.181 54.5416C414.482 54.5416 413.938 55.027 413.763 55.629C413.705 55.7552 413.686 55.9493 413.686 56.1144V59.6191H412.618V55.3765Z" fill="#4F1966"/>
<path d="M424.394 51.0469V58.1146C424.394 58.6389 424.394 59.2311 424.432 59.6194H423.471L423.432 58.6097H423.413C423.083 59.2505 422.355 59.7553 421.403 59.7553C419.996 59.7553 418.908 58.5709 418.908 56.7943C418.899 54.8526 420.102 53.6487 421.53 53.6487C422.432 53.6487 423.025 54.0759 423.296 54.5322H423.316V51.0469H424.403H424.394ZM423.306 56.1535C423.306 56.037 423.306 55.8622 423.267 55.7166C423.093 55.037 422.52 54.4642 421.724 54.4642C420.627 54.4642 419.986 55.4545 419.986 56.736C419.986 57.9204 420.549 58.9107 421.695 58.9107C422.413 58.9107 423.073 58.4253 423.267 57.6195C423.296 57.4835 423.306 57.3379 423.306 57.1729V56.1438V56.1535Z" fill="#4F1966"/>
<path d="M434.413 59.3669C434.034 59.5513 433.248 59.7552 432.277 59.7552C429.976 59.7552 428.248 58.3086 428.248 55.6388C428.248 52.969 429.976 51.3574 432.51 51.3574C433.51 51.3574 434.151 51.5807 434.442 51.7263L434.19 52.5807C433.782 52.3768 433.209 52.2312 432.529 52.2312C430.636 52.2312 429.355 53.4544 429.355 55.6C429.355 57.5805 430.51 58.8814 432.491 58.8814C433.122 58.8814 433.782 58.7455 434.199 58.5319L434.413 59.3766V59.3669Z" fill="#4F1966"/>
<path d="M440.85 56.658C440.85 58.8133 439.365 59.755 437.938 59.755C436.365 59.755 435.142 58.59 435.142 56.7454C435.142 54.8037 436.423 53.6484 438.044 53.6484C439.666 53.6484 440.85 54.8523 440.85 56.6483V56.658ZM436.21 56.726C436.21 57.9978 436.947 58.9687 437.986 58.9687C439.025 58.9687 439.763 57.9978 439.763 56.6969C439.763 55.6969 439.258 54.4445 438.006 54.4445C436.753 54.4445 436.21 55.6192 436.21 56.726Z" fill="#4F1966"/>
<path d="M442.199 55.3765C442.199 54.7552 442.17 54.2504 442.15 53.7746H443.102L443.141 54.7455H443.17C443.451 54.1824 444.141 53.6484 445.102 53.6484C445.908 53.6484 447.16 54.1242 447.16 56.1435V59.6191H446.092V56.26C446.092 55.3183 445.752 54.5416 444.743 54.5416C444.044 54.5416 443.5 55.027 443.335 55.629C443.286 55.7552 443.247 55.9493 443.247 56.1144V59.6191H442.189V55.3765H442.199Z" fill="#4F1966"/>
<path d="M453.898 58.7745C453.898 60.1337 453.626 60.9492 453.053 61.4443C452.49 61.9685 451.665 62.153 450.937 62.153C450.209 62.153 449.461 61.9783 449.005 61.6579L449.247 60.8521C449.646 61.0948 450.228 61.3181 450.956 61.3181C452.053 61.3181 452.849 60.7453 452.849 59.2599V58.6191H452.82C452.5 59.1628 451.878 59.5997 450.956 59.5997C449.51 59.5997 448.49 58.3764 448.49 56.7454C448.49 54.7649 449.772 53.6484 451.112 53.6484C452.121 53.6484 452.675 54.1727 452.937 54.6581H452.956L453.014 53.7746H453.937C453.917 54.2115 453.898 54.6678 453.898 55.3765V58.7745ZM452.84 56.0755C452.84 55.9105 452.84 55.7552 452.781 55.6095C452.597 54.9785 452.073 54.4639 451.296 54.4639C450.296 54.4639 449.568 55.328 449.568 56.6969C449.568 57.8425 450.141 58.8036 451.296 58.8036C451.946 58.8036 452.539 58.3861 452.762 57.7163C452.83 57.5124 452.849 57.3182 452.849 57.1532V56.0755H452.84Z" fill="#4F1966"/>
<path d="M455.568 55.6193C455.568 54.9203 455.568 54.3378 455.529 53.7844H456.461L456.5 54.93H456.539C456.811 54.1533 457.452 53.6582 458.16 53.6582C458.287 53.6582 458.364 53.6679 458.461 53.697V54.6873C458.354 54.6679 458.257 54.6582 458.092 54.6582C457.345 54.6582 456.821 55.2407 456.685 56.0271C456.665 56.163 456.626 56.3377 456.626 56.5319V59.6289H455.568V55.629V55.6193Z" fill="#4F1966"/>
<path d="M460.015 56.9008C460.034 58.3377 460.937 58.9396 462.005 58.9396C462.772 58.9396 463.228 58.8037 463.646 58.6289L463.811 59.4056C463.442 59.5609 462.801 59.7648 461.879 59.7648C460.063 59.7648 459.015 58.5804 459.015 56.8134C459.015 55.0465 460.053 53.6582 461.743 53.6582C463.665 53.6582 464.17 55.3281 464.17 56.4154C464.17 56.6387 464.15 56.8037 464.141 56.9105H460.034L460.015 56.9008ZM463.121 56.1436C463.121 55.4543 462.84 54.4058 461.636 54.4058C460.568 54.4058 460.102 55.4057 460.015 56.1436H463.121Z" fill="#4F1966"/>
<path d="M465.315 58.5221C465.626 58.7454 466.189 58.9687 466.723 58.9687C467.49 58.9687 467.829 58.5803 467.829 58.0949C467.829 57.5706 467.558 57.3182 466.761 57.0173C465.713 56.6386 465.208 56.0755 465.208 55.3765C465.208 54.4348 465.975 53.6484 467.227 53.6484C467.81 53.6484 468.344 53.8135 468.664 54.0077L468.383 54.7746C468.169 54.6387 467.752 54.4445 467.189 54.4445C466.567 54.4445 466.227 54.8232 466.227 55.2406C466.227 55.726 466.567 55.959 467.344 56.2406C468.363 56.6289 468.878 57.1241 468.878 57.9978C468.878 59.0366 468.082 59.7647 466.674 59.7647C466.043 59.7647 465.451 59.5997 465.053 59.3667L465.315 58.5415V58.5221Z" fill="#4F1966"/>
<path d="M470.091 58.5221C470.402 58.7454 470.975 58.9687 471.499 58.9687C472.266 58.9687 472.645 58.5803 472.645 58.0949C472.645 57.5706 472.334 57.3182 471.538 57.0173C470.489 56.6386 470.004 56.0755 470.004 55.3765C470.004 54.4348 470.79 53.6484 472.033 53.6484C472.625 53.6484 473.14 53.8135 473.46 54.0077L473.198 54.7746C472.975 54.6387 472.547 54.4445 472.004 54.4445C471.382 54.4445 471.023 54.8232 471.023 55.2406C471.023 55.726 471.382 55.959 472.12 56.2406C473.149 56.6289 473.674 57.1241 473.674 57.9978C473.674 59.0366 472.868 59.7647 471.48 59.7647C470.839 59.7647 470.247 59.5997 469.829 59.3667L470.082 58.5415L470.091 58.5221Z" fill="#4F1966"/>
<path d="M477.635 51.5908C478.266 51.4937 479.042 51.416 479.858 51.416C481.363 51.416 482.431 51.7752 483.159 52.4451C483.887 53.0956 484.304 54.0567 484.304 55.377C484.304 56.6974 483.897 57.7847 483.13 58.5226C482.363 59.2895 481.12 59.6876 479.528 59.6876C478.771 59.6876 478.159 59.6585 477.635 59.6002V51.5908ZM478.683 58.7944C478.936 58.8332 479.324 58.8527 479.732 58.8527C481.984 58.8527 483.207 57.5906 483.207 55.3965C483.207 53.4645 482.13 52.2509 479.907 52.2509C479.363 52.2509 478.965 52.2995 478.683 52.348V58.7847V58.7944Z" fill="#4F1966"/>
<path d="M486.256 56.9008C486.285 58.3377 487.207 58.9396 488.275 58.9396C489.032 58.9396 489.498 58.8037 489.906 58.6289L490.091 59.4056C489.702 59.5609 489.062 59.7648 488.149 59.7648C486.324 59.7648 485.256 58.5804 485.256 56.8134C485.256 55.0465 486.285 53.6582 487.994 53.6582C489.906 53.6582 490.411 55.3281 490.411 56.4154C490.411 56.6387 490.382 56.8037 490.372 56.9105H486.256V56.9008ZM489.372 56.1436C489.401 55.4543 489.1 54.4058 487.906 54.4058C486.838 54.4058 486.363 55.4057 486.285 56.1436H489.382H489.372Z" fill="#4F1966"/>
<path d="M492.149 53.7754L493.275 57.0665C493.479 57.6005 493.644 58.0859 493.77 58.5713H493.799C493.935 58.0859 494.1 57.6102 494.304 57.0665L495.44 53.7754H496.547L494.255 59.6199H493.246L491.022 53.7754H492.158H492.149Z" fill="#4F1966"/>
<path d="M498.013 56.9008C498.032 58.3377 498.954 58.9396 500.013 58.9396C500.78 58.9396 501.236 58.8037 501.634 58.6289L501.809 59.4056C501.449 59.5609 500.799 59.7648 499.886 59.7648C498.071 59.7648 497.013 58.5804 497.013 56.8134C497.013 55.0465 498.032 53.6582 499.731 53.6582C501.653 53.6582 502.158 55.3281 502.158 56.4154C502.158 56.6387 502.129 56.8037 502.119 56.9105H498.013V56.9008ZM501.129 56.1436C501.129 55.4543 500.847 54.4058 499.653 54.4058C498.566 54.4058 498.1 55.4057 498.032 56.1436H501.129Z" fill="#4F1966"/>
<path d="M503.479 51.0469H504.517V59.6194H503.479V51.0469Z" fill="#4F1966"/>
<path d="M511.615 56.658C511.615 58.8133 510.11 59.755 508.702 59.755C507.12 59.755 505.887 58.59 505.887 56.7454C505.887 54.8037 507.178 53.6484 508.799 53.6484C510.421 53.6484 511.615 54.8523 511.615 56.6483V56.658ZM506.974 56.726C506.974 57.9978 507.712 58.9687 508.751 58.9687C509.79 58.9687 510.518 57.9978 510.518 56.6969C510.518 55.6969 510.032 54.4445 508.78 54.4445C507.527 54.4445 506.974 55.6192 506.974 56.726Z" fill="#4F1966"/>
<path d="M512.963 55.697C512.963 54.9397 512.925 54.3475 512.896 53.7844H513.857L513.905 54.7844H513.934C514.371 54.0854 515.07 53.6582 516.012 53.6582C517.42 53.6582 518.488 54.862 518.488 56.629C518.488 58.726 517.206 59.7551 515.827 59.7551C515.061 59.7551 514.391 59.4347 514.031 58.8425H514.012V62.0171H512.963V55.697ZM514.012 57.26C514.012 57.4057 514.031 57.5416 514.051 57.6872C514.235 58.425 514.895 58.9396 515.643 58.9396C516.769 58.9396 517.42 58.0076 517.42 56.6775C517.42 55.4931 516.808 54.4931 515.672 54.4931C514.954 54.4931 514.274 55.0174 514.07 55.8038C514.041 55.9494 514.012 56.1047 514.012 56.2503V57.2503V57.26Z" fill="#4F1966"/>
<path d="M519.828 55.3765C519.828 54.7552 519.808 54.2504 519.76 53.7746H520.702L520.75 54.7067H520.799C521.109 54.163 521.663 53.6484 522.624 53.6484C523.439 53.6484 524.031 54.1242 524.294 54.8232H524.303C524.497 54.4931 524.721 54.2309 524.973 54.0562C525.313 53.7941 525.701 53.6484 526.255 53.6484C527.031 53.6484 528.177 54.1436 528.177 56.1823V59.6191H527.138V56.3085C527.138 55.1921 526.73 54.5125 525.876 54.5125C525.274 54.5125 524.798 54.9494 524.604 55.4833C524.575 55.6387 524.536 55.8134 524.536 56.0173V59.6191H523.497V56.1241C523.497 55.2018 523.08 54.5125 522.274 54.5125C521.614 54.5125 521.119 55.0465 520.944 55.5804C520.886 55.726 520.857 55.9105 520.857 56.095V59.6094H519.837V55.3668L519.828 55.3765Z" fill="#4F1966"/>
<path d="M530.477 56.9008C530.497 58.3377 531.439 58.9396 532.487 58.9396C533.264 58.9396 533.71 58.8037 534.108 58.6289L534.293 59.4056C533.914 59.5609 533.273 59.7648 532.341 59.7648C530.555 59.7648 529.468 58.5804 529.468 56.8134C529.468 55.0465 530.497 53.6582 532.215 53.6582C534.118 53.6582 534.633 55.3281 534.633 56.4154C534.633 56.6387 534.604 56.8037 534.594 56.9105H530.477V56.9008ZM533.604 56.1436C533.613 55.4543 533.312 54.4058 532.128 54.4058C531.06 54.4058 530.594 55.4057 530.497 56.1436H533.604Z" fill="#4F1966"/>
<path d="M535.944 55.3765C535.944 54.7552 535.925 54.2504 535.886 53.7746H536.837L536.905 54.7455H536.925C537.216 54.1824 537.895 53.6484 538.857 53.6484C539.672 53.6484 540.924 54.1242 540.924 56.1435V59.6191H539.857V56.26C539.857 55.3183 539.517 54.5416 538.517 54.5416C537.808 54.5416 537.264 55.027 537.08 55.629C537.031 55.7552 537.012 55.9493 537.012 56.1144V59.6191H535.954V55.3765H535.944Z" fill="#4F1966"/>
<path d="M543.875 52.3867V53.7847H545.409V54.5905H543.875V57.7457C543.875 58.4641 544.089 58.8816 544.672 58.8816C544.963 58.8816 545.147 58.8622 545.293 58.8039L545.351 59.6C545.157 59.6874 544.807 59.7553 544.409 59.7553C543.905 59.7553 543.516 59.5903 543.254 59.2991C542.953 58.9884 542.846 58.4641 542.846 57.7748V54.5808H541.953V53.775H542.846V52.7167L543.885 52.377L543.875 52.3867Z" fill="#4F1966"/>
<path d="M555.389 59.2506C554.914 59.4448 553.982 59.7167 552.894 59.7167C551.661 59.7167 550.632 59.406 549.846 58.6487C549.147 57.9594 548.7 56.8624 548.7 55.6197C548.72 53.1829 550.38 51.4062 553.108 51.4062C554.059 51.4062 554.797 51.6101 555.147 51.7752L554.875 52.6295C554.457 52.4353 553.914 52.28 553.098 52.28C551.108 52.28 549.807 53.513 549.807 55.5615C549.807 57.6099 551.05 58.8429 552.962 58.8429C553.642 58.8429 554.118 58.7555 554.36 58.6196V56.1925H552.7V55.3382H555.38V59.2409L555.389 59.2506Z" fill="#4F1966"/>
<path d="M556.963 55.3765C556.963 54.7552 556.943 54.2504 556.914 53.7746H557.846L557.885 54.7067H557.914C558.244 54.163 558.797 53.6484 559.749 53.6484C560.555 53.6484 561.137 54.1242 561.399 54.8232H561.428C561.613 54.4931 561.856 54.2309 562.079 54.0562C562.428 53.7941 562.807 53.6484 563.38 53.6484C564.147 53.6484 565.292 54.1436 565.292 56.1823V59.6191H564.254V56.3085C564.254 55.1921 563.846 54.5125 562.992 54.5125C562.399 54.5125 561.924 54.9494 561.729 55.4833C561.681 55.6387 561.652 55.8134 561.652 56.0173V59.6191H560.594V56.1241C560.594 55.2018 560.195 54.5125 559.37 54.5125C558.7 54.5125 558.225 55.0465 558.069 55.5804C558.001 55.726 557.982 55.9105 557.982 56.095V59.6094H556.953V55.3668L556.963 55.3765Z" fill="#4F1966"/>
<path d="M567.04 51.0469H568.088V54.7167H568.127C568.477 54.0759 569.166 53.6584 570.117 53.6584C571.564 53.6584 572.593 54.8623 572.574 56.6389C572.574 58.7262 571.253 59.7553 569.952 59.7553C569.127 59.7553 568.428 59.4446 568.001 58.6583H567.952L567.904 59.6194H567.001C567.03 59.2311 567.05 58.6486 567.05 58.1146V51.0469H567.04ZM568.088 57.2894C568.088 57.4253 568.127 57.5418 568.137 57.668C568.341 58.4156 568.952 58.9204 569.729 58.9204C570.836 58.9204 571.506 57.9981 571.506 56.6778C571.506 55.4933 570.894 54.4934 569.758 54.4934C569.03 54.4934 568.35 54.9885 568.127 55.7846C568.117 55.9205 568.069 56.0661 568.069 56.2312V57.2894H568.088Z" fill="#4F1966"/>
<path d="M574.991 51.4932V54.9008H578.923V51.4932H580V59.6191H578.923V55.8037H574.991V59.6191H573.942V51.4932H574.991Z" fill="#4F1966"/>
<path d="M0 29.5811H19.7469V32.0761H5.43671V35.0469H18.5916V37.5808H5.37846V41.7651H20.2323V44.2505H0V29.5811Z" fill="#4F1966"/>
<path d="M87.6867 29.3291C81.1918 29.3291 74.7939 31.5135 74.7939 36.8628C74.7939 42.2122 81.1918 44.416 87.6867 44.416C94.1816 44.416 100.579 42.2122 100.579 36.8628C100.579 31.5135 94.1914 29.3291 87.6867 29.3291ZM87.6867 41.717C85.7062 41.717 80.4345 41.3093 80.4345 36.7463C80.4345 32.1834 85.7062 31.7853 87.6867 31.7853C89.6672 31.7853 94.9389 32.1931 94.9389 36.7463C94.9389 41.2996 89.6867 41.717 87.6867 41.717Z" fill="#4F1966"/>
<path d="M218.07 29.3291C211.556 29.3291 205.168 31.5135 205.168 36.8628C205.168 42.2122 211.556 44.416 218.07 44.416C224.585 44.416 230.963 42.2122 230.963 36.8628C230.963 31.5135 224.575 29.3291 218.07 29.3291ZM218.07 41.717C216.071 41.717 210.818 41.3093 210.818 36.7463C210.818 32.1834 216.071 31.7853 218.07 31.7853C220.07 31.7853 225.323 32.1931 225.323 36.7463C225.323 41.2996 220.061 41.717 218.07 41.717Z" fill="#4F1966"/>
<path d="M61.6875 29.5419H51.0762V43.9686H56.6294V38.5611H62.202C69.2115 38.5611 71.7163 35.9592 71.7163 34.0563C71.7163 33.1535 71.6386 29.5322 61.6875 29.5322V29.5419ZM59.94 35.8621H56.6585V31.804H59.94C64.0854 31.804 65.9592 32.6875 65.9592 33.7748C65.9592 34.7748 64.2796 35.8718 59.94 35.8718V35.8621Z" fill="#4F1966"/>
<path d="M41.756 36.1054V36.0666C43.9987 35.7462 45.6491 34.2997 45.6491 32.892C45.6491 30.7949 43.5909 29.6396 36.8921 29.6396H24.7178V44.2217H34.5815C44.6006 44.2217 46.8627 41.9208 46.8627 40.1053C46.8627 38.2898 45.7753 36.4064 41.7366 36.1054H41.756ZM30.0186 31.7561H33.6883C40.0959 31.7561 40.3872 33.0279 40.3872 33.4162C40.3872 33.9987 39.3969 35.0764 34.0281 35.0764H30.0089V31.7561H30.0186ZM34.3291 41.5422H29.97V37.5908H34.3291C39.727 37.5908 41.2221 38.5714 41.2221 39.5811C41.2221 40.5907 39.2221 41.5422 34.3291 41.5422Z" fill="#4F1966"/>
<path d="M108.841 34.1053L103.579 33.3675C103.579 33.3675 104.647 29.1055 113.957 29.1055C123.268 29.1055 126.617 32.7558 126.617 36.8916C126.617 41.0274 123.083 44.5321 112.987 44.2118C112.987 44.2118 106.026 44.5224 103.579 39.6003L108.841 38.542C108.841 38.542 109.336 41.6973 114.899 41.6973C120.462 41.6973 120.841 37.9013 120.841 37.9013H112.637V35.513H120.899C120.899 35.513 120.18 31.7462 114.753 31.7462C109.705 31.7462 108.841 34.115 108.841 34.115V34.1053Z" fill="#4F1966"/>
<path d="M131.199 29.5615V44.1824H136.451V37.5612C136.451 37.5612 138.383 37.3477 139.811 38.9301C141.257 40.5223 144.412 44.2018 144.412 44.2018H150.684L146.432 39.4253C146.432 39.4253 143.645 36.2409 141.558 36.3962C141.558 36.3962 143.238 36.105 144.432 34.2312C145.626 32.3672 146.519 31.2411 150.228 31.4158V29.2508C150.228 29.2508 144.403 28.6586 142.141 31.1828C139.869 33.6876 139.655 35.173 137.597 35.406C137.597 35.406 136.84 35.4933 136.403 35.4642V29.5421H131.189L131.199 29.5615Z" fill="#4F1966"/>
<path d="M170.13 34.0955C170.295 34.0955 175.363 33.4353 175.363 33.4353C175.363 33.4353 174.285 29.0762 164.354 29.1927C154.432 29.3189 152.471 34.1634 152.471 37.3187C152.471 40.4739 156.247 44.2213 164.655 44.2213C173.062 44.2213 174.742 40.9884 175.499 39.4934L170.354 38.4934C170.354 38.4934 169.383 41.6389 164.655 41.6389C159.927 41.6389 158.121 39.4933 158.121 36.9886C158.121 34.4838 159.422 31.746 164.451 31.746C169.48 31.746 170.14 34.0955 170.14 34.0955H170.13Z" fill="#4F1966"/>
<path d="M179.936 44.2598V29.5225H201.168V44.221H195.77V32.0758H185.421V44.2598H179.936Z" fill="#4F1966"/>
<path d="M272.699 73.5121L251.166 51.9983V21.5236L272.699 0H303.155L324.688 21.5236V51.9983L303.155 73.5121H272.699Z" fill="#00633A"/>
<path d="M273.466 71.6967L252.991 51.2119V22.3003L273.466 1.83496H302.397L322.863 22.3003V51.2119L302.397 71.6967H273.466Z" fill="#4F1966"/>
<path d="M302.64 72.3086H273.204L252.38 51.4744V22.0385L273.204 1.22363H302.64L323.475 22.0385V51.4744L302.64 72.3086ZM273.709 71.0854H302.135L322.242 50.9695V22.5433L302.135 2.4566H273.709L253.603 22.5433V50.9695L273.709 71.0854Z" fill="white"/>
<path d="M275.951 66.1043L258.738 48.9108V24.6009L275.951 7.41699H300.242L317.445 24.6009V48.9108L300.242 66.1043H275.951Z" fill="#00633A"/>
<path d="M300.494 66.7066H275.689L258.127 49.1635V24.3585L275.689 6.81543H300.494L318.057 24.3585V49.1635L300.494 66.7066ZM276.194 65.4834H299.99L316.824 48.6587V24.8634L299.99 8.03869H276.194L259.35 24.8634V48.6587L276.194 65.4834Z" fill="white"/>
<path d="M299.242 12.3096H277.98L263.165 25.9013V39.9688H306.086V43.891H263.165V47.2113L266.495 50.551H299.892L295.814 54.7742H270.747L277.262 61.2691H298.086L312.591 46.9104V33.6195H269.514V28.9207H312.435V25.4839L309.707 22.7267H276.165L280.553 18.4938H305.455L299.242 12.3096Z" fill="#4F1966"/>
<path d="M298.339 61.881H277.01L269.272 54.1725H295.562L298.465 51.1629H266.253L262.563 47.4543V43.2797H305.484V40.571H262.563V25.6298L277.747 11.6885H299.504L306.931 19.096H280.796L277.67 22.1056H309.96L313.047 25.222V29.5325H270.126V33.0082H313.203V47.163L298.329 61.881H298.339ZM277.514 60.6577H297.834L311.979 46.6582V34.2411H268.893V28.319H311.814V25.7366L309.436 23.3386H274.631L280.281 17.8824H303.95L298.97 12.9117H278.184L263.748 26.1637V39.338H306.669V44.4932H263.748V46.9397L266.719 49.9299H301.3L296.038 55.386H272.194L277.476 60.648L277.514 60.6577Z" fill="white"/>
<path d="M348.571 29.668H370.658V32.0951H354.649V34.9882H369.357V37.4541H354.581V41.5219H371.202V43.9588H348.571V29.668Z" fill="#4F1966"/>
<path d="M468.664 29.668H490.741V32.0951H474.732V34.9882H489.44V37.4541H474.674V41.5219H491.294V43.9588H468.664V29.668Z" fill="#4F1966"/>
<path d="M400.113 38.5035C400.113 40.5423 398.977 44.0955 388.298 44.0955C384.676 44.0955 376.347 43.8043 376.347 38.5035V29.6494H382.123V38.1346C382.123 39.1539 382.492 41.4937 388.23 41.4937C393.967 41.4937 394.346 39.1539 394.346 38.1346V29.6494H400.123V38.5035H400.113Z" fill="#4F1966"/>
<path d="M412.753 31.853H417.957C424.219 31.853 424.617 33.2122 424.617 33.6199C424.617 34.3869 422.996 35.416 417.957 35.416H412.753V31.853ZM406.53 29.6104V43.9206H412.685V38.0275H415.297C417.637 38.0275 420.093 38.9498 420.938 39.7945L423.336 42.7361L425.433 43.9206H431.753L429.064 42.1536L427.122 39.1634C426.277 38.3479 425.18 37.8334 423.501 37.6683V37.6198C425.928 37.3771 430.976 35.7946 430.976 33.4549C430.976 31.5326 428.18 29.6104 418.879 29.6104H406.55H406.53Z" fill="#4F1966"/>
<path d="M449.626 29.416C442.354 29.416 435.209 31.5519 435.209 36.7556C435.209 41.9593 442.354 44.1048 449.626 44.1048C456.898 44.1048 464.053 41.9787 464.053 36.7556C464.053 31.5325 456.907 29.416 449.626 29.416ZM449.626 41.4739C447.403 41.4739 441.519 41.0855 441.519 36.6391C441.519 32.1926 447.403 31.8043 449.626 31.8043C451.849 31.8043 457.762 32.2023 457.762 36.6391C457.762 41.0758 451.869 41.4739 449.626 41.4739Z" fill="#4F1966"/>
<path d="M565.341 29.416C558.059 29.416 550.914 31.5519 550.914 36.7556C550.914 41.9593 558.059 44.1048 565.341 44.1048C572.622 44.1048 579.767 41.9787 579.767 36.7556C579.767 31.5325 572.603 29.416 565.341 29.416ZM565.341 41.4739C563.118 41.4739 557.215 41.0855 557.215 36.6391C557.215 32.1926 563.118 31.8043 565.341 31.8043C567.564 31.8043 573.447 32.2023 573.447 36.6391C573.447 41.0758 567.564 41.4739 565.341 41.4739Z" fill="#4F1966"/>
<path d="M501.517 29.5811L507.41 34.076L513.73 29.5811H520.167L511.313 36.3964L521.041 43.8524H514.061L507.41 38.8429L500.595 43.8524H493.673L503.391 36.3964L494.537 29.5811H501.517Z" fill="#4F1966"/>
<path d="M536.245 29.6396H524.391V43.6586H530.594V38.3966H536.827C544.662 38.3966 547.467 35.8627 547.467 34.0278C547.467 33.1541 547.38 29.6396 536.245 29.6396ZM534.303 35.7754H530.623V31.8338H534.303C538.943 31.8338 541.031 32.6978 541.031 33.7463C541.031 34.7074 539.157 35.7754 534.303 35.7754Z" fill="#4F1966"/>
</g>
<defs>
<clipPath id="clip0_2796_7">
<rect width="580" height="73.5121" fill="white"/>
</clipPath>
</defs>
</svg>
